<svg width="163" height="35" fill="none" xmlns="http://www.w3.org/2000/svg"><g clip-path="url(#clip0_875_2673)" fill="#1D1D1B"><path d="M15.315 8.422c0 1.094-.875 1.969-1.86 1.969H1.97C.875 10.28 0 9.406 0 8.42c0-.983.875-1.968 1.97-1.968h11.486c.984 0 1.86.875 1.86 1.969zm-1.969 18.484H1.97c-1.094 0-1.86.875-1.86 1.86 0 .984.876 1.859 1.86 1.859h11.487c1.094 0 1.86-.875 1.86-1.86 0-.984-.876-1.859-1.97-1.859zm6.455-15.312H1.969c-1.094 0-1.86.875-1.86 1.86 0 1.093.876 1.858 1.86 1.858h17.832c1.094 0 1.86-.874 1.86-1.859 0-.984-.876-1.86-1.86-1.86zm0 10.172H1.969c-1.094 0-1.86.875-1.86 1.859 0 1.094.876 1.86 1.86 1.86h17.832c1.094 0 1.86-.876 1.86-1.86 0-.984-.876-1.86-1.86-1.86zm2.625-5.032H1.97c-1.095 0-1.97.766-1.97 1.86 0 1.093.875 1.86 1.86 1.86h20.347c1.094 0 1.86-.876 1.86-1.86.11-1.094-.656-1.86-1.64-1.86zm137.073-2.187c1.422 0 2.626-1.203 2.626-2.625s-1.204-2.625-2.626-2.625-2.625 1.203-2.625 2.625c0 1.531 1.203 2.625 2.625 2.625zm0-.219c-1.313 0-2.297-.984-2.297-2.297 0-1.312.984-2.297 2.297-2.297 1.313 0 2.297.985 2.297 2.297 0 1.203-.984 2.188-2.297 2.297zm-1.094-1.312c0 .218.109.328.328.328.219 0 .328-.11.328-.328v-.547h.438l.656.765c.11.11.219.11.219.11.219 0 .328-.11.328-.328 0-.11 0-.22-.109-.22l-.438-.546a.821.821 0 00.547-.766c0-.546-.437-.875-1.094-.875h-.984c-.219 0-.328.11-.328.329l.109 2.078zm.656-1.094v-.766h.547c.329 0 .438.11.438.328 0 .22-.219.329-.438.329h-.547v.109zM98.675 26.14c.11.875.875 1.53 1.75 1.422.766-.11 1.313-.657 1.422-1.422V12.578h4.376c.766-.11 1.422-.765 1.313-1.64a1.63 1.63 0 00-1.313-1.313H94.408c-.765-.11-1.531.547-1.64 1.313-.11.765.546 1.53 1.312 1.64h4.704v13.563h-.11zm-66.513-.22c0 .876.657 1.532 1.532 1.532h5.032c5.58 0 9.517-3.937 9.517-8.969 0-5.03-3.938-8.859-9.517-8.859h-5.032c-.876 0-1.532.656-1.641 1.531v14.766h.11zm3.173-1.202v-12.14h3.5c3.173-.22 6.017 2.296 6.236 5.468v.547c.11 3.172-2.297 5.906-5.58 6.015h-4.156v.11zm39.054 1.422c.11.875.875 1.53 1.75 1.422a1.627 1.627 0 001.422-1.422v-3.72l2.954-2.843 5.689 7.328c.328.438.766.766 1.313.766.875 0 1.531-.656 1.531-1.422v-.11c0-.437-.11-.765-.438-1.093L82.704 17.5l5.58-5.36c.328-.328.546-.765.546-1.203 0-.765-.656-1.421-1.422-1.421-.547 0-.984.218-1.313.546l-8.423 8.532v-7.438c-.11-.875-.875-1.531-1.75-1.422a1.626 1.626 0 00-1.423 1.422l-.109 14.985zm46.165 1.64c5.032.11 9.189-3.828 9.299-8.86v-.327a9.29 9.29 0 00-9.299-9.297 9.29 9.29 0 00-9.299 9.297c-.109 5.031 3.939 9.187 8.971 9.187.109.11.219.11.328 0zm0-2.843c-3.391 0-6.126-2.735-6.017-6.125v-.22c-.109-3.28 2.407-6.124 5.798-6.234h.219c3.391 0 6.126 2.735 6.017 6.125v.22c.109 3.28-2.407 6.124-5.689 6.233h-.328zm15.534 1.203c.11.875.875 1.53 1.641 1.422.766-.11 1.313-.657 1.422-1.422V14.766l9.19 11.812c.328.547.984.985 1.641.985h.109c.875 0 1.532-.657 1.532-1.532V11.047c-.11-.875-.876-1.531-1.641-1.422a1.628 1.628 0 00-1.423 1.422v10.937l-8.97-11.593c-.328-.547-.985-.875-1.641-.875h-.328c-.875 0-1.532.656-1.532 1.53v15.095zm-70.232-7.547c0-.766-.656-1.422-1.422-1.422h-3.938c-.766 0-1.422.656-1.422 1.422 0 .765.656 1.422 1.422 1.422h4.047c.766 0 1.422-.657 1.313-1.422zm-7.986 6.125h8.861c.766 0 1.422.656 1.422 1.422 0 .765-.656 1.422-1.422 1.422H56.23c-.875 0-1.531-.657-1.531-1.532V11.266c0-.875.656-1.532 1.531-1.532h10.501c.766 0 1.422.657 1.422 1.422 0 .766-.656 1.422-1.422 1.422h-8.86v12.14z"/></g><defs><clipPath id="clip0_875_2673"><path fill="#fff" d="M0 0h163v35H0z"/></clipPath></defs></svg>