<svg width="257" height="43" fill="none" xmlns="http://www.w3.org/2000/svg"><path d="M145.749 20.659a10.774 10.774 0 01-.747 4.344 10.844 10.844 0 01-2.425 3.69 10.927 10.927 0 01-3.703 2.427 10.982 10.982 0 01-4.369.762 11.095 11.095 0 01-4.359-.795 11.04 11.04 0 01-3.693-2.436 10.963 10.963 0 01-2.43-3.683 10.889 10.889 0 01-.775-4.335c-.052-1.5.201-2.995.743-4.396a11.186 11.186 0 012.413-3.759 11.256 11.256 0 013.698-2.523 11.321 11.321 0 018.793 0 11.256 11.256 0 013.698 2.523 11.168 11.168 0 012.412 3.759c.543 1.4.796 2.896.744 4.396v.026zm-4.952-.13a6.85 6.85 0 00-.67-3.198 6.105 6.105 0 00-2.218-2.61 6.16 6.16 0 00-6.599-.117 6.105 6.105 0 00-2.309 2.531 7.858 7.858 0 00-.42 5.755c.19.769.532 1.492 1.004 2.13a6.052 6.052 0 003.975 2.38c.788.118 1.591.08 2.364-.111 2.955-.614 4.899-3.237 4.899-6.76h-.026zm11.349-8.341c2.982-3.837 9.97-3.64 12.636-.522a8.16 8.16 0 012.036 5.456v14.264h-4.978V17.735c-.276-2.61-1.668-4.072-4.072-4.163a4.738 4.738 0 00-3.343.948 4.682 4.682 0 00-1.78 2.967c-.098.7-.137 1.408-.118 2.114v11.811h-5.057V9.84h4.637s.039 1.801.039 2.35zm-81.4-6.055V2.009l-4.94 1.5v27.877h4.966c-.04-8.104-.026-17.148-.026-25.253z" fill="#1E1E1C"/><path d="M120.134 9.84V5.492h-5.004V9.84h-1.892v4.098h1.852v17.45h5.005v-17.45h2.995a12.88 12.88 0 011.97-2.662 12.569 12.569 0 011.826-1.436h-6.752zM54.602 24.652c-.17-2.61-1.734-4.359-4.703-5.22-1.064-.327-2.18-.51-3.257-.77a11.245 11.245 0 01-3.494-.992 1.953 1.953 0 01-.975-1.511 1.934 1.934 0 01.686-1.66 4.424 4.424 0 013.563-.887 4.429 4.429 0 011.733.725c.518.362.952.831 1.271 1.375v.105c.106.208.198.443.198.443l.21-.065 4.282-1.305a.824.824 0 000-.222 6.966 6.966 0 00-3.27-3.915 10.562 10.562 0 00-10.01 0 6.35 6.35 0 00-2.76 2.72 6.294 6.294 0 00-.655 3.805 5.506 5.506 0 001.522 3.173 5.568 5.568 0 003.14 1.617c1.905.444 3.836.81 5.715 1.305 1.313.365 1.983 1.122 1.996 2.101a2.6 2.6 0 01-.594 1.578 2.63 2.63 0 01-1.442.889 6.206 6.206 0 01-1.904.326h-.71a5.562 5.562 0 01-2.295-.952 5.52 5.52 0 01-1.645-1.854l-4.388 1.305a7.824 7.824 0 001.752 2.734 7.884 7.884 0 002.715 1.795 11.996 11.996 0 009.286-.196 6.166 6.166 0 003.14-2.53 6.102 6.102 0 00.893-3.917zm58.125 0c-.184-2.61-1.734-4.359-4.716-5.22-1.064-.326-2.167-.51-3.258-.77a11.17 11.17 0 01-3.481-.992 1.939 1.939 0 01-.288-3.171 4.408 4.408 0 013.564-.894 4.385 4.385 0 013.003 2.107v.105c.105.209.197.444.197.444l.197-.066 4.296-1.305a2.053 2.053 0 000-.222 7.074 7.074 0 00-3.271-3.915 10.642 10.642 0 00-10.022 0 6.376 6.376 0 00-2.755 2.722 6.32 6.32 0 00-.66 3.803 5.507 5.507 0 001.527 3.177 5.568 5.568 0 003.149 1.613c1.904.444 3.822.81 5.713 1.305 1.314.366 1.971 1.123 1.997 2.101a2.596 2.596 0 01-.595 1.579 2.627 2.627 0 01-1.441.888 6.356 6.356 0 01-1.905.326h-.709a5.541 5.541 0 01-2.253-.965 5.498 5.498 0 01-1.609-1.84l-4.4 1.304a7.826 7.826 0 001.757 2.736 7.885 7.885 0 002.722 1.793 11.968 11.968 0 009.274-.196 6.167 6.167 0 003.101-2.544 6.101 6.101 0 00.866-3.903zM93.89 17.448c-2.088-8.81-11.98-10.01-17.076-5.82a12.288 12.288 0 00-3.755 6.532 12.234 12.234 0 00.773 7.484 9.987 9.987 0 003.916 4.66 10.085 10.085 0 005.91 1.539 10.09 10.09 0 005.327-1.262 10.003 10.003 0 003.868-3.854l-4.4-1.305s-.29.261-.553.509a5.96 5.96 0 01-2.688 1.54 5.987 5.987 0 01-3.103-.014 5.958 5.958 0 01-2.674-1.565 5.902 5.902 0 01-1.518-2.689c-.302-1.096-.236-1.135-.236-1.135h16.327a13.85 13.85 0 00-.118-4.62zm-4.663.861H77.813s0-.104.144-.744a5.664 5.664 0 012.13-3.095 5.727 5.727 0 013.61-1.094 5.435 5.435 0 013.45 1.119 5.374 5.374 0 011.962 3.031c.074.255.113.518.118.783zm100.75-.861c-2.089-8.81-11.967-10.01-17.076-5.82a12.267 12.267 0 00-3.776 6.526 12.21 12.21 0 00.768 7.49 10.796 10.796 0 003.744 4.345 10.908 10.908 0 0011.083.63 10.821 10.821 0 004.219-3.892l-4.387-1.305s-.289.261-.552.509a5.96 5.96 0 01-2.688 1.54 5.988 5.988 0 01-3.103-.014 5.956 5.956 0 01-2.674-1.565 5.9 5.9 0 01-1.518-2.689c-.302-1.096-.236-1.135-.236-1.135h16.34a13.865 13.865 0 00-.144-4.62zm-4.663.861h-11.415s0-.104.144-.744a5.664 5.664 0 012.13-3.095 5.73 5.73 0 013.61-1.094 5.435 5.435 0 013.449 1.119 5.375 5.375 0 011.963 3.031c.073.255.114.518.119.783zM62.207 13.637H57.19v17.75h5.017v-17.75zm-2.547-2.741a2.815 2.815 0 002.823-2.806 2.815 2.815 0 00-2.824-2.806 2.815 2.815 0 00-2.824 2.806 2.815 2.815 0 002.824 2.806zm137.646 2.128a2.82 2.82 0 01-.486 1.57 2.849 2.849 0 01-1.282 1.037 2.869 2.869 0 01-3.102-.622 2.823 2.823 0 01-.612-3.085 2.832 2.832 0 011.05-1.269 2.862 2.862 0 014.219 1.281c.143.345.215.715.213 1.088zm-.354 0a2.465 2.465 0 00-.729-1.758 2.497 2.497 0 00-1.767-.73 2.507 2.507 0 00-1.768.73 2.49 2.49 0 00-.728 1.758 2.465 2.465 0 00.728 1.758 2.503 2.503 0 002.725.54 2.499 2.499 0 001.351-1.347c.125-.302.189-.625.188-.951zm-1.314 1.449h-.394l-.63-1.175h-.749v1.175h-.368v-2.91h1.038a.903.903 0 01.682.216.879.879 0 01.303.645.859.859 0 01-.552.796l.67 1.252zm-1.773-1.528h.67c.433 0 .63-.208.63-.521 0-.314-.197-.51-.63-.51h-.67v1.031z" fill="#1E1E1C"/><path d="M23.575 34.975a2.955 2.955 0 001.72-.574c4.966-3.263 5.137-9.384 1.459-15.4-2.93-4.79-2.338-8.94.105-12.425a.22.22 0 00-.058-.316.224.224 0 00-.113-.036H.496a.224.224 0 00-.224.222v28.308a.234.234 0 00.224.221h23.079z" fill="#FF4438"/></svg>