<svg width="30" height="30" fill="none" xmlns="http://www.w3.org/2000/svg"><g clip-path="url(#clip0_409_3365)"><path d="M15 30c8.284 0 15-6.716 15-15 0-8.284-6.716-15-15-15C6.716 0 0 6.716 0 15c0 8.284 6.716 15 15 15z" fill="#DA0000"/><path d="M24.582 10.187a2.504 2.504 0 00-1.769-1.77C21.253 8 15 8 15 8s-6.253 0-7.813.418a2.508 2.508 0 00-1.77 1.769C5 11.747 5 15 5 15s0 3.253.418 4.813c.229.86.906 1.538 1.769 1.77C8.747 22 15 22 15 22s6.253 0 7.813-.418a2.508 2.508 0 001.77-1.769C25 18.253 25 15 25 15s0-3.253-.418-4.813zM13 18v-6l5.196 3L13 18z" fill="#fff"/></g><defs><clipPath id="clip0_409_3365"><path fill="#fff" d="M0 0h30v30H0z"/></clipPath></defs></svg>