<svg width="30" height="31" fill="none" xmlns="http://www.w3.org/2000/svg"><g clip-path="url(#clip0_409_3362)"><path d="M15 30.024c8.284 0 15-6.715 15-15 0-8.284-6.716-15-15-15-8.284 0-15 6.716-15 15 0 8.285 6.716 15 15 15z" fill="#fff"/><path d="M15.013 0C6.723 0 0 6.722 0 15.013 0 21.376 3.953 26.813 9.538 29c-.136-1.187-.247-3.016.049-4.311.27-1.173 1.755-7.462 1.755-7.462s-.444-.903-.444-2.225c0-2.089 1.21-3.644 2.718-3.644 1.284 0 1.902.964 1.902 2.113 0 1.285-.816 3.213-1.25 5.005-.357 1.495.754 2.717 2.225 2.717 2.67 0 4.72-2.817 4.72-6.869 0-3.595-2.582-6.104-6.277-6.104-4.276 0-6.783 3.2-6.783 6.511 0 1.285.494 2.669 1.111 3.422a.444.444 0 01.098.434c-.11.469-.37 1.495-.42 1.704-.062.271-.222.333-.506.198-1.878-.878-3.052-3.609-3.052-5.82 0-4.733 3.436-9.082 9.923-9.082 5.202 0 9.255 3.706 9.255 8.673 0 4.967-3.262 9.34-7.784 9.34-1.52 0-2.954-.791-3.436-1.729 0 0-.753 2.867-.94 3.571-.333 1.31-1.249 2.94-1.866 3.942 1.408.434 2.89.667 4.448.667 8.292 0 15.014-6.722 15.014-15.013C30.024 6.722 23.302 0 15.013 0z" fill="#C40027"/></g><defs><clipPath id="clip0_409_3362"><path fill="#fff" d="M0 0h30v30.049H0z"/></clipPath></defs></svg>