<svg width="12" height="17" fill="none" xmlns="http://www.w3.org/2000/svg"><g clip-path="url(#clip0_409_3349)" fill="#fff"><path d="M5.884 17c-.08-.075-.18-.138-.237-.227-1.323-2.05-2.577-4.137-3.68-6.306C1.395 9.344.879 8.198.497 6.998c-.47-1.477-.251-2.87.53-4.189C1.754 1.581 2.836.752 4.22.307a5.55 5.55 0 012.7-.192c2.04.363 3.498 1.471 4.34 3.299a4.8 4.8 0 01.216 3.585c-.49 1.523-1.185 2.958-1.94 4.369a73.008 73.008 0 01-3.203 5.39c-.06.094-.162.162-.245.242h-.205zm.103-1.014c.034-.05.06-.084.083-.12.664-1.1 1.345-2.19 1.987-3.302.964-1.665 1.875-3.357 2.533-5.162.167-.456.318-.928.38-1.404.152-1.166-.175-2.236-.869-3.188C9.272 1.673 8.137.99 6.709.784a4.958 4.958 0 00-3.212.589C2.22 2.09 1.407 3.159 1.08 4.556c-.13.557-.167 1.12-.04 1.69.22.982.608 1.905 1.033 2.814 1.11 2.37 2.454 4.617 3.85 6.837.016.026.036.05.064.088z"/><path d="M3.274 5.219c.007-1.413 1.221-2.553 2.716-2.55 1.505.005 2.724 1.161 2.71 2.572-.016 1.415-1.235 2.553-2.726 2.544-1.495-.009-2.707-1.16-2.7-2.566zm4.71-.001c-.007-1.028-.901-1.86-1.998-1.86-1.104.001-2.007.849-1.997 1.877.01 1.036.908 1.864 2.015 1.856 1.097-.007 1.989-.85 1.98-1.873z"/></g><defs><clipPath id="clip0_409_3349"><path fill="#fff" d="M0 0h12v17H0z"/></clipPath></defs></svg>