<svg width="30" height="29" fill="none" xmlns="http://www.w3.org/2000/svg"><g clip-path="url(#clip0_409_3369)"><path d="M29.898 4.323v19.845a4.251 4.251 0 01-1.272 3.04H1.133V1.46A4.222 4.222 0 014.27.065h21.39c2.34 0 4.238 1.906 4.238 4.258z" fill="#fff"/><path d="M28.628 27.214H1.127V1.458l.001-.002A4.222 4.222 0 014.268.061h21.39a4.214 4.214 0 013.002 1.248 4.248 4.248 0 011.243 3.015V24.17a4.258 4.258 0 01-1.273 3.046l-.002-.001zm-27.49-.012h27.486a4.229 4.229 0 001.268-3.036V4.323c0-2.343-1.898-4.25-4.231-4.25H4.27a4.23 4.23 0 00-3.131 1.39v25.739z" fill="#000"/><path d="M5.352 24.946c-.118-.052-.202-.11-.065-.229.085-.065.177-.124.268-.183.854-.557 1.656-1.166 2.184-2.063.443-.746.372-1.185-.183-1.736-3.09-3.104-4.446-6.818-3.768-11.206.386-2.476 1.512-4.617 3.156-6.477.992-1.126 2.171-2.037 3.462-2.796.078-.046.19-.06.202-.178-.026-.065-.072-.045-.11-.045-2.199 0-4.396-.046-6.586.013C1.812.11 0 1.742.006 4.08c.013 6.83 0 13.661 0 20.498 0 2.122 1.61 3.898 3.716 3.976 1.78.073 3.56.013 5.346.006.131.006.26.014.392.014h9.414c2.347 0 4.694.013 7.041 0a3.947 3.947 0 003.945-3.95v-3.87c0-.092.032-.19-.027-.288-.117.006-.163.104-.228.17a14.44 14.44 0 01-4.394 3.031c-4.01 1.775-8.09 1.9-12.23.472a1.912 1.912 0 00-1.121-.052c-.548.137-1.089.301-1.63.465-1.591.498-3.215.72-4.878.393zm4.727-11.036c.11-.145.169-.23.235-.315.854-1.087 1.708-2.174 2.562-3.268.247-.314.496-.635.652-1.015.182-.432-.014-.838-.456-.995a1.746 1.746 0 00-.614-.073 337.95 337.95 0 00-3.488 0c-.163 0-.326.02-.482.06a.69.69 0 00.012 1.34c.156.04.319.06.482.052.705.006 1.415 0 2.12.006.077 0 .176-.052.235.065-.06.078-.118.157-.177.229-1.01 1.284-2.015 2.574-3.025 3.857-.247.321-.378.676-.196 1.069.183.393.555.465.933.49.3.02.606.006.913.006 1.056 0 2.106.006 3.162-.006.56-.006.86-.347.802-.871-.046-.413-.327-.63-.848-.636-.919-.002-1.838.004-2.823.004zm7.562-3.444c-.815-.714-1.715-.76-2.594-.236-1.07.629-1.46 1.657-1.33 2.848.124 1.114.606 2.024 1.767 2.397.723.236 1.395.15 1.988-.334.156-.124.202-.098.313.04a.8.8 0 00.913.255.765.765 0 00.542-.74c.006-1.31.013-2.62 0-3.93-.006-.524-.496-.858-1.005-.753-.28.06-.437.25-.594.453zm4.518 2.429c-.026 1.637 1.324 2.875 3.018 2.705 1.558-.157 2.57-1.33 2.517-2.986-.052-1.637-1.265-2.757-2.927-2.705-1.558.046-2.66 1.303-2.608 2.986zm-.573-1.303c0-1.029.006-2.05 0-3.078 0-.524-.333-.85-.828-.845-.483.006-.802.334-.81.838-.005.307 0 .609 0 .917v5.207c0 .406.248.76.574.845a.834.834 0 001.056-.838c.015-1.016.008-2.031.008-3.046z" fill="#FDFEFE"/><path d="M9.062 28.568c-1.78 0-3.566.059-5.346-.006C1.61 28.476 0 26.702 0 24.586c0-6.83.013-13.662 0-20.499C0 1.75 1.82.119 3.912.059 6.102 0 8.299.046 10.496.046c.04 0 .092-.02.11.046-.012.118-.13.131-.2.177-1.292.76-2.472 1.67-3.463 2.797-1.637 1.86-2.77 3.995-3.156 6.477-.678 4.382.684 8.1 3.768 11.206.547.557.62.989.183 1.736-.528.897-1.33 1.507-2.184 2.062-.092.052-.183.119-.274.178-.137.118-.052.177.065.229.026.059.059.11.097.164.75.667 1.46 1.381 2.197 2.062.346.32.691.655 1.024.989.138.124.367.164.4.399z" fill="#0180C7"/><path d="M9.062 28.567c-.032-.229-.26-.269-.397-.406a28.142 28.142 0 00-1.023-.989c-.737-.68-1.448-1.394-2.198-2.062a.754.754 0 01-.097-.164c1.662.328 3.286.105 4.883-.387.541-.164 1.082-.328 1.63-.465a1.881 1.881 0 011.12.052c4.133 1.427 8.214 1.297 12.23-.472a14.42 14.42 0 004.395-3.026c.065-.065.11-.163.228-.17.059.092.027.191.027.289v3.83a3.954 3.954 0 01-3.912 3.99h-.033c-2.347.013-4.694 0-7.041 0h-9.42a4.29 4.29 0 00-.392-.02z" fill="#0172B1"/><path d="M10.079 13.91c.984 0 1.91-.006 2.83 0 .514.006.795.223.847.635.058.517-.242.864-.802.872-1.056.013-2.106.006-3.162.006-.306 0-.606.013-.913-.006-.378-.02-.75-.098-.933-.491-.182-.393-.051-.746.196-1.068a1696.72 1696.72 0 013.025-3.857c.059-.079.118-.157.177-.23-.065-.11-.156-.059-.236-.065-.704-.006-1.414 0-2.119-.006-.163 0-.326-.019-.482-.051a.688.688 0 01-.013-1.337c.156-.04.319-.06.482-.06a405.54 405.54 0 013.488 0c.21-.005.41.02.614.073.442.15.632.563.456.996-.156.373-.405.694-.652 1.015a767.32 767.32 0 01-2.562 3.262c-.07.083-.137.168-.241.312z" fill="#0180C7"/><path d="M17.641 10.466c.156-.203.32-.393.587-.445.515-.105.997.229 1.004.753.02 1.31.014 2.62 0 3.93a.774.774 0 01-.54.74.79.79 0 01-.914-.255c-.11-.138-.156-.164-.313-.04-.593.484-1.265.57-1.989.334-1.16-.38-1.636-1.29-1.766-2.397-.137-1.198.26-2.22 1.33-2.848.888-.532 1.786-.486 2.601.228zm-2.307 2.39c.013.288.104.563.273.792a1.073 1.073 0 001.715 0c.365-.498.365-1.316 0-1.814a.976.976 0 00-.776-.412c-.717-.046-1.218.51-1.212 1.434zm6.825.039c-.051-1.683 1.05-2.94 2.615-2.986 1.662-.052 2.875 1.068 2.927 2.705.051 1.657-.959 2.829-2.517 2.986-1.701.17-3.05-1.067-3.025-2.705zm1.637-.157c-.013.328.085.648.28.917.36.472 1.03.563 1.5.197.073-.052.132-.118.19-.184.378-.497.378-1.335.006-1.833a.996.996 0 00-.776-.412c-.704-.041-1.2.496-1.2 1.315zm-2.21-1.146c0 1.014.006 2.03 0 3.044a.85.85 0 01-1.064.838c-.326-.085-.573-.433-.573-.845V9.424c0-.307-.006-.609 0-.917.006-.504.326-.832.809-.832.495-.006.828.32.828.845.007 1.022 0 2.05 0 3.072z" fill="#0180C7"/><path d="M15.334 12.857c-.006-.924.495-1.48 1.206-1.44.306.012.592.163.776.419.365.49.365 1.316 0 1.814a1.073 1.073 0 01-1.715 0 1.484 1.484 0 01-.267-.793zm8.462-.118c0-.813.496-1.357 1.2-1.317a1 1 0 01.776.412c.372.498.372 1.343-.006 1.834a1.072 1.072 0 01-1.506.177.81.81 0 01-.182-.19 1.487 1.487 0 01-.282-.916z" fill="#FDFEFE"/><path d="M25.66 28.489H4.27a4.27 4.27 0 01-3.185-1.417 4.32 4.32 0 01-1.117-2.906V4.323a4.327 4.327 0 012.53-3.94A4.264 4.264 0 014.27 0h21.39c.58 0 1.144.115 1.675.34a4.31 4.31 0 012.29 2.3c.224.533.338 1.1.338 1.683v19.844a4.305 4.305 0 01-1.291 3.087 4.27 4.27 0 01-3.011 1.235zM4.27.13c-1.174 0-2.3.5-3.09 1.373a4.194 4.194 0 00-1.081 2.82v19.844a4.195 4.195 0 001.253 2.995 4.137 4.137 0 002.92 1.197h21.39a4.14 4.14 0 002.92-1.197 4.169 4.169 0 001.252-2.995V4.323c0-2.311-1.872-4.192-4.172-4.192H4.27z" fill="#0180C7"/></g><defs><clipPath id="clip0_409_3369"><path fill="#fff" d="M0 0h30v28.594H0z"/></clipPath></defs></svg>