<svg width="40" height="15" viewBox="0 0 40 15" fill="none" xmlns="http://www.w3.org/2000/svg">
<path d="M39.6981 8.17967L32.1995 14.7931C31.8432 15.1076 31.3125 15.0579 31.014 14.6826C30.7155 14.3073 30.7626 13.7482 31.1189 13.4338L36.8418 8.38652H0.841597C0.377035 8.38652 0 7.98936 0 7.5C0 7.01064 0.377035 6.61347 0.841597 6.61347H36.8418L31.1189 1.56619C30.7626 1.25177 30.7155 0.692671 31.014 0.317375C31.1806 0.108155 31.4191 0 31.6598 0C31.8505 0 32.0419 0.0679674 32.1995 0.206856L39.6987 6.82033C39.8895 6.98877 40 7.23759 40 7.5C40 7.76241 39.8895 8.01123 39.6981 8.17967Z" fill="white"/>
</svg>
