<svg width="40" height="16" viewBox="0 0 40 16" fill="none" xmlns="http://www.w3.org/2000/svg">
<path d="M39.6981 8.6533L32.1995 15.2668C31.8432 15.5812 31.3125 15.5315 31.014 15.1562C30.7155 14.781 30.7626 14.2219 31.1189 13.9074L36.8418 8.86015H0.841597C0.377035 8.86015 0 8.46299 0 7.97363C0 7.48427 0.377035 7.0871 0.841597 7.0871H36.8418L31.1189 2.03983C30.7626 1.7254 30.7155 1.1663 31.014 0.791008C31.1806 0.581788 31.4191 0.473633 31.6598 0.473633C31.8505 0.473633 32.0419 0.5416 32.1995 0.680489L39.6987 7.29396C39.8895 7.4624 40 7.71122 40 7.97363C40 8.23604 39.8895 8.48486 39.6981 8.6533Z" fill="#000936"/>
</svg>
