<svg width="40" height="16" viewBox="0 0 40 16" fill="none" xmlns="http://www.w3.org/2000/svg">
<path d="M0.301853 8.85204L7.80048 15.4115C8.15676 15.7234 8.68753 15.6741 8.98601 15.3019C9.2845 14.9297 9.23737 14.3751 8.88109 14.0633L3.15823 9.05721H39.1584C39.623 9.05721 40 8.66329 40 8.17792C40 7.69255 39.623 7.29863 39.1584 7.29863H3.15823L8.88109 2.29255C9.23737 1.9807 9.2845 1.42616 8.98601 1.05393C8.81938 0.84642 8.58092 0.739147 8.34023 0.739147C8.14946 0.739147 7.95814 0.80656 7.80048 0.944315L0.301296 7.5038C0.110534 7.67086 0 7.91765 0 8.17792C0 8.43819 0.11053 8.68498 0.301853 8.85204Z" fill="#000936"/>
</svg>
