<svg xmlns="http://www.w3.org/2000/svg" version="1.1" id="Layer_1" x="0" y="0" viewBox="0 0 1920 240" xml:space="preserve"><path d="M1920 0v175.9c-62 56.8-219.8 74.9-328.2 59.5-167.2-23.8-239.1-132.2-430-129.1-195.4 3.2-282.4 122.3-521.5 129.1-239.1 6.8-322.7-162.6-463.1-164.6C101.2 69.7 52.6 103.3 0 135V0h1920z" fill="#dee0e7"/><path d="M1920 0v114.4c-50.8.7-73.4 9.6-137.3 39.3-284.2 131.9-435.1-72.5-627.3-72.5S910.2 165.9 740.6 181C571 196.1 480 50.2 251.8 41.7 179.3 39.1 74.4 58.7 0 101.5V0h1920z" fill="#000936"/></svg>