<svg xmlns="http://www.w3.org/2000/svg" xmlns:xlink="http://www.w3.org/1999/xlink" version="1.1" id="Layer_1" x="0px" y="0px" viewBox="0 0 1920 240" style="enable-background:new 0 0 1920 240;" xml:space="preserve">
<style type="text/css">
	.st0{fill:#DEE0E7;}
	.st1{fill:#000936;}
</style>
<path class="st0" d="M1920,0v175.9c-62,56.8-219.8,74.9-328.2,59.5c-167.2-23.8-239.1-132.2-430-129.1  c-195.4,3.2-282.4,122.3-521.5,129.1C401.2,242.2,317.6,72.8,177.2,70.8C101.2,69.7,52.6,103.3,0,135V0H1920z"/>
<path class="st1" d="M1920,0v114.4c-50.8,0.7-73.4,9.6-137.3,39.3c-284.2,131.9-435.1-72.5-627.3-72.5S910.2,165.9,740.6,181  C571,196.1,480,50.2,251.8,41.7C179.3,39.1,74.4,58.7,0,101.5V0H1920z"/>
</svg>