<svg version="1.2" xmlns="http://www.w3.org/2000/svg" width="1920" height="141"><path id="Layer" d="M1920 38.9v102.3H0V48.9C57.2 6 202.7-7.7 302.7 4c154.2 18 220.5 99.9 396.5 97.5C879.4 99.1 959.6 9.1 1180.1 4c220.5-5.1 297.6 122.9 427.1 124.4s172.7-86.6 312.8-89.5z" fill="#dee0e7"/><path id="Layer" d="M1920 70.8v70.4H0v-81C74.4 25.1 179.3 9 251.8 11.2 480 18.2 571 137.7 740.6 125.4c169.6-12.3 222.6-81.7 414.8-81.7 192.2 0 343.1 167.4 627.3 59.4 63.9-24.4 86.5-31.7 137.3-32.3z" fill="#000936"/></svg>