<svg version="1.2" xmlns="http://www.w3.org/2000/svg" viewBox="0 0 1920 141" width="1920" height="141">
	<title>bg_wave_top-svg</title>
	<style>
		.s0 { fill: #dee0e7 } 
		.s1 { fill: #000936 } 
	</style>
	<path id="Layer" class="s0" d="m1920 38.9v102.3h-1920v-92.3c57.2-42.9 202.7-56.6 302.7-44.9 154.2 18 220.5 99.9 396.5 97.5 180.2-2.4 260.4-92.4 480.9-97.5 220.5-5.1 297.6 122.9 427.1 124.4 129.5 1.5 172.7-86.6 312.8-89.5z"/>
	<path id="Layer" class="s1" d="m1920 70.8v70.4h-1920v-81c74.4-35.1 179.3-51.2 251.8-49 228.2 7 319.2 126.5 488.8 114.2 169.6-12.3 222.6-81.7 414.8-81.7 192.2 0 343.1 167.4 627.3 59.4 63.9-24.4 86.5-31.7 137.3-32.3z"/>
</svg>