<svg width="250" height="16" fill="none" xmlns="http://www.w3.org/2000/svg"><path d="M132.504 2.525l-2.49 2.49L125 0l-5.014 5.014-2.49-2.49-4.827 4.828H0v1.169h112.669l4.827 4.827 2.49-2.49L125 15.874l5.014-5.014 2.49 2.49 4.827-4.828H250v-1.17H137.331l-4.827-4.827zM117.496 11.7l-3.764-3.764 3.764-3.763 1.671 1.671-2.092 2.092 2.092 2.093-1.671 1.671zm2.49-5.026l1.262 1.262-1.262 1.263-1.263-1.263 1.263-1.262zm5.014 7.55l-4.184-4.184 2.092-2.092-2.092-2.092L125 1.67l4.184 4.185-2.092 2.092 2.092 2.092L125 14.225zm5.014-7.55l1.263 1.262-1.263 1.263-1.262-1.263 1.262-1.262zm2.49 5.026l-1.671-1.671 2.092-2.093-2.092-2.092 1.671-1.671 3.764 3.763-3.764 3.764z" fill="#D0B886"/></svg>