<?xml version="1.0" encoding="UTF-8"?>
<svg width="500px" height="500px" viewBox="0 0 500 500" version="1.1" xmlns="http://www.w3.org/2000/svg" xmlns:xlink="http://www.w3.org/1999/xlink">
    <title>favicon</title>
    <g id="ビジネスパートナー募集" stroke="none" stroke-width="1" fill="none" fill-rule="evenodd">
        <g id="favicon">
            <rect id="Rectangle-Copy" fill="#FFFFFF" x="0" y="0" width="500" height="500"></rect>
            <g id="CAINZ_logo_White-Copy" transform="translate(1.000000, 158.000000)" fill="#006634">
                <path d="M102.888889,71.9931741 C100.77381,71.9931741 98.6587302,72.8976109 96.7063492,74.7064846 C91.0119048,80.3139932 85.4801587,85.1979522 77.8333333,85.1979522 C63.3531746,85.1979522 54.7301587,73.2593857 54.7301587,53.5426621 C54.7301587,37.0819113 60.75,19.3549488 77.5079365,19.3549488 C85.3174603,19.3549488 89.547619,22.6109215 93.2896825,27.4948805 C95.2420635,30.0273038 97.8452381,31.2935154 100.448413,31.2935154 C105.492063,31.2935154 109.559524,26.5904437 109.559524,20.8020478 C109.234127,9.58703072 91.6626984,0 77.3452381,0 C49.3611111,0 30,21.887372 30,53.5426621 C30,92.2525597 53.4285714,106 75.3928571,106 C88.8968254,106 100.285714,100.573379 109.234127,89.9010239 C111.02381,87.7303754 112,85.1979522 112,82.3037543 C112,76.8771331 107.769841,71.9931741 102.888889,71.9931741" id="path4686"></path>
                <path d="M187.212766,76.2237762 C188.744681,80.2447552 193,91.7832168 193,91.7832168 C195.042553,96.8531469 199.297872,100 204.404255,100 C210.531915,100 217,95.2797203 217,87.5874126 C217,86.013986 216.659574,84.2657343 215.978723,82.1678322 C215.978723,82.1678322 186.702128,8.74125874 186.702128,8.74125874 C184.659574,3.4965035 179.553191,0 173.595745,0 C167.808511,0 162.702128,3.32167832 160.489362,8.74125874 C160.489362,8.74125874 130.021277,85.6643357 130.021277,85.6643357 C130.021277,85.6643357 129,90.2097902 129,90.2097902 C129,95.6293706 133.425532,100 138.87234,100 C142.957447,100 146.702128,97.3776224 148.404255,93.006993 C148.404255,93.006993 152.829787,81.6433566 154.87234,76.2237762 L162.361702,57.1678322 C164.574468,51.2237762 168.148936,41.7832168 171.382979,33.2167832 C174.106383,40.7342657 177.851064,50.8741259 180.234043,57.1678322 L187.212766,76.2237762 Z" id="path4688"></path>
                <path d="M248.916084,0 C243.041958,0 237,4.36300175 237,12.565445 L237,87.434555 C237,95.6369983 243.041958,100 249.083916,100 C254.79021,100 261,95.6369983 261,87.434555 L261,12.565445 C261,4.36300175 254.958042,0 248.916084,0" id="path4690"></path>
                <path d="M362.663866,0 C356.806723,0 352.5,4.54545455 352.5,10.4895105 L352.5,36.7132867 C352.5,36.7132867 352.672269,50.1748252 352.844538,61.5384615 C346.642857,50.5244755 336.651261,34.4405594 319.596639,7.51748252 C316.323529,2.44755245 311.844538,0 305.298319,0 C297.37395,0 291,5.94405594 291,13.2867133 L291,89.1608392 C291,96.1538462 296.340336,100 301.163866,100 C306.159664,100 311.327731,96.1538462 311.327731,89.1608392 L311.327731,59.4405594 C311.327731,59.4405594 310.983193,40.3846154 310.983193,37.5874126 C319.596639,53.3216783 333.55042,75.6993007 344.231092,92.8321678 C347.331933,97.3776224 351.983193,99.6503497 358.184874,99.6503497 C366.453782,99.6503497 373,92.8321678 373,84.0909091 L373,10.4895105 C372.827731,4.54545455 368.521008,0 362.663866,0" id="path4692"></path>
                <path d="M462.533789,80.1065719 C462.533789,80.1065719 429.770942,80.2841918 420.134811,80.2841918 C426.792502,72.1136767 465.687432,25.2220249 465.687432,25.2220249 C468.490671,21.8472469 470.067492,17.9396092 470.067492,13.8543517 C470.067492,5.86145648 464.285813,0 456.226503,0 L404.892203,0 C398.234512,0 394.730465,5.15097691 394.730465,9.94671403 C394.730465,14.5648313 398.234512,19.7158082 404.717001,19.7158082 C404.717001,19.7158082 427.668514,19.5381883 438.881467,19.5381883 C427.843716,33.2149201 394.38006,74.7779751 394.38006,74.7779751 C391.576822,78.330373 390,82.4156306 390,86.3232682 C390,94.3161634 395.606476,100 403.140179,100 L462.183385,100 C467.789861,100 471.994718,95.7371226 471.994718,90.053286 C472.169921,84.3694494 467.965063,80.1065719 462.533789,80.1065719" id="path4694"></path>
                <path d="M4.40408163,173.338991 L0,180.44633 C233.755102,158.334607 418.895918,177.090087 489.869388,184 L498,159.71659 C357.916327,147.871024 191.238776,147.673598 4.40408163,173.338991" id="path4696"></path>
            </g>
        </g>
    </g>
</svg>