<svg width="16" height="11" fill="none" xmlns="http://www.w3.org/2000/svg"><g clip-path="url(#clip0_409_3356)"><path d="M16 9.777c-.092.219-.15.46-.281.65-.258.384-.655.55-1.118.572H1.498c-.493 0-.905-.165-1.21-.553a1.348 1.348 0 01-.286-.853c-.001-2.728 0-5.457.001-8.185C.005.582.623.002 1.481 0h13.026c.61 0 1.075.248 1.35.79.068.134.096.288.143.432v8.555zM1.618.921c.047.05.073.079.1.106l5.24 5.096c.626.608 1.464.603 2.095-.009 1.74-1.69 3.478-3.382 5.216-5.074.034-.033.064-.07.11-.12H1.618zm.09 9.15h12.58l-3.943-3.935c-.23.23-.44.448-.66.656-.663.63-1.444.837-2.34.604a2.3 2.3 0 01-1.053-.626l-.638-.636-3.947 3.936zm3.18-4.545L.95 1.616v7.832l3.936-3.922zm10.169-3.919l-.035-.021-3.977 3.949 4.012 3.898V1.607z" fill="#fff"/></g><defs><clipPath id="clip0_409_3356"><path fill="#fff" d="M0 0h16v11H0z"/></clipPath></defs></svg>