<svg width="16" height="16" fill="none" xmlns="http://www.w3.org/2000/svg"><g clip-path="url(#clip0_409_3352)" fill="#fff"><path d="M0 4.429c.023-.185.036-.371.072-.553A2.31 2.31 0 01.689 2.69c.428-.438.842-.895 1.303-1.297.703-.61 1.466-.607 2.142.027.72.674 1.41 1.382 2.083 2.105.5.536.494 1.358.01 1.91-.36.409-.756.786-1.142 1.171-.075.074-.09.123-.04.222.386.782.933 1.447 1.523 2.079A10.506 10.506 0 008.59 10.61c.213.136.442.249.68.38.29-.293.566-.59.861-.866.215-.2.436-.41.69-.552a1.358 1.358 0 011.62.2 62.9 62.9 0 012.165 2.176c.521.554.525 1.392.021 1.965-.441.503-.914.98-1.395 1.446-.368.357-.829.546-1.338.611-.035.005-.069.02-.104.03h-.592c-.034-.01-.069-.021-.103-.028-.337-.061-.679-.1-1.009-.187-1.17-.307-2.239-.851-3.253-1.494A16.209 16.209 0 01.96 7.841a9.146 9.146 0 01-.85-2.379C.055 5.194.034 4.92 0 4.647V4.43zm.918.133c.017.18.031.362.052.543.009.082.03.163.047.244.247 1.101.708 2.115 1.297 3.07 1.565 2.539 3.648 4.524 6.337 5.848.828.407 1.682.736 2.614.817.575.05 1.08-.086 1.489-.514.338-.353.683-.698 1.024-1.048.05-.052.1-.107.143-.164.22-.285.22-.582-.022-.849-.244-.269-.507-.522-.763-.78-.4-.4-.799-.803-1.204-1.2-.293-.286-.604-.288-.911-.017a3.003 3.003 0 00-.135.13c-.357.356-.712.714-1.07 1.068-.25.245-.53.305-.827.157a9.855 9.855 0 01-.886-.487c-.973-.616-1.813-1.388-2.567-2.255-.517-.593-.988-1.219-1.323-1.936-.283-.606-.246-.772.241-1.241.348-.336.694-.674 1.025-1.025.271-.288.263-.576.007-.877a1.828 1.828 0 00-.094-.104c-.606-.607-1.21-1.214-1.819-1.82a1.057 1.057 0 00-.233-.179c-.267-.146-.539-.084-.814.187-.344.339-.677.69-1.027 1.023-.407.386-.6.85-.58 1.41zM8.875.032c.19.04.422.077.648.134a8.544 8.544 0 013.675 1.951c1.103.993 1.914 2.184 2.392 3.59.15.44.247.899.35 1.354.06.259-.091.47-.34.525a.44.44 0 01-.53-.319c-.07-.254-.114-.516-.184-.77-.47-1.716-1.435-3.097-2.851-4.16A7.457 7.457 0 008.927.966a1.258 1.258 0 01-.256-.062.45.45 0 01-.278-.502c.038-.208.23-.368.482-.369zm-.121 2.9c.412.063.842.18 1.248.37 1.664.775 2.683 2.062 3.051 3.862.055.267-.09.504-.338.564-.237.056-.469-.091-.547-.347-.103-.342-.17-.7-.317-1.022-.627-1.374-1.693-2.213-3.174-2.52-.269-.055-.414-.212-.417-.446-.003-.263.198-.465.494-.461z"/></g><defs><clipPath id="clip0_409_3352"><path fill="#fff" d="M0 0h16v16H0z"/></clipPath></defs></svg>