<svg width="30" height="30" fill="none" xmlns="http://www.w3.org/2000/svg"><g clip-path="url(#clip0_409_3359)"><path d="M30 15c0-8.284-6.716-15-15-15C6.716 0 0 6.716 0 15c0 7.487 5.485 13.692 12.656 14.818V19.336H8.848V15h3.808v-3.305c0-3.76 2.24-5.836 5.666-5.836 1.641 0 3.358.293 3.358.293v3.692h-1.892c-1.863 0-2.444 1.156-2.444 2.342V15h4.16l-.665 4.336h-3.495v10.482C24.514 28.692 30 22.488 30 15z" fill="#1877F2"/><path d="M20.839 19.336L21.504 15h-4.16v-2.814c0-1.186.581-2.342 2.444-2.342h1.892V6.152s-1.717-.293-3.358-.293c-3.426 0-5.666 2.077-5.666 5.836V15H8.848v4.336h3.808v10.482a15.116 15.116 0 004.688 0V19.336h3.495z" fill="#fff"/></g><defs><clipPath id="clip0_409_3359"><path fill="#fff" d="M0 0h30v30H0z"/></clipPath></defs></svg>