<svg width="14" height="14" fill="none" xmlns="http://www.w3.org/2000/svg"><g clip-path="url(#clip0_409_3330)"><path d="M1.13 8.668a2.955 2.955 0 01-.387-.03.92.92 0 01-.733-.878 28.957 28.957 0 010-1.525c.015-.508.412-.886.942-.893.157 0 .223-.047.276-.2.111-.322.25-.634.39-.943.05-.108.062-.173-.03-.27-.442-.461-.43-.98.024-1.434.304-.306.608-.614.916-.916.43-.42.966-.43 1.39-.016.104.103.172.103.301.042.307-.146.623-.274.942-.39.13-.048.186-.095.187-.245.005-.596.39-.969.99-.971.446-.002.892-.002 1.339 0 .585.003.977.377.982.958 0 .156.059.209.195.258.319.117.633.25.942.391.117.056.186.06.285-.037.428-.421.964-.419 1.388 0 .322.317.642.637.96.96.41.417.418.956.013 1.375-.097.1-.116.168-.053.302.15.313.276.637.4.962.041.107.076.167.212.171.643.016.998.387 1 1.028v1.296c-.007.6-.385.986-.979.99-.132 0-.188.04-.235.168-.122.332-.26.66-.407.981-.053.115-.044.178.043.268.425.44.42.973-.007 1.405a91.84 91.84 0 01-.931.931c-.437.432-.964.44-1.405.018-.086-.083-.148-.106-.268-.05a16.44 16.44 0 01-1 .415c-.103.04-.151.08-.154.204-.016.642-.386 1.001-1.025 1.005-.432 0-.863.003-1.295 0-.597-.006-.983-.384-.991-.976 0-.129-.033-.19-.165-.238-.334-.12-.658-.26-.98-.406-.112-.051-.177-.05-.27.04-.457.434-.974.423-1.42-.019-.312-.31-.623-.618-.931-.93-.417-.423-.422-.963-.006-1.39.095-.097.1-.168.044-.286-.168-.364-.322-.737-.489-1.125zm7.534 3.333c.378-.189.712-.342 1.034-.517.322-.176.451-.168.717.095.079.079.16.155.236.237.084.092.158.091.246 0 .309-.312.619-.623.931-.93.092-.09.079-.164-.009-.247-.106-.1-.21-.203-.31-.31-.168-.177-.193-.342-.066-.55.303-.5.528-1.044.67-1.612.06-.242.2-.34.455-.346a7.45 7.45 0 01.418 0c.12.005.18-.04.18-.167a96.284 96.284 0 010-1.317c0-.131-.067-.167-.183-.167a7.202 7.202 0 01-.44 0c-.242-.013-.372-.112-.432-.349a5.81 5.81 0 00-.67-1.612c-.125-.206-.097-.37.07-.55.1-.107.204-.21.311-.31.09-.084.094-.156.003-.245a75.697 75.697 0 01-.933-.927c-.09-.092-.161-.084-.244.005-.1.107-.204.21-.31.31-.18.168-.345.196-.55.07a5.741 5.741 0 00-1.61-.67c-.243-.06-.343-.198-.35-.452a7.68 7.68 0 010-.44c0-.114-.05-.16-.164-.16-.44 0-.878.004-1.317 0-.13 0-.17.06-.167.18a7.14 7.14 0 010 .439c-.01.217-.108.376-.327.429a5.725 5.725 0 00-1.652.68c-.183.112-.36.084-.518-.062-.117-.112-.223-.236-.346-.335-.045-.036-.167-.043-.203-.01a27.56 27.56 0 00-.958.965.214.214 0 000 .205c.095.11.197.216.304.315.187.195.215.359.078.583a5.67 5.67 0 00-.66 1.59c-.06.239-.19.338-.432.351a5.246 5.246 0 01-.46 0c-.11 0-.167.045-.167.162.003.439.003.878 0 1.317 0 .125.053.175.176.172.146-.005.292-.005.439 0 .24.007.38.108.438.34.14.575.37 1.125.68 1.63.116.19.082.374-.072.534-.102.106-.203.211-.31.31-.099.091-.098.168 0 .26.24.233.472.474.71.709.38.373.276.382.657.004.312-.308.408-.313.802-.1.308.168.63.31.984.483 0-.574-.005-1.088 0-1.601 0-.163-.038-.254-.195-.335-2.092-1.108-2.605-3.894-1.046-5.68.334-.386.713-.731 1.219-.88.39-.117.732.079.84.472.034.127.052.258.052.39 0 .704-.012 1.407-.014 2.11-.002.112.009.223.032.332.079.35.417.645.748.665.289.017.644-.237.759-.563a1.2 1.2 0 00.066-.387c.007-.615 0-1.229.003-1.84 0-.2-.015-.405.013-.602.067-.473.446-.704.9-.568.1.03.196.07.287.12 1.26.709 2.019 2.312 1.763 3.738-.22 1.22-.875 2.13-1.965 2.728-.062.033-.135.114-.136.175-.011.556-.007 1.112-.007 1.738l.002-.002zM5.366 4.382c-.053.033-.082.05-.108.069-.857.63-1.296 1.474-1.218 2.533.083 1.153.689 1.978 1.746 2.448.285.127.4.3.397.605-.01.954 0 1.908-.008 2.861-.003.218.07.276.276.268.375-.014.752-.013 1.127 0 .192.006.253-.056.252-.25-.009-.953.003-1.908-.008-2.862-.003-.31.102-.495.401-.622A2.85 2.85 0 009.86 5.99a2.801 2.801 0 00-1.194-1.594c-.017.02-.024.024-.024.03 0 .577.004 1.154 0 1.73.006.237-.005.473-.033.708-.129.847-.873 1.457-1.65 1.432-.802-.027-1.502-.675-1.562-1.478-.056-.754-.025-1.516-.032-2.274l.002-.162z" fill="#fff"/></g><defs><clipPath id="clip0_409_3330"><path fill="#fff" d="M0 0h14v14H0z"/></clipPath></defs></svg>