<svg width="30" height="30" fill="none" xmlns="http://www.w3.org/2000/svg"><g clip-path="url(#clip0_409_3318)"><path d="M15 30c8.284 0 15-6.716 15-15 0-8.284-6.716-15-15-15C6.716 0 0 6.716 0 15c0 8.284 6.716 15 15 15z" fill="#fff"/><path fill-rule="evenodd" clip-rule="evenodd" d="M15 3.889c-6.384 0-11.333 4.675-11.333 10.993 0 3.304 1.353 6.16 3.56 8.131a.906.906 0 01.304.647l.062 2.015a.908.908 0 001.274.803l2.248-.994a.9.9 0 01.605-.044c1.033.284 2.133.435 3.28.435 6.384 0 11.333-4.675 11.333-10.993 0-6.318-4.949-10.993-11.333-10.993z" fill="url(#paint0_radial_409_3318)"/><path fill-rule="evenodd" clip-rule="evenodd" d="M8.193 18.097l3.33-5.282a1.7 1.7 0 012.457-.453l2.649 1.986a.68.68 0 00.82-.002l3.575-2.713c.478-.362 1.1.209.78.715l-3.328 5.283a1.7 1.7 0 01-2.458.453l-2.65-1.987a.68.68 0 00-.82.002l-3.575 2.714c-.477.362-1.1-.21-.78-.716z" fill="#fff"/></g><defs><radialGradient id="paint0_radial_409_3318" cx="0" cy="0" r="1" gradientUnits="userSpaceOnUse" gradientTransform="translate(8.149 26.806) scale(24.8889)"><stop stop-color="#5697FB"/><stop offset=".61" stop-color="#8936F9"/><stop offset=".93" stop-color="#DD537E"/><stop offset="1" stop-color="#E06F62"/></radialGradient><clipPath id="clip0_409_3318"><path fill="#fff" d="M0 0h30v30H0z"/></clipPath></defs></svg>