<svg width="34" height="34" fill="none" xmlns="http://www.w3.org/2000/svg"><circle cx="17" cy="17" r="17" fill="#FF2B2B"/><path d="M7.286 12.64c.028-.224.044-.452.088-.673a2.81 2.81 0 01.75-1.444c.523-.534 1.026-1.09 1.588-1.58.856-.744 1.785-.74 2.609.032a53.283 53.283 0 012.536 2.564c.608.653.602 1.655.012 2.326-.438.498-.92.958-1.39 1.427-.092.09-.11.15-.05.27.471.953 1.137 1.763 1.856 2.532a12.794 12.794 0 002.461 2.074c.26.166.538.303.827.464.354-.359.69-.72 1.05-1.056.262-.245.53-.498.839-.672a1.653 1.653 0 011.974.244 76.713 76.713 0 012.636 2.65c.635.674.64 1.694.026 2.393a30.697 30.697 0 01-1.7 1.76c-.447.435-1.008.665-1.629.745-.042.006-.083.023-.126.036h-.721c-.042-.012-.084-.026-.126-.034-.41-.075-.826-.122-1.228-.227-1.426-.374-2.727-1.037-3.963-1.82-3.1-1.962-5.485-4.585-7.15-7.854-.469-.919-.835-1.881-1.036-2.898-.065-.327-.09-.662-.133-.993v-.266zm1.118.163c.02.22.038.44.063.66.01.1.036.2.058.298.3 1.341.862 2.576 1.578 3.738 1.907 3.093 4.444 5.51 7.718 7.122 1.008.496 2.049.897 3.184.996.7.06 1.314-.106 1.813-.627.411-.43.832-.85 1.247-1.276.061-.063.121-.13.175-.2.266-.346.267-.708-.027-1.033-.298-.328-.618-.636-.93-.95-.487-.488-.972-.978-1.465-1.46-.357-.35-.737-.352-1.11-.022a3.65 3.65 0 00-.165.157c-.435.434-.866.87-1.304 1.301-.304.3-.644.372-1.006.192a12.008 12.008 0 01-1.08-.593c-1.184-.75-2.207-1.691-3.126-2.747-.628-.722-1.203-1.484-1.61-2.357-.346-.739-.3-.94.293-1.512.424-.408.845-.82 1.248-1.248.33-.35.32-.701.01-1.069a2.252 2.252 0 00-.116-.125c-.738-.74-1.474-1.48-2.215-2.216a1.286 1.286 0 00-.284-.22c-.325-.177-.656-.1-.991.229-.42.413-.825.84-1.251 1.245a2.16 2.16 0 00-.707 1.717zm9.69-5.517c.232.048.514.093.789.163a10.404 10.404 0 014.476 2.376c1.343 1.21 2.33 2.66 2.913 4.37.183.537.3 1.096.427 1.65.072.316-.112.572-.414.64a.536.536 0 01-.645-.388c-.087-.31-.14-.63-.225-.94-.572-2.088-1.748-3.77-3.473-5.066a9.082 9.082 0 00-3.784-1.666c-.106-.02-.212-.04-.312-.078a.548.548 0 01-.34-.612c.047-.253.28-.448.588-.45zm-.147 3.53a5.64 5.64 0 011.52.452c2.027.943 3.267 2.511 3.715 4.702.067.325-.108.615-.412.687-.288.069-.57-.11-.665-.422-.127-.416-.208-.853-.387-1.245-.763-1.673-2.061-2.695-3.865-3.068-.327-.068-.504-.259-.507-.543-.005-.321.24-.567.6-.563z" fill="#fff"/></svg>