<svg width="34" height="34" fill="none" xmlns="http://www.w3.org/2000/svg"><circle cx="17" cy="17" r="17" fill="#0779F1"/><g clip-path="url(#clip0_409_4066)"><path d="M26.714 22.298c-.111.263-.183.553-.342.784-.313.46-.794.662-1.356.687H9.104c-.599 0-1.098-.198-1.47-.665a1.615 1.615 0 01-.346-1.027c-.002-3.286-.001-6.572.001-9.858.002-.994.753-1.693 1.794-1.695h15.818c.741 0 1.305.298 1.64.951.082.162.116.347.173.52v10.303zM9.25 11.633c.057.06.088.095.123.128l6.361 6.136c.76.733 1.779.727 2.544-.01 2.113-2.036 4.224-4.073 6.335-6.111.04-.04.077-.084.132-.143H9.25zm.108 11.018h15.278l-4.789-4.738c-.28.277-.535.54-.801.79-.805.758-1.754 1.008-2.84.728-.5-.129-.92-.4-1.28-.754l-.774-.766-4.794 4.74zm3.862-5.473l-4.78-4.71v9.433l4.78-4.723zm12.35-4.718l-.042-.026-4.83 4.756 4.872 4.694V12.46z" fill="#fff"/></g><defs><clipPath id="clip0_409_4066"><path fill="#fff" transform="translate(7.286 10.524)" d="M0 0h19.429v13.247H0z"/></clipPath></defs></svg>