<svg width="593" height="536" fill="none" xmlns="http://www.w3.org/2000/svg"><path d="M575.554 120.587l-27.696-36.392v97.735l27.696 14.06v-75.403zm-1.162-.253h-6.689l-19.085-19.907V86.472l25.774 33.862zm-25.774-14.476l15.42 16.202h-1.043l-14.392-13.807v-2.395h.015zm14.615 16.976h1.326v66.728l-1.326-.669v-66.059zm2.086-.536l-16.701-17.541v-3.214l18.533 19.327v69.987l-1.817-.923v-67.651l-.015.015zm-16.701-12.973l13.855 13.286v65.88l-13.855-7.022v-72.144zm19.293 81.934v-70.151h6.868v73.632l-6.868-3.481zm-244.84 44.113l-22.079 1.786v40.215h22.079v-42.001zm-.774 41.242h-20.545v-38.742l20.545-1.667v40.409zm31.584-43.25l-26.981 2.068v41.941h26.981v-44.009zm-.775 43.25H327.66v-40.468l25.446-1.949v42.417zm-30.05 5.104h-22.079v37.269l22.079 1.488v-38.757zm-.774 37.939l-20.545-1.384v-35.797h20.545v37.181zm31.584-37.359l-26.981-.595v38.728l26.981 1.547v-39.68zm-.775 38.876l-25.446-1.472v-37.211l25.446.566v38.117zm54.007-107.896v37.687l30.437.535s.03.015.045.015.03-.015.045-.015l43.89.759h.388v-29.608l-74.388-9.328-.432-.06.015.015zm40.509 37.627l-5.289-.089v-32.345l5.289.669v31.78-.015zm.774-31.69l24.464 3.064v29.057l-24.464-.431v-31.69zm-6.823 31.571l-3.576-.06v-32.702s-.029-.074-.044-.119l3.635.462v32.434l-.015-.015zm39.6.684l-7.539-.134v-28.967l7.539.952v28.164-.015zm-73.285-37.344l29.409 3.69s-.074.119-.074.193v32.703l-29.335-.506v-36.08zm167.636 20.517l-27.696-3.913v22.675l27.696.491v-19.253zm-17.133-1.651l2.905.416v19.461l-2.905-.045v-19.832zm-.775 19.817l-1.534-.029v-20.116l1.534.224v19.921zm4.44-19.297l8.567 1.206v18.315l-8.567-.149v-19.372zm-13.468-1.904l6.719.952v20.205l-6.719-.119v-21.038zm26.162 21.499l-3.367-.06v-18.225l3.367.476v17.809zM532.468 9.998V.774a.776.776 0 00-.76-.774.766.766 0 00-.76.774v8.882L330.342 81.532l-.507.179v68.454l-153.438-42.626-.239-.059-.268.104L1.535 173.048v-3.14a.775.775 0 00-.76-.773.765.765 0 00-.76.773v4.211H0v178.314l360.63 183.002 1.117.565v-.922l231.015-216.909.238-.223V117.805L532.468 9.998zM331.37 82.797l199.563-71.504v342.911l-39.406-4.062-.611-146.237v-.625l-16.015-3.303V52.639l4.633-1.533a.38.38 0 00.238-.49c-.059-.209-.283-.313-.491-.239l-4.395 1.458v-3.898a.394.394 0 00-.388-.386.394.394 0 00-.387.386v4.151l-89.39 29.652V77.5a.394.394 0 00-.388-.387.394.394 0 00-.387.387v4.493l-6.123 2.039a.382.382 0 00-.239.49c.06.164.209.268.358.268.045 0 .074 0 .119-.014l5.885-1.95v98.405l-.745-.149v-.253l-51.861 6.933V82.797h.03zm29.603 408.494L14.571 338.627l42.564-5.996 129.974 40.23v.417l21.543-5.446 63.69 17.363s.134.03.209.03c.343 0 .64-.223.745-.565v-.09l21.036-8.451 62.678 16.143v15.816c0 .208.179.387.387.387a.394.394 0 00.387-.387V213.263l-85.278 8.897-.343.03v161.354l-62.737-17.095V205.601l74.328-9.939v.506c0 .209.179.387.388.387a.394.394 0 00.387-.387v-.61l19.338-2.588v7.126c0 .208.179.387.388.387a.395.395 0 00.387-.387v-7.231l1.624-.223v7.9c0 .209.179.387.387.387a.394.394 0 00.388-.387v-8.004l2.532-.342.134 9.031c0 .208.179.372.388.372a.372.372 0 00.372-.387l-.134-9.12 58.983-7.886v226.803l12.38 3.377v1.354l109.25-64.14 38.825 4.002-168.798 135.674v.015zm-184.8-243.734h10.936v123.712L57.955 331.292l-.835-81.339 119.038-2.396h.015zm134.13-56.983l-.283-18.94 8.433-2.127a.381.381 0 00.283-.462.388.388 0 00-.462-.282l-8.641 2.172-99.477-24.713c-.208-.044-.417.075-.461.283a.38.38 0 00.283.461l99.282 24.653.284 19.03-2.518.342v-18.092l-96.87-23.805a.38.38 0 00-.461.283.38.38 0 00.283.461l29.245 7.186v30.307c0 .208.179.387.388.387a.395.395 0 00.387-.387v-30.129l1.952.477v30.291c0 .209.178.387.387.387a.393.393 0 00.387-.387v-30.098l3.904.952s-.045.075-.045.119v29.935c0 .208.179.387.387.387a.395.395 0 00.388-.387v-29.86l30.869 7.587s-.104.149-.104.238v28.016l-69.531 9.299-.67.089v162.187l-19.249 4.865V245.995h-11.68v-136.7l152.872 42.462v36.199l-19.532 2.618h-.03zm-31.45 4.211v-27.912s-.03-.059-.03-.089l1.579.387v27.405l-1.549.209zm2.309-27.436l2.592.64v26.141l-2.592.342v-27.123zm3.352.819l19.338 4.746v18.508l-19.338 2.589v-25.843zm20.113 5.415h1.624v17.512l-1.624.223v-17.735zm-249.026 76.4l.834 81.204-43.13 6.071v-86.07l42.296-1.205zm217.427 133.873l-.09-.045V222.889l20.992-2.187v154.763l-20.902 8.391zm83.997 7.618l-62.32-16.054V220.613l62.32-6.502v177.363zm12.678-207.297l11.993-1.607v231.429l-11.993-3.273V184.177zm13.528 228.9V182.629l10.801 2.232v221.878l-10.801 6.338zM394.42 184.95l94.977 19.595.611 145.865-95.588 56.12V184.935v.015zm79.721-102.986l-56.45 17.124-4.276-2.5 60.741-18.582v3.943l-.015.015zm-61.307 15.19l4.41 2.574v88.376l-4.41-.907V97.154zm5.185 91.099V99.788l56.122-17.02v117.06l-56.122-11.575zm56.122-118.802l-69.01 21.454-19.695-8.57 88.705-29.413v16.544-.015zm-69.412 22.11v93.642c0 .208.179.387.388.387a.395.395 0 00.387-.387V91.575l68.652-21.335v6.963l-61.784 18.895-.268.09v90.83l-27.309-5.639V82.856l19.964 8.704h-.03zm-229.286 17.853v136.641l-118.308 2.38-45.35 1.295v87.691l-10.236-4.508V174.684l173.894-65.285v.015zM1.535 334.55l358.678 158.08v40.87L1.535 351.496V334.55zm589.93-17.274L361.747 532.98v-40.35l170.438-136.998 1.445-1.175-1.162-.119v-341.2l58.997 105.069v199.084-.015zM96.422 220.39a.394.394 0 00.388-.387v-53.412l7.032.833v51.359c0 .208.178.387.387.387a.394.394 0 00.387-.387v-51.434l39.407-13.539v1.845l-12.768 4.285-.403-.193v.327l-24.567 8.242v50.303c0 .209.179.387.387.387a.394.394 0 00.388-.387v-49.455l.968.402v48.815c0 .209.179.387.387.387a.394.394 0 00.388-.387v-48.8l18.965-6.085v52.222c0 .208.179.387.388.387a.395.395 0 00.387-.387v-54.067l2.339-.789v54.44c0 .208.179.386.388.386a.394.394 0 00.387-.386v-54.365l1.46.684v53.383c0 .208.179.387.387.387a.395.395 0 00.388-.387v-53.353l10.175-3.467v55.347c0 .208.179.387.388.387a.395.395 0 00.387-.387v-64.586a.395.395 0 00-.387-.387.395.395 0 00-.388.387v4.047l-39.838 13.688-7.717-.923h-.045c-.06 0-.09.045-.134.06-.03.015-.075.015-.104.045-.045.044-.06.089-.09.148-.015.03-.044.06-.06.09v53.903c0 .208.18.387.388.387h-.045zm31.317-57.668l-19.324 6.204-.655-.267 19.979-6.71v.773zm5.736-1.726l-1.222-.565 11.755-3.943v.923l-10.533 3.6v-.015zM28.605 230.7a.394.394 0 00.387-.386v-39.398l4.991.685v36.749c0 .208.179.387.388.387a.395.395 0 00.387-.387v-36.809l32.15-10.325v1.77l-12.99 3.869-.403-.164v.283l-17.223 5.133-.268.074v35.871c0 .208.179.387.388.387a.395.395 0 00.387-.387v-35.038l.626.223v34.637c0 .208.178.386.387.386a.394.394 0 00.387-.386v-34.607l13.29-3.868v36.6c0 .208.179.387.387.387a.395.395 0 00.388-.387v-37.835l1.28-.387v37.939c0 .209.18.387.388.387a.394.394 0 00.387-.387v-37.879l.73.297v37.389c0 .208.18.387.388.387a.395.395 0 00.387-.387v-37.359l11.13-3.303v39.055c0 .208.178.387.387.387a.395.395 0 00.387-.387v-47.312a.394.394 0 00-.387-.387.394.394 0 00-.388.387v3.808l-32.568 10.46-5.676-.774h-.06c-.044 0-.074.03-.119.045-.044.015-.089.015-.134.059-.044.03-.06.089-.074.134-.015.03-.045.06-.06.089v39.904c0 .208.179.386.388.386l-.045-.015zm22.854-42.09l-13.662 3.988-.179-.06 13.841-4.121v.208-.015zm3.948-1.131l-.357-.148 11.859-3.526v.282l-11.487 3.407-.015-.015zm120.766 69.705H67.966v53.933l108.207 15.086v-69.019zm-100.638.758h2.503v50.021l97.361 11.352v3.184l-99.864-13.138v-51.419zm51.95 55.02v-55.02h2.265v55.288l-2.265-.268zm-.774-.09l-4.276-.49v-54.44h4.276v54.93zm-5.036-.58l-40.42-4.716v-49.634h40.42v54.35zm-41.194-5.043h-1.683v-49.307h1.683v49.307zm94.918 11.307l-44.889-5.237v-55.362h44.889v60.614-.015zM74.76 257.942v51.434l-6.034.952v-52.386h6.034zm-3.814 52.818l4.201-.655 100.237 13.182v2.038l-104.453-14.55.015-.015z" fill="#fff" fill-opacity=".2"/></svg>