<svg width="509" height="492" viewBox="0 0 509 492" fill="none" xmlns="http://www.w3.org/2000/svg">
<g clip-path="url(#clip0_409_3485)">
<path d="M262 12L-127 492" stroke="url(#paint0_linear_409_3485)" stroke-miterlimit="10"/>
<path d="M478 58L-115 220" stroke="url(#paint1_linear_409_3485)" stroke-miterlimit="10"/>
<path d="M102.711 105.261C103.333 104.476 104.474 104.343 105.259 104.965C106.044 105.586 106.177 106.727 105.555 107.497C104.933 108.282 103.792 108.415 103.022 107.793C102.237 107.171 102.104 106.031 102.726 105.246L102.711 105.261Z" fill="#E5CCB0"/>
<path d="M60.476 177.687C61.0982 176.902 62.2389 176.769 63.0092 177.391C63.7944 178.013 63.9277 179.153 63.3055 179.938C62.6833 180.722 61.5426 180.856 60.7574 180.234C59.9723 179.612 59.839 178.472 60.4612 177.702L60.476 177.687Z" fill="#E5CCB0"/>
<path d="M80.2084 192.184C80.8306 191.4 81.9712 191.266 82.7416 191.888C83.5267 192.51 83.6601 193.65 83.0379 194.435C82.4157 195.22 81.275 195.353 80.5047 194.731C79.7195 194.109 79.5862 192.969 80.2084 192.184Z" fill="#E5CCB0"/>
<path d="M50.7284 121.253C51.3506 120.468 52.4912 120.335 53.2616 120.957C54.0467 121.579 54.1801 122.719 53.5579 123.504C52.9357 124.289 51.795 124.422 51.0098 123.8C50.2247 123.178 50.0914 122.038 50.7135 121.253L50.7284 121.253Z" fill="#E5CCB0"/>
<path d="M211.535 126.036C212.157 125.252 213.298 125.118 214.068 125.74C214.854 126.362 214.987 127.502 214.365 128.287C213.743 129.072 212.602 129.205 211.832 128.583C211.046 127.961 210.913 126.821 211.535 126.036Z" fill="#E5CCB0"/>
<path d="M96.1484 174.503C96.7705 173.718 97.9112 173.585 98.6815 174.207C99.4667 174.829 99.6 175.969 98.9778 176.754C98.3557 177.539 97.2149 177.672 96.4446 177.05C95.6595 176.428 95.5262 175.288 96.1484 174.503Z" fill="#E5CCB0"/>
<path d="M157.745 272.888C158.056 272.503 158.619 272.429 159.019 272.74C159.404 273.051 159.479 273.614 159.167 274.014C158.856 274.399 158.293 274.473 157.893 274.162C157.508 273.851 157.434 273.288 157.745 272.888Z" fill="#E5CCB0"/>
<path d="M83.8823 291.088C84.1934 290.703 84.7563 290.629 85.1563 290.94C85.5414 291.251 85.6155 291.813 85.3044 292.213C84.9933 292.598 84.4304 292.672 84.0304 292.361C83.6453 292.05 83.5712 291.487 83.8823 291.088Z" fill="#E5CCB0"/>
<path d="M200.914 139.171C201.536 138.386 202.676 138.253 203.447 138.875C204.232 139.497 204.365 140.637 203.743 141.422C203.121 142.207 201.98 142.34 201.21 141.718C200.425 141.096 200.291 139.956 200.914 139.186L200.914 139.171Z" fill="#E5CCB0"/>
<path d="M73.6902 190.837C74.0013 190.452 74.5642 190.378 74.9642 190.689C75.3493 191 75.4234 191.562 75.1123 191.962C74.8012 192.347 74.2383 192.421 73.8383 192.11C73.4532 191.799 73.3791 191.236 73.6902 190.837Z" fill="#E5CCB0"/>
<path d="M87.8821 206.118C88.1931 205.733 88.7561 205.659 89.1561 205.97C89.5413 206.281 89.6153 206.844 89.3042 207.244C88.9931 207.629 88.4302 207.703 88.0302 207.392C87.645 207.081 87.571 206.518 87.8821 206.118Z" fill="#E5CCB0"/>
<path d="M155.36 177.183C155.671 176.798 156.234 176.724 156.634 177.035C157.019 177.346 157.093 177.909 156.782 178.309C156.471 178.694 155.908 178.768 155.508 178.457C155.123 178.146 155.049 177.583 155.36 177.183Z" fill="#E5CCB0"/>
<path d="M215.787 208.162C216.098 207.777 216.661 207.703 217.061 208.014C217.446 208.325 217.52 208.888 217.209 209.288C216.898 209.673 216.335 209.747 215.935 209.436C215.55 209.125 215.476 208.562 215.787 208.162Z" fill="#E5CCB0"/>
<path d="M347.129 167.262C347.44 166.877 348.003 166.803 348.403 167.114C348.788 167.425 348.862 167.988 348.551 168.387C348.24 168.772 347.677 168.846 347.277 168.535C346.892 168.224 346.818 167.662 347.129 167.262Z" fill="#E5CCB0"/>
<path d="M282.88 191.548C283.191 191.163 283.754 191.089 284.154 191.4C284.539 191.71 284.613 192.273 284.302 192.673C283.991 193.058 283.428 193.132 283.028 192.821C282.643 192.51 282.569 191.947 282.88 191.548Z" fill="#E5CCB0"/>
<path d="M108.192 144.709C108.814 143.925 109.955 143.791 110.725 144.413C111.511 145.035 111.644 146.175 111.022 146.945C110.4 147.73 109.259 147.864 108.474 147.242C107.689 146.62 107.555 145.479 108.177 144.709L108.192 144.709Z" fill="#E5CCB0"/>
<path d="M110.296 90.6594C110.918 89.8746 112.059 89.7413 112.829 90.3633C113.614 90.9852 113.747 92.1254 113.125 92.9103C112.503 93.6951 111.362 93.8284 110.577 93.2064C109.792 92.5845 109.659 91.4443 110.281 90.6594L110.296 90.6594Z" fill="#E5CCB0"/>
<path d="M120.206 103.321C120.518 102.936 121.08 102.862 121.48 103.172C121.866 103.483 121.94 104.046 121.629 104.446C121.317 104.831 120.755 104.905 120.355 104.594C119.955 104.283 119.895 103.72 120.206 103.321Z" fill="#E5CCB0"/>
<path d="M118.058 116.233C118.681 115.448 119.821 115.315 120.592 115.937C121.377 116.559 121.51 117.699 120.888 118.469C120.266 119.254 119.125 119.387 118.355 118.766C117.569 118.144 117.436 117.003 118.058 116.233Z" fill="#E5CCB0"/>
<path d="M91.0523 63.6053C91.6745 62.8204 92.8152 62.6871 93.5855 63.3091C94.3707 63.931 94.504 65.0712 93.8818 65.8561C93.2596 66.6409 92.1189 66.7742 91.3486 66.1522C90.5634 65.5303 90.4301 64.3901 91.0523 63.6053Z" fill="#E5CCB0"/>
<path d="M147.153 144.561C147.775 143.777 148.916 143.643 149.686 144.265C150.472 144.887 150.605 146.027 149.983 146.797C149.361 147.582 148.22 147.716 147.435 147.094C146.65 146.472 146.516 145.331 147.138 144.547L147.153 144.561Z" fill="#E5CCB0"/>
<path d="M29.0701 135.069C30.9367 132.729 34.3439 132.33 36.6846 134.195C39.0252 136.061 39.4252 139.467 37.5586 141.822C35.692 144.161 32.2848 144.561 29.9293 142.695C27.5887 140.83 27.1887 137.424 29.0553 135.069L29.0701 135.069Z" fill="#E5CCB0"/>
<path d="M85.3785 75.3924C87.245 73.0527 90.6523 72.6529 92.9929 74.5187C95.3335 76.3846 95.7335 79.7904 93.8669 82.1449C92.0004 84.4846 88.5931 84.8844 86.2377 83.0186C83.8971 81.1528 83.4971 77.7469 85.3637 75.3924L85.3785 75.3924Z" fill="#E5CCB0"/>
<path d="M147.242 121.431C147.864 120.646 149.005 120.513 149.775 121.135C150.56 121.757 150.694 122.897 150.072 123.682C149.449 124.467 148.309 124.6 147.538 123.978C146.753 123.356 146.62 122.216 147.242 121.431Z" fill="#E5CCB0"/>
<path d="M135.213 183.359C135.835 182.574 136.976 182.441 137.746 183.063C138.531 183.684 138.665 184.825 138.043 185.61C137.42 186.394 136.28 186.528 135.509 185.906C134.724 185.284 134.591 184.143 135.213 183.359Z" fill="#E5CCB0"/>
<path d="M114.266 169.158C115.51 167.588 117.777 167.336 119.347 168.565C120.917 169.809 121.169 172.075 119.94 173.645C118.695 175.214 116.429 175.466 114.859 174.222C113.288 172.978 113.036 170.713 114.281 169.143L114.266 169.158Z" fill="#E5CCB0"/>
<path d="M87.1414 168.565C87.7636 167.78 88.9042 167.647 89.6894 168.269C90.4745 168.891 90.6079 170.031 89.9857 170.816C89.3635 171.601 88.2228 171.734 87.4525 171.112C86.6673 170.49 86.534 169.35 87.1562 168.565L87.1414 168.565Z" fill="#E5CCB0"/>
<path d="M164.693 102.447C165.315 101.662 166.456 101.529 167.226 102.151C168.011 102.773 168.145 103.913 167.523 104.698C166.9 105.483 165.76 105.616 164.989 104.994C164.219 104.372 164.071 103.232 164.693 102.462L164.693 102.447Z" fill="#E5CCB0"/>
<path d="M88.9635 100.655C89.5857 99.8704 90.7264 99.7371 91.4967 100.359C92.2819 100.981 92.4152 102.121 91.793 102.891C91.1708 103.676 90.0301 103.809 89.2598 103.187C88.4747 102.565 88.3413 101.425 88.9635 100.64L88.9635 100.655Z" fill="#E5CCB0"/>
<path d="M13.1006 165.1C13.7228 164.315 14.8634 164.182 15.6338 164.804C16.4189 165.426 16.5522 166.566 15.9301 167.336C15.3079 168.121 14.1671 168.254 13.3968 167.632C12.6117 167.01 12.4784 165.87 13.1006 165.1Z" fill="#E5CCB0"/>
<path d="M63.0685 51.4031C63.6906 50.6183 64.8314 50.485 65.6017 51.1069C66.3868 51.7289 66.5201 52.8691 65.8979 53.6539C65.2758 54.4388 64.1351 54.572 63.3648 53.9501C62.5796 53.3281 62.4463 52.1879 63.0685 51.4179L63.0685 51.4031Z" fill="#E5CCB0"/>
<path d="M29.1293 95.739C29.4404 95.354 30.0034 95.2799 30.4034 95.5909C30.7885 95.9019 30.8626 96.4646 30.5515 96.8644C30.2404 97.2494 29.6775 97.3235 29.2775 97.0125C28.8923 96.7015 28.8182 96.1388 29.1293 95.739Z" fill="#E5CCB0"/>
<path d="M17.53 128.228C17.8411 127.843 18.404 127.769 18.804 128.08C19.1892 128.391 19.2632 128.953 18.9521 129.353C18.641 129.738 18.0781 129.812 17.6781 129.501C17.293 129.19 17.2189 128.628 17.53 128.228Z" fill="#E5CCB0"/>
<path d="M8.89338 82.1005C9.51557 81.3157 10.6563 81.1824 11.4414 81.8043C12.2266 82.4263 12.3599 83.5665 11.7377 84.3366C11.1155 85.1214 9.9748 85.2546 9.20447 84.6327C8.41932 84.0108 8.28597 82.8705 8.90817 82.0857L8.89338 82.1005Z" fill="#E5CCB0"/>
<path d="M92.5189 248.218C93.1411 247.433 94.2817 247.3 95.0521 247.922C95.8372 248.544 95.9705 249.684 95.3484 250.469C94.7262 251.254 93.5855 251.387 92.8152 250.765C92.03 250.143 91.8967 249.003 92.5189 248.233L92.5189 248.218Z" fill="#E5CCB0"/>
<path d="M28.5072 213.656C29.1294 212.871 30.27 212.738 31.0404 213.36C31.8107 213.982 31.9589 215.122 31.3367 215.907C30.7145 216.692 29.5738 216.825 28.7886 216.203C28.0035 215.581 27.8702 214.441 28.4923 213.656L28.5072 213.656Z" fill="#E5CCB0"/>
<path d="M50.2543 139.541C50.5654 139.156 51.1283 139.082 51.5283 139.393C51.9135 139.704 51.9875 140.267 51.6764 140.667C51.3653 141.052 50.8024 141.126 50.4024 140.815C50.0173 140.504 49.9432 139.941 50.2543 139.541Z" fill="#E5CCB0"/>
<path d="M66.8461 79.4353C67.1572 79.0503 67.7201 78.9762 68.1201 79.2872C68.5052 79.5982 68.5793 80.1609 68.2682 80.5607C67.9571 80.9457 67.3942 81.0198 66.9942 80.7088C66.609 80.3978 66.535 79.8351 66.8461 79.4353Z" fill="#E5CCB0"/>
<path d="M237.638 159.799C238.63 159.681 239.534 160.391 239.638 161.384C239.756 162.376 239.045 163.279 238.052 163.383C237.06 163.501 236.156 162.79 236.053 161.798C235.934 160.806 236.645 159.903 237.638 159.799Z" fill="#E5CCB0"/>
<path d="M150.931 169.543C151.923 169.424 152.827 170.135 152.931 171.127C153.049 172.119 152.338 173.023 151.346 173.126C150.353 173.245 149.449 172.534 149.346 171.542C149.227 170.55 149.938 169.646 150.931 169.543Z" fill="#E5CCB0"/>
<path d="M171.804 110.103C172.796 109.984 173.7 110.695 173.804 111.687C173.922 112.679 173.211 113.568 172.219 113.686C171.226 113.805 170.322 113.094 170.219 112.102C170.1 111.11 170.811 110.206 171.804 110.103Z" fill="#E5CCB0"/>
<path d="M37.203 75.4963C38.1956 75.3779 39.0844 76.0886 39.2029 77.0808C39.3214 78.0729 38.6104 78.9762 37.6178 79.0799C36.6253 79.1983 35.7216 78.4875 35.6179 77.4954C35.4994 76.5032 36.2105 75.6 37.203 75.4963Z" fill="#E5CCB0"/>
<path d="M224.424 169.987C225.416 169.868 226.32 170.579 226.423 171.571C226.542 172.563 225.831 173.466 224.838 173.57C223.846 173.689 222.942 172.978 222.838 171.986C222.72 170.994 223.431 170.09 224.424 169.987Z" fill="#E5CCB0"/>
<path d="M214.38 152.839C214.868 152.78 215.328 153.135 215.387 153.638C215.446 154.127 215.091 154.586 214.587 154.645C214.098 154.705 213.639 154.349 213.58 153.846C213.52 153.357 213.876 152.898 214.38 152.839Z" fill="#E5CCB0"/>
<path d="M214.128 98.7744C214.617 98.7151 215.076 99.0705 215.135 99.574C215.194 100.063 214.839 100.522 214.335 100.581C213.846 100.64 213.387 100.285 213.328 99.7813C213.268 99.2926 213.624 98.8336 214.128 98.7744Z" fill="#E5CCB0"/>
<path d="M64.5351 101.544C65.5276 101.425 66.4312 102.136 66.5349 103.128C66.6534 104.12 65.9424 105.024 64.9499 105.127C63.9573 105.246 63.0685 104.535 62.9499 103.543C62.8314 102.551 63.5425 101.647 64.5351 101.544Z" fill="#E5CCB0"/>
<path d="M145.716 204.919C146.709 204.801 147.612 205.511 147.716 206.504C147.835 207.496 147.124 208.399 146.131 208.503C145.138 208.621 144.235 207.91 144.131 206.918C144.013 205.926 144.724 205.023 145.716 204.919Z" fill="#E5CCB0"/>
<path d="M64.0758 116.085C65.0684 115.967 65.972 116.677 66.0757 117.67C66.1942 118.662 65.4831 119.55 64.4906 119.669C63.4981 119.787 62.5944 119.076 62.4907 118.084C62.3722 117.092 63.0833 116.189 64.0758 116.085Z" fill="#E5CCB0"/>
<path d="M137.583 237.26C138.576 237.142 139.48 237.852 139.583 238.844C139.702 239.837 138.991 240.74 137.998 240.844C137.006 240.962 136.102 240.251 135.998 239.259C135.88 238.267 136.591 237.364 137.583 237.26Z" fill="#E5CCB0"/>
<path d="M205.21 203.749C206.202 203.631 207.106 204.342 207.21 205.334C207.328 206.326 206.617 207.229 205.624 207.333C204.632 207.451 203.728 206.74 203.625 205.748C203.506 204.756 204.217 203.853 205.21 203.749Z" fill="#E5CCB0"/>
<path d="M304.39 190.822C305.382 190.704 306.286 191.414 306.39 192.406C306.508 193.399 305.797 194.302 304.805 194.406C303.812 194.524 302.909 193.813 302.805 192.821C302.686 191.829 303.397 190.926 304.39 190.822Z" fill="#E5CCB0"/>
<path d="M16.3152 183.832C17.3077 183.714 18.2114 184.425 18.3151 185.417C18.4336 186.409 17.7225 187.312 16.73 187.416C15.7374 187.534 14.8338 186.823 14.7301 185.831C14.6116 184.839 15.3226 183.936 16.3152 183.832Z" fill="#E5CCB0"/>
<path d="M69.5422 149.478C70.5348 149.359 71.4384 150.07 71.5421 151.062C71.6606 152.054 70.9496 152.958 69.957 153.061C68.9645 153.18 68.0756 152.469 67.9571 151.477C67.8386 150.485 68.5497 149.596 69.5422 149.478Z" fill="#E5CCB0"/>
<path d="M185.137 132.951C187.122 132.729 188.914 134.151 189.136 136.135C189.359 138.119 187.936 139.911 185.951 140.133C183.966 140.356 182.174 138.934 181.952 136.95C181.729 134.965 183.151 133.174 185.137 132.951Z" fill="#E5CCB0"/>
<path d="M188.203 171.231C188.692 171.172 189.151 171.527 189.21 172.031C189.27 172.519 188.914 172.978 188.41 173.037C187.922 173.097 187.462 172.741 187.403 172.238C187.344 171.749 187.699 171.29 188.203 171.231Z" fill="#E5CCB0"/>
<path d="M85.9858 133.174C86.9784 133.055 87.882 133.766 87.9857 134.758C88.1042 135.75 87.3932 136.653 86.4006 136.757C85.4081 136.876 84.5045 136.165 84.4008 135.173C84.2822 134.18 84.9933 133.277 85.9858 133.174Z" fill="#E5CCB0"/>
<path d="M54.2392 250.306C55.2318 250.187 56.1354 250.898 56.2391 251.89C56.3577 252.883 55.6466 253.786 54.654 253.889C53.6615 254.008 52.7578 253.297 52.6541 252.305C52.5356 251.313 53.2467 250.41 54.2392 250.306Z" fill="#E5CCB0"/>
<path d="M34.0329 187.431C35.0254 187.312 35.929 188.023 36.0327 189.015C36.1512 190.007 35.4402 190.911 34.4477 191.014C33.4551 191.133 32.5514 190.422 32.4477 189.43C32.3292 188.438 33.0403 187.535 34.0329 187.431Z" fill="#E5CCB0"/>
<path d="M137.702 146.175C138.694 146.057 139.583 146.768 139.702 147.76C139.82 148.752 139.109 149.655 138.117 149.759C137.124 149.878 136.22 149.167 136.117 148.175C135.998 147.182 136.709 146.279 137.702 146.175Z" fill="#E5CCB0"/>
<path d="M93.8965 96.0939C94.8891 95.9755 95.7928 96.6863 95.8965 97.6784C96.015 98.6706 95.3039 99.5739 94.3113 99.6775C93.3188 99.796 92.4152 99.0852 92.3115 98.093C92.193 97.1009 92.904 96.1976 93.8965 96.0939Z" fill="#E5CCB0"/>
<path d="M80.4306 114.234C80.9194 114.175 81.3787 114.53 81.438 115.034C81.4972 115.523 81.1417 115.982 80.638 116.041C80.1491 116.1 79.6899 115.745 79.6306 115.241C79.5714 114.753 79.9269 114.294 80.4306 114.234Z" fill="#E5CCB0"/>
<path d="M247 112.813C247.993 112.694 248.882 113.405 249 114.397C249.119 115.389 248.408 116.293 247.415 116.396C246.422 116.515 245.519 115.804 245.415 114.812C245.297 113.82 246.008 112.916 247 112.813Z" fill="#E5CCB0"/>
<path d="M37.7808 53.2097C38.7733 53.0912 39.677 53.802 39.7807 54.7941C39.8992 55.7863 39.1881 56.6896 38.1956 56.7933C37.203 56.9117 36.2994 56.2009 36.1957 55.2088C36.0772 54.2166 36.7883 53.3133 37.7808 53.2097Z" fill="#E5CCB0"/>
<path d="M102.711 105.261C103.333 104.476 104.474 104.343 105.259 104.965C106.044 105.586 106.177 106.727 105.555 107.497C104.933 108.282 103.792 108.415 103.022 107.793C102.237 107.171 102.104 106.031 102.726 105.246L102.711 105.261Z" fill="url(#paint2_linear_409_3485)"/>
<path d="M60.476 177.687C61.0982 176.902 62.2389 176.769 63.0092 177.391C63.7944 178.013 63.9277 179.153 63.3055 179.938C62.6833 180.722 61.5426 180.856 60.7574 180.234C59.9723 179.612 59.839 178.472 60.4612 177.702L60.476 177.687Z" fill="url(#paint3_linear_409_3485)"/>
<path d="M80.2084 192.184C80.8306 191.4 81.9712 191.266 82.7416 191.888C83.5267 192.51 83.6601 193.65 83.0379 194.435C82.4157 195.22 81.275 195.353 80.5047 194.731C79.7195 194.109 79.5862 192.969 80.2084 192.184Z" fill="url(#paint4_linear_409_3485)"/>
<path d="M50.7284 121.253C51.3506 120.468 52.4912 120.335 53.2616 120.957C54.0467 121.579 54.1801 122.719 53.5579 123.504C52.9357 124.289 51.795 124.422 51.0098 123.8C50.2247 123.178 50.0914 122.038 50.7135 121.253L50.7284 121.253Z" fill="url(#paint5_linear_409_3485)"/>
<path d="M211.535 126.036C212.157 125.252 213.298 125.118 214.068 125.74C214.854 126.362 214.987 127.502 214.365 128.287C213.743 129.072 212.602 129.205 211.832 128.583C211.046 127.961 210.913 126.821 211.535 126.036Z" fill="url(#paint6_linear_409_3485)"/>
<path d="M96.1484 174.503C96.7705 173.718 97.9112 173.585 98.6815 174.207C99.4667 174.829 99.6 175.969 98.9778 176.754C98.3557 177.539 97.2149 177.672 96.4446 177.05C95.6595 176.428 95.5262 175.288 96.1484 174.503Z" fill="url(#paint7_linear_409_3485)"/>
<path d="M157.745 272.888C158.056 272.503 158.619 272.429 159.019 272.74C159.404 273.051 159.479 273.614 159.167 274.014C158.856 274.399 158.293 274.473 157.893 274.162C157.508 273.851 157.434 273.288 157.745 272.888Z" fill="url(#paint8_linear_409_3485)"/>
<path d="M83.8823 291.088C84.1934 290.703 84.7563 290.629 85.1563 290.94C85.5414 291.251 85.6155 291.813 85.3044 292.213C84.9933 292.598 84.4304 292.672 84.0304 292.361C83.6453 292.05 83.5712 291.487 83.8823 291.088Z" fill="url(#paint9_linear_409_3485)"/>
<path d="M200.914 139.171C201.536 138.386 202.676 138.253 203.447 138.875C204.232 139.497 204.365 140.637 203.743 141.422C203.121 142.207 201.98 142.34 201.21 141.718C200.425 141.096 200.291 139.956 200.914 139.186L200.914 139.171Z" fill="url(#paint10_linear_409_3485)"/>
<path d="M73.6902 190.837C74.0013 190.452 74.5642 190.378 74.9642 190.689C75.3493 191 75.4234 191.562 75.1123 191.962C74.8012 192.347 74.2383 192.421 73.8383 192.11C73.4532 191.799 73.3791 191.236 73.6902 190.837Z" fill="url(#paint11_linear_409_3485)"/>
<path d="M87.8821 206.118C88.1931 205.733 88.7561 205.659 89.1561 205.97C89.5413 206.281 89.6153 206.844 89.3042 207.244C88.9931 207.629 88.4302 207.703 88.0302 207.392C87.645 207.081 87.571 206.518 87.8821 206.118Z" fill="url(#paint12_linear_409_3485)"/>
<path d="M155.36 177.183C155.671 176.798 156.234 176.724 156.634 177.035C157.019 177.346 157.093 177.909 156.782 178.309C156.471 178.694 155.908 178.768 155.508 178.457C155.123 178.146 155.049 177.583 155.36 177.183Z" fill="url(#paint13_linear_409_3485)"/>
<path d="M215.787 208.162C216.098 207.777 216.661 207.703 217.061 208.014C217.446 208.325 217.52 208.888 217.209 209.288C216.898 209.673 216.335 209.747 215.935 209.436C215.55 209.125 215.476 208.562 215.787 208.162Z" fill="url(#paint14_linear_409_3485)"/>
<path d="M347.129 167.262C347.44 166.877 348.003 166.803 348.403 167.114C348.788 167.425 348.862 167.988 348.551 168.387C348.24 168.772 347.677 168.846 347.277 168.535C346.892 168.224 346.818 167.662 347.129 167.262Z" fill="url(#paint15_linear_409_3485)"/>
<path d="M282.88 191.548C283.191 191.163 283.754 191.089 284.154 191.4C284.539 191.71 284.613 192.273 284.302 192.673C283.991 193.058 283.428 193.132 283.028 192.821C282.643 192.51 282.569 191.947 282.88 191.548Z" fill="url(#paint16_linear_409_3485)"/>
<path d="M108.192 144.709C108.814 143.925 109.955 143.791 110.725 144.413C111.511 145.035 111.644 146.175 111.022 146.945C110.4 147.73 109.259 147.864 108.474 147.242C107.689 146.62 107.555 145.479 108.177 144.709L108.192 144.709Z" fill="url(#paint17_linear_409_3485)"/>
<path d="M110.296 90.6594C110.918 89.8746 112.059 89.7413 112.829 90.3633C113.614 90.9852 113.747 92.1254 113.125 92.9103C112.503 93.6951 111.362 93.8284 110.577 93.2064C109.792 92.5845 109.659 91.4443 110.281 90.6594L110.296 90.6594Z" fill="url(#paint18_linear_409_3485)"/>
<path d="M120.206 103.321C120.518 102.936 121.08 102.862 121.48 103.172C121.866 103.483 121.94 104.046 121.629 104.446C121.317 104.831 120.755 104.905 120.355 104.594C119.955 104.283 119.895 103.72 120.206 103.321Z" fill="url(#paint19_linear_409_3485)"/>
<path d="M118.058 116.233C118.681 115.448 119.821 115.315 120.592 115.937C121.377 116.559 121.51 117.699 120.888 118.469C120.266 119.254 119.125 119.387 118.355 118.766C117.569 118.144 117.436 117.003 118.058 116.233Z" fill="url(#paint20_linear_409_3485)"/>
<path d="M91.0523 63.6053C91.6745 62.8204 92.8152 62.6871 93.5855 63.3091C94.3707 63.931 94.504 65.0712 93.8818 65.8561C93.2596 66.6409 92.1189 66.7742 91.3486 66.1522C90.5634 65.5303 90.4301 64.3901 91.0523 63.6053Z" fill="url(#paint21_linear_409_3485)"/>
<path d="M147.153 144.561C147.775 143.777 148.916 143.643 149.686 144.265C150.472 144.887 150.605 146.027 149.983 146.797C149.361 147.582 148.22 147.716 147.435 147.094C146.65 146.472 146.516 145.331 147.138 144.547L147.153 144.561Z" fill="url(#paint22_linear_409_3485)"/>
<path d="M29.0701 135.069C30.9367 132.729 34.3439 132.33 36.6846 134.195C39.0252 136.061 39.4252 139.467 37.5586 141.822C35.692 144.161 32.2848 144.561 29.9293 142.695C27.5887 140.83 27.1887 137.424 29.0553 135.069L29.0701 135.069Z" fill="url(#paint23_linear_409_3485)"/>
<path d="M85.3785 75.3924C87.245 73.0527 90.6523 72.6529 92.9929 74.5187C95.3335 76.3846 95.7335 79.7904 93.8669 82.1449C92.0004 84.4846 88.5931 84.8844 86.2377 83.0186C83.8971 81.1528 83.4971 77.7469 85.3637 75.3924L85.3785 75.3924Z" fill="url(#paint24_linear_409_3485)"/>
<path d="M147.242 121.431C147.864 120.646 149.005 120.513 149.775 121.135C150.56 121.757 150.694 122.897 150.072 123.682C149.449 124.467 148.309 124.6 147.538 123.978C146.753 123.356 146.62 122.216 147.242 121.431Z" fill="url(#paint25_linear_409_3485)"/>
<path d="M135.213 183.359C135.835 182.574 136.976 182.441 137.746 183.063C138.531 183.684 138.665 184.825 138.043 185.61C137.42 186.394 136.28 186.528 135.509 185.906C134.724 185.284 134.591 184.143 135.213 183.359Z" fill="url(#paint26_linear_409_3485)"/>
<path d="M114.266 169.158C115.51 167.588 117.777 167.336 119.347 168.565C120.917 169.809 121.169 172.075 119.94 173.645C118.695 175.214 116.429 175.466 114.859 174.222C113.288 172.978 113.036 170.713 114.281 169.143L114.266 169.158Z" fill="url(#paint27_linear_409_3485)"/>
<path d="M87.1414 168.565C87.7636 167.78 88.9042 167.647 89.6894 168.269C90.4745 168.891 90.6079 170.031 89.9857 170.816C89.3635 171.601 88.2228 171.734 87.4525 171.112C86.6673 170.49 86.534 169.35 87.1562 168.565L87.1414 168.565Z" fill="url(#paint28_linear_409_3485)"/>
<path d="M164.693 102.447C165.315 101.662 166.456 101.529 167.226 102.151C168.011 102.773 168.145 103.913 167.523 104.698C166.9 105.483 165.76 105.616 164.989 104.994C164.219 104.372 164.071 103.232 164.693 102.462L164.693 102.447Z" fill="url(#paint29_linear_409_3485)"/>
<path d="M88.9635 100.655C89.5857 99.8704 90.7264 99.7371 91.4967 100.359C92.2819 100.981 92.4152 102.121 91.793 102.891C91.1708 103.676 90.0301 103.809 89.2598 103.187C88.4747 102.565 88.3413 101.425 88.9635 100.64L88.9635 100.655Z" fill="url(#paint30_linear_409_3485)"/>
<path d="M13.1006 165.1C13.7228 164.315 14.8634 164.182 15.6338 164.804C16.4189 165.426 16.5522 166.566 15.9301 167.336C15.3079 168.121 14.1671 168.254 13.3968 167.632C12.6117 167.01 12.4784 165.87 13.1006 165.1Z" fill="url(#paint31_linear_409_3485)"/>
<path d="M63.0685 51.4031C63.6906 50.6183 64.8314 50.485 65.6017 51.1069C66.3868 51.7289 66.5201 52.8691 65.8979 53.6539C65.2758 54.4388 64.1351 54.572 63.3648 53.9501C62.5796 53.3281 62.4463 52.1879 63.0685 51.4179L63.0685 51.4031Z" fill="url(#paint32_linear_409_3485)"/>
<path d="M29.1293 95.739C29.4404 95.354 30.0034 95.2799 30.4034 95.5909C30.7885 95.9019 30.8626 96.4646 30.5515 96.8644C30.2404 97.2494 29.6775 97.3235 29.2775 97.0125C28.8923 96.7015 28.8182 96.1388 29.1293 95.739Z" fill="url(#paint33_linear_409_3485)"/>
<path d="M17.53 128.228C17.8411 127.843 18.404 127.769 18.804 128.08C19.1892 128.391 19.2632 128.953 18.9521 129.353C18.641 129.738 18.0781 129.812 17.6781 129.501C17.293 129.19 17.2189 128.628 17.53 128.228Z" fill="url(#paint34_linear_409_3485)"/>
<path d="M8.89338 82.1005C9.51557 81.3157 10.6563 81.1824 11.4414 81.8043C12.2266 82.4263 12.3599 83.5665 11.7377 84.3366C11.1155 85.1214 9.9748 85.2546 9.20447 84.6327C8.41932 84.0108 8.28597 82.8705 8.90817 82.0857L8.89338 82.1005Z" fill="url(#paint35_linear_409_3485)"/>
<path d="M92.5189 248.218C93.1411 247.433 94.2817 247.3 95.0521 247.922C95.8372 248.544 95.9705 249.684 95.3484 250.469C94.7262 251.254 93.5855 251.387 92.8152 250.765C92.03 250.143 91.8967 249.003 92.5189 248.233L92.5189 248.218Z" fill="url(#paint36_linear_409_3485)"/>
<path d="M28.5072 213.656C29.1294 212.871 30.27 212.738 31.0404 213.36C31.8107 213.982 31.9589 215.122 31.3367 215.907C30.7145 216.692 29.5738 216.825 28.7886 216.203C28.0035 215.581 27.8702 214.441 28.4923 213.656L28.5072 213.656Z" fill="url(#paint37_linear_409_3485)"/>
<path d="M50.2543 139.541C50.5654 139.156 51.1283 139.082 51.5283 139.393C51.9135 139.704 51.9875 140.267 51.6764 140.667C51.3653 141.052 50.8024 141.126 50.4024 140.815C50.0173 140.504 49.9432 139.941 50.2543 139.541Z" fill="url(#paint38_linear_409_3485)"/>
<path d="M66.8461 79.4353C67.1572 79.0503 67.7201 78.9762 68.1201 79.2872C68.5052 79.5982 68.5793 80.1609 68.2682 80.5607C67.9571 80.9457 67.3942 81.0198 66.9942 80.7088C66.609 80.3978 66.535 79.8351 66.8461 79.4353Z" fill="url(#paint39_linear_409_3485)"/>
<path d="M237.638 159.799C238.63 159.681 239.534 160.391 239.638 161.384C239.756 162.376 239.045 163.279 238.052 163.383C237.06 163.501 236.156 162.79 236.053 161.798C235.934 160.806 236.645 159.903 237.638 159.799Z" fill="url(#paint40_linear_409_3485)"/>
<path d="M150.931 169.543C151.923 169.424 152.827 170.135 152.931 171.127C153.049 172.119 152.338 173.023 151.346 173.126C150.353 173.245 149.449 172.534 149.346 171.542C149.227 170.55 149.938 169.646 150.931 169.543Z" fill="url(#paint41_linear_409_3485)"/>
<path d="M171.804 110.103C172.796 109.984 173.7 110.695 173.804 111.687C173.922 112.679 173.211 113.568 172.219 113.686C171.226 113.805 170.322 113.094 170.219 112.102C170.1 111.11 170.811 110.206 171.804 110.103Z" fill="url(#paint42_linear_409_3485)"/>
<path d="M37.203 75.4963C38.1956 75.3779 39.0844 76.0886 39.2029 77.0808C39.3214 78.0729 38.6104 78.9762 37.6178 79.0799C36.6253 79.1983 35.7216 78.4875 35.6179 77.4954C35.4994 76.5032 36.2105 75.6 37.203 75.4963Z" fill="url(#paint43_linear_409_3485)"/>
<path d="M224.424 169.987C225.416 169.868 226.32 170.579 226.423 171.571C226.542 172.563 225.831 173.466 224.838 173.57C223.846 173.689 222.942 172.978 222.838 171.986C222.72 170.994 223.431 170.09 224.424 169.987Z" fill="url(#paint44_linear_409_3485)"/>
<path d="M214.38 152.839C214.868 152.78 215.328 153.135 215.387 153.638C215.446 154.127 215.091 154.586 214.587 154.645C214.098 154.705 213.639 154.349 213.58 153.846C213.52 153.357 213.876 152.898 214.38 152.839Z" fill="url(#paint45_linear_409_3485)"/>
<path d="M214.128 98.7744C214.617 98.7151 215.076 99.0705 215.135 99.574C215.194 100.063 214.839 100.522 214.335 100.581C213.846 100.64 213.387 100.285 213.328 99.7813C213.268 99.2926 213.624 98.8336 214.128 98.7744Z" fill="url(#paint46_linear_409_3485)"/>
<path d="M64.5351 101.544C65.5276 101.425 66.4312 102.136 66.5349 103.128C66.6534 104.12 65.9424 105.024 64.9499 105.127C63.9573 105.246 63.0685 104.535 62.9499 103.543C62.8314 102.551 63.5425 101.647 64.5351 101.544Z" fill="url(#paint47_linear_409_3485)"/>
<path d="M145.716 204.919C146.709 204.801 147.612 205.511 147.716 206.504C147.835 207.496 147.124 208.399 146.131 208.503C145.138 208.621 144.235 207.91 144.131 206.918C144.013 205.926 144.724 205.023 145.716 204.919Z" fill="url(#paint48_linear_409_3485)"/>
<path d="M64.0758 116.085C65.0684 115.967 65.972 116.677 66.0757 117.67C66.1942 118.662 65.4831 119.55 64.4906 119.669C63.4981 119.787 62.5944 119.076 62.4907 118.084C62.3722 117.092 63.0833 116.189 64.0758 116.085Z" fill="url(#paint49_linear_409_3485)"/>
<path d="M137.583 237.26C138.576 237.142 139.48 237.852 139.583 238.844C139.702 239.837 138.991 240.74 137.998 240.844C137.006 240.962 136.102 240.251 135.998 239.259C135.88 238.267 136.591 237.364 137.583 237.26Z" fill="url(#paint50_linear_409_3485)"/>
<path d="M205.21 203.749C206.202 203.631 207.106 204.342 207.21 205.334C207.328 206.326 206.617 207.229 205.624 207.333C204.632 207.451 203.728 206.74 203.625 205.748C203.506 204.756 204.217 203.853 205.21 203.749Z" fill="url(#paint51_linear_409_3485)"/>
<path d="M304.39 190.822C305.382 190.704 306.286 191.414 306.39 192.406C306.508 193.399 305.797 194.302 304.805 194.406C303.812 194.524 302.909 193.813 302.805 192.821C302.686 191.829 303.397 190.926 304.39 190.822Z" fill="url(#paint52_linear_409_3485)"/>
<path d="M16.3152 183.832C17.3077 183.714 18.2114 184.425 18.3151 185.417C18.4336 186.409 17.7225 187.312 16.73 187.416C15.7374 187.534 14.8338 186.823 14.7301 185.831C14.6116 184.839 15.3226 183.936 16.3152 183.832Z" fill="url(#paint53_linear_409_3485)"/>
<path d="M69.5422 149.478C70.5348 149.359 71.4384 150.07 71.5421 151.062C71.6606 152.054 70.9496 152.958 69.957 153.061C68.9645 153.18 68.0756 152.469 67.9571 151.477C67.8386 150.485 68.5497 149.596 69.5422 149.478Z" fill="url(#paint54_linear_409_3485)"/>
<path d="M185.137 132.951C187.122 132.729 188.914 134.151 189.136 136.135C189.359 138.119 187.936 139.911 185.951 140.133C183.966 140.356 182.174 138.934 181.952 136.95C181.729 134.965 183.151 133.174 185.137 132.951Z" fill="url(#paint55_linear_409_3485)"/>
<path d="M188.203 171.231C188.692 171.172 189.151 171.527 189.21 172.031C189.27 172.519 188.914 172.978 188.41 173.037C187.922 173.097 187.462 172.741 187.403 172.238C187.344 171.749 187.699 171.29 188.203 171.231Z" fill="url(#paint56_linear_409_3485)"/>
<path d="M85.9858 133.174C86.9784 133.055 87.882 133.766 87.9857 134.758C88.1042 135.75 87.3932 136.653 86.4006 136.757C85.4081 136.876 84.5045 136.165 84.4008 135.173C84.2822 134.18 84.9933 133.277 85.9858 133.174Z" fill="url(#paint57_linear_409_3485)"/>
<path d="M54.2392 250.306C55.2318 250.187 56.1354 250.898 56.2391 251.89C56.3577 252.883 55.6466 253.786 54.654 253.889C53.6615 254.008 52.7578 253.297 52.6541 252.305C52.5356 251.313 53.2467 250.41 54.2392 250.306Z" fill="url(#paint58_linear_409_3485)"/>
<path d="M34.0329 187.431C35.0254 187.312 35.929 188.023 36.0327 189.015C36.1512 190.007 35.4402 190.911 34.4477 191.014C33.4551 191.133 32.5514 190.422 32.4477 189.43C32.3292 188.438 33.0403 187.535 34.0329 187.431Z" fill="url(#paint59_linear_409_3485)"/>
<path d="M137.702 146.175C138.694 146.057 139.583 146.768 139.702 147.76C139.82 148.752 139.109 149.655 138.117 149.759C137.124 149.878 136.22 149.167 136.117 148.175C135.998 147.182 136.709 146.279 137.702 146.175Z" fill="url(#paint60_linear_409_3485)"/>
<path d="M93.8965 96.0939C94.8891 95.9755 95.7928 96.6863 95.8965 97.6784C96.015 98.6706 95.3039 99.5739 94.3113 99.6775C93.3188 99.796 92.4152 99.0852 92.3115 98.093C92.193 97.1009 92.904 96.1976 93.8965 96.0939Z" fill="url(#paint61_linear_409_3485)"/>
<path d="M80.4306 114.234C80.9194 114.175 81.3787 114.53 81.438 115.034C81.4972 115.523 81.1417 115.982 80.638 116.041C80.1491 116.1 79.6899 115.745 79.6306 115.241C79.5714 114.753 79.9269 114.294 80.4306 114.234Z" fill="url(#paint62_linear_409_3485)"/>
<path d="M247 112.813C247.993 112.694 248.882 113.405 249 114.397C249.119 115.389 248.408 116.293 247.415 116.396C246.422 116.515 245.519 115.804 245.415 114.812C245.297 113.82 246.008 112.916 247 112.813Z" fill="url(#paint63_linear_409_3485)"/>
<path d="M37.7808 53.2097C38.7733 53.0912 39.677 53.802 39.7807 54.7941C39.8992 55.7863 39.1881 56.6896 38.1956 56.7933C37.203 56.9117 36.2994 56.2009 36.1957 55.2088C36.0772 54.2166 36.7883 53.3133 37.7808 53.2097Z" fill="url(#paint64_linear_409_3485)"/>
</g>
<defs>
<linearGradient id="paint0_linear_409_3485" x1="289.661" y1="223.589" x2="-154.624" y2="280.497" gradientUnits="userSpaceOnUse">
<stop stop-color="#C8A76E"/>
<stop offset="0.14" stop-color="#F5ECB5"/>
<stop offset="0.25" stop-color="#C8A76E"/>
<stop offset="0.44" stop-color="#76593A"/>
<stop offset="0.62" stop-color="#C8A76E"/>
<stop offset="0.77" stop-color="#F5ECB5"/>
<stop offset="0.9" stop-color="#C8A76E"/>
<stop offset="1" stop-color="#F5ECB5"/>
</linearGradient>
<linearGradient id="paint1_linear_409_3485" x1="366.055" y1="303.038" x2="-62.8153" y2="105.676" gradientUnits="userSpaceOnUse">
<stop stop-color="#C8A76E"/>
<stop offset="0.14" stop-color="#F5ECB5"/>
<stop offset="0.25" stop-color="#C8A76E"/>
<stop offset="0.44" stop-color="#76593A"/>
<stop offset="0.62" stop-color="#C8A76E"/>
<stop offset="0.77" stop-color="#F5ECB5"/>
<stop offset="0.9" stop-color="#C8A76E"/>
<stop offset="1" stop-color="#F5ECB5"/>
</linearGradient>
<linearGradient id="paint2_linear_409_3485" x1="146.668" y1="41.4081" x2="-3.55849" y2="283.513" gradientUnits="userSpaceOnUse">
<stop stop-color="#76593A"/>
<stop offset="0.15" stop-color="#C8A76E"/>
<stop offset="0.29" stop-color="#F5ECB5"/>
<stop offset="0.47" stop-color="#C8A76E"/>
<stop offset="0.67" stop-color="#F5ECB5"/>
<stop offset="0.81" stop-color="#C8A76E"/>
<stop offset="1" stop-color="#76593A"/>
</linearGradient>
<linearGradient id="paint3_linear_409_3485" x1="146.668" y1="41.4081" x2="-3.55797" y2="283.512" gradientUnits="userSpaceOnUse">
<stop stop-color="#76593A"/>
<stop offset="0.15" stop-color="#C8A76E"/>
<stop offset="0.29" stop-color="#F5ECB5"/>
<stop offset="0.47" stop-color="#C8A76E"/>
<stop offset="0.67" stop-color="#F5ECB5"/>
<stop offset="0.81" stop-color="#C8A76E"/>
<stop offset="1" stop-color="#76593A"/>
</linearGradient>
<linearGradient id="paint4_linear_409_3485" x1="146.668" y1="41.4082" x2="-3.5586" y2="283.512" gradientUnits="userSpaceOnUse">
<stop stop-color="#76593A"/>
<stop offset="0.15" stop-color="#C8A76E"/>
<stop offset="0.29" stop-color="#F5ECB5"/>
<stop offset="0.47" stop-color="#C8A76E"/>
<stop offset="0.67" stop-color="#F5ECB5"/>
<stop offset="0.81" stop-color="#C8A76E"/>
<stop offset="1" stop-color="#76593A"/>
</linearGradient>
<linearGradient id="paint5_linear_409_3485" x1="146.668" y1="41.4078" x2="-3.5583" y2="283.512" gradientUnits="userSpaceOnUse">
<stop stop-color="#76593A"/>
<stop offset="0.15" stop-color="#C8A76E"/>
<stop offset="0.29" stop-color="#F5ECB5"/>
<stop offset="0.47" stop-color="#C8A76E"/>
<stop offset="0.67" stop-color="#F5ECB5"/>
<stop offset="0.81" stop-color="#C8A76E"/>
<stop offset="1" stop-color="#76593A"/>
</linearGradient>
<linearGradient id="paint6_linear_409_3485" x1="146.668" y1="41.4082" x2="-3.55798" y2="283.512" gradientUnits="userSpaceOnUse">
<stop stop-color="#76593A"/>
<stop offset="0.15" stop-color="#C8A76E"/>
<stop offset="0.29" stop-color="#F5ECB5"/>
<stop offset="0.47" stop-color="#C8A76E"/>
<stop offset="0.67" stop-color="#F5ECB5"/>
<stop offset="0.81" stop-color="#C8A76E"/>
<stop offset="1" stop-color="#76593A"/>
</linearGradient>
<linearGradient id="paint7_linear_409_3485" x1="146.668" y1="41.4079" x2="-3.55798" y2="283.512" gradientUnits="userSpaceOnUse">
<stop stop-color="#76593A"/>
<stop offset="0.15" stop-color="#C8A76E"/>
<stop offset="0.29" stop-color="#F5ECB5"/>
<stop offset="0.47" stop-color="#C8A76E"/>
<stop offset="0.67" stop-color="#F5ECB5"/>
<stop offset="0.81" stop-color="#C8A76E"/>
<stop offset="1" stop-color="#76593A"/>
</linearGradient>
<linearGradient id="paint8_linear_409_3485" x1="146.668" y1="41.4076" x2="-3.55783" y2="283.514" gradientUnits="userSpaceOnUse">
<stop stop-color="#76593A"/>
<stop offset="0.15" stop-color="#C8A76E"/>
<stop offset="0.29" stop-color="#F5ECB5"/>
<stop offset="0.47" stop-color="#C8A76E"/>
<stop offset="0.67" stop-color="#F5ECB5"/>
<stop offset="0.81" stop-color="#C8A76E"/>
<stop offset="1" stop-color="#76593A"/>
</linearGradient>
<linearGradient id="paint9_linear_409_3485" x1="146.667" y1="41.4083" x2="-3.55935" y2="283.511" gradientUnits="userSpaceOnUse">
<stop stop-color="#76593A"/>
<stop offset="0.15" stop-color="#C8A76E"/>
<stop offset="0.29" stop-color="#F5ECB5"/>
<stop offset="0.47" stop-color="#C8A76E"/>
<stop offset="0.67" stop-color="#F5ECB5"/>
<stop offset="0.81" stop-color="#C8A76E"/>
<stop offset="1" stop-color="#76593A"/>
</linearGradient>
<linearGradient id="paint10_linear_409_3485" x1="146.668" y1="41.4079" x2="-3.55862" y2="283.512" gradientUnits="userSpaceOnUse">
<stop stop-color="#76593A"/>
<stop offset="0.15" stop-color="#C8A76E"/>
<stop offset="0.29" stop-color="#F5ECB5"/>
<stop offset="0.47" stop-color="#C8A76E"/>
<stop offset="0.67" stop-color="#F5ECB5"/>
<stop offset="0.81" stop-color="#C8A76E"/>
<stop offset="1" stop-color="#76593A"/>
</linearGradient>
<linearGradient id="paint11_linear_409_3485" x1="146.667" y1="41.4082" x2="-3.55948" y2="283.511" gradientUnits="userSpaceOnUse">
<stop stop-color="#76593A"/>
<stop offset="0.15" stop-color="#C8A76E"/>
<stop offset="0.29" stop-color="#F5ECB5"/>
<stop offset="0.47" stop-color="#C8A76E"/>
<stop offset="0.67" stop-color="#F5ECB5"/>
<stop offset="0.81" stop-color="#C8A76E"/>
<stop offset="1" stop-color="#76593A"/>
</linearGradient>
<linearGradient id="paint12_linear_409_3485" x1="146.669" y1="41.4075" x2="-3.55683" y2="283.514" gradientUnits="userSpaceOnUse">
<stop stop-color="#76593A"/>
<stop offset="0.15" stop-color="#C8A76E"/>
<stop offset="0.29" stop-color="#F5ECB5"/>
<stop offset="0.47" stop-color="#C8A76E"/>
<stop offset="0.67" stop-color="#F5ECB5"/>
<stop offset="0.81" stop-color="#C8A76E"/>
<stop offset="1" stop-color="#76593A"/>
</linearGradient>
<linearGradient id="paint13_linear_409_3485" x1="146.668" y1="41.408" x2="-3.5586" y2="283.51" gradientUnits="userSpaceOnUse">
<stop stop-color="#76593A"/>
<stop offset="0.15" stop-color="#C8A76E"/>
<stop offset="0.29" stop-color="#F5ECB5"/>
<stop offset="0.47" stop-color="#C8A76E"/>
<stop offset="0.67" stop-color="#F5ECB5"/>
<stop offset="0.81" stop-color="#C8A76E"/>
<stop offset="1" stop-color="#76593A"/>
</linearGradient>
<linearGradient id="paint14_linear_409_3485" x1="146.668" y1="41.4084" x2="-3.55798" y2="283.512" gradientUnits="userSpaceOnUse">
<stop stop-color="#76593A"/>
<stop offset="0.15" stop-color="#C8A76E"/>
<stop offset="0.29" stop-color="#F5ECB5"/>
<stop offset="0.47" stop-color="#C8A76E"/>
<stop offset="0.67" stop-color="#F5ECB5"/>
<stop offset="0.81" stop-color="#C8A76E"/>
<stop offset="1" stop-color="#76593A"/>
</linearGradient>
<linearGradient id="paint15_linear_409_3485" x1="146.668" y1="41.4086" x2="-3.55676" y2="283.512" gradientUnits="userSpaceOnUse">
<stop stop-color="#76593A"/>
<stop offset="0.15" stop-color="#C8A76E"/>
<stop offset="0.29" stop-color="#F5ECB5"/>
<stop offset="0.47" stop-color="#C8A76E"/>
<stop offset="0.67" stop-color="#F5ECB5"/>
<stop offset="0.81" stop-color="#C8A76E"/>
<stop offset="1" stop-color="#76593A"/>
</linearGradient>
<linearGradient id="paint16_linear_409_3485" x1="146.667" y1="41.4091" x2="-3.55706" y2="283.513" gradientUnits="userSpaceOnUse">
<stop stop-color="#76593A"/>
<stop offset="0.15" stop-color="#C8A76E"/>
<stop offset="0.29" stop-color="#F5ECB5"/>
<stop offset="0.47" stop-color="#C8A76E"/>
<stop offset="0.67" stop-color="#F5ECB5"/>
<stop offset="0.81" stop-color="#C8A76E"/>
<stop offset="1" stop-color="#76593A"/>
</linearGradient>
<linearGradient id="paint17_linear_409_3485" x1="146.668" y1="41.4081" x2="-3.55806" y2="283.512" gradientUnits="userSpaceOnUse">
<stop stop-color="#76593A"/>
<stop offset="0.15" stop-color="#C8A76E"/>
<stop offset="0.29" stop-color="#F5ECB5"/>
<stop offset="0.47" stop-color="#C8A76E"/>
<stop offset="0.67" stop-color="#F5ECB5"/>
<stop offset="0.81" stop-color="#C8A76E"/>
<stop offset="1" stop-color="#76593A"/>
</linearGradient>
<linearGradient id="paint18_linear_409_3485" x1="146.667" y1="41.4077" x2="-3.55918" y2="283.511" gradientUnits="userSpaceOnUse">
<stop stop-color="#76593A"/>
<stop offset="0.15" stop-color="#C8A76E"/>
<stop offset="0.29" stop-color="#F5ECB5"/>
<stop offset="0.47" stop-color="#C8A76E"/>
<stop offset="0.67" stop-color="#F5ECB5"/>
<stop offset="0.81" stop-color="#C8A76E"/>
<stop offset="1" stop-color="#76593A"/>
</linearGradient>
<linearGradient id="paint19_linear_409_3485" x1="146.668" y1="41.408" x2="-3.55808" y2="283.512" gradientUnits="userSpaceOnUse">
<stop stop-color="#76593A"/>
<stop offset="0.15" stop-color="#C8A76E"/>
<stop offset="0.29" stop-color="#F5ECB5"/>
<stop offset="0.47" stop-color="#C8A76E"/>
<stop offset="0.67" stop-color="#F5ECB5"/>
<stop offset="0.81" stop-color="#C8A76E"/>
<stop offset="1" stop-color="#76593A"/>
</linearGradient>
<linearGradient id="paint20_linear_409_3485" x1="146.668" y1="41.4079" x2="-3.55929" y2="283.511" gradientUnits="userSpaceOnUse">
<stop stop-color="#76593A"/>
<stop offset="0.15" stop-color="#C8A76E"/>
<stop offset="0.29" stop-color="#F5ECB5"/>
<stop offset="0.47" stop-color="#C8A76E"/>
<stop offset="0.67" stop-color="#F5ECB5"/>
<stop offset="0.81" stop-color="#C8A76E"/>
<stop offset="1" stop-color="#76593A"/>
</linearGradient>
<linearGradient id="paint21_linear_409_3485" x1="146.668" y1="41.408" x2="-3.55827" y2="283.512" gradientUnits="userSpaceOnUse">
<stop stop-color="#76593A"/>
<stop offset="0.15" stop-color="#C8A76E"/>
<stop offset="0.29" stop-color="#F5ECB5"/>
<stop offset="0.47" stop-color="#C8A76E"/>
<stop offset="0.67" stop-color="#F5ECB5"/>
<stop offset="0.81" stop-color="#C8A76E"/>
<stop offset="1" stop-color="#76593A"/>
</linearGradient>
<linearGradient id="paint22_linear_409_3485" x1="146.668" y1="41.4084" x2="-3.55782" y2="283.512" gradientUnits="userSpaceOnUse">
<stop stop-color="#76593A"/>
<stop offset="0.15" stop-color="#C8A76E"/>
<stop offset="0.29" stop-color="#F5ECB5"/>
<stop offset="0.47" stop-color="#C8A76E"/>
<stop offset="0.67" stop-color="#F5ECB5"/>
<stop offset="0.81" stop-color="#C8A76E"/>
<stop offset="1" stop-color="#76593A"/>
</linearGradient>
<linearGradient id="paint23_linear_409_3485" x1="146.668" y1="41.4081" x2="-3.55821" y2="283.512" gradientUnits="userSpaceOnUse">
<stop stop-color="#76593A"/>
<stop offset="0.15" stop-color="#C8A76E"/>
<stop offset="0.29" stop-color="#F5ECB5"/>
<stop offset="0.47" stop-color="#C8A76E"/>
<stop offset="0.67" stop-color="#F5ECB5"/>
<stop offset="0.81" stop-color="#C8A76E"/>
<stop offset="1" stop-color="#76593A"/>
</linearGradient>
<linearGradient id="paint24_linear_409_3485" x1="146.668" y1="41.408" x2="-3.55815" y2="283.512" gradientUnits="userSpaceOnUse">
<stop stop-color="#76593A"/>
<stop offset="0.15" stop-color="#C8A76E"/>
<stop offset="0.29" stop-color="#F5ECB5"/>
<stop offset="0.47" stop-color="#C8A76E"/>
<stop offset="0.67" stop-color="#F5ECB5"/>
<stop offset="0.81" stop-color="#C8A76E"/>
<stop offset="1" stop-color="#76593A"/>
</linearGradient>
<linearGradient id="paint25_linear_409_3485" x1="146.668" y1="41.4079" x2="-3.55873" y2="283.512" gradientUnits="userSpaceOnUse">
<stop stop-color="#76593A"/>
<stop offset="0.15" stop-color="#C8A76E"/>
<stop offset="0.29" stop-color="#F5ECB5"/>
<stop offset="0.47" stop-color="#C8A76E"/>
<stop offset="0.67" stop-color="#F5ECB5"/>
<stop offset="0.81" stop-color="#C8A76E"/>
<stop offset="1" stop-color="#76593A"/>
</linearGradient>
<linearGradient id="paint26_linear_409_3485" x1="146.668" y1="41.4081" x2="-3.55846" y2="283.512" gradientUnits="userSpaceOnUse">
<stop stop-color="#76593A"/>
<stop offset="0.15" stop-color="#C8A76E"/>
<stop offset="0.29" stop-color="#F5ECB5"/>
<stop offset="0.47" stop-color="#C8A76E"/>
<stop offset="0.67" stop-color="#F5ECB5"/>
<stop offset="0.81" stop-color="#C8A76E"/>
<stop offset="1" stop-color="#76593A"/>
</linearGradient>
<linearGradient id="paint27_linear_409_3485" x1="146.668" y1="41.4083" x2="-3.55796" y2="283.512" gradientUnits="userSpaceOnUse">
<stop stop-color="#76593A"/>
<stop offset="0.15" stop-color="#C8A76E"/>
<stop offset="0.29" stop-color="#F5ECB5"/>
<stop offset="0.47" stop-color="#C8A76E"/>
<stop offset="0.67" stop-color="#F5ECB5"/>
<stop offset="0.81" stop-color="#C8A76E"/>
<stop offset="1" stop-color="#76593A"/>
</linearGradient>
<linearGradient id="paint28_linear_409_3485" x1="146.668" y1="41.408" x2="-3.55857" y2="283.512" gradientUnits="userSpaceOnUse">
<stop stop-color="#76593A"/>
<stop offset="0.15" stop-color="#C8A76E"/>
<stop offset="0.29" stop-color="#F5ECB5"/>
<stop offset="0.47" stop-color="#C8A76E"/>
<stop offset="0.67" stop-color="#F5ECB5"/>
<stop offset="0.81" stop-color="#C8A76E"/>
<stop offset="1" stop-color="#76593A"/>
</linearGradient>
<linearGradient id="paint29_linear_409_3485" x1="146.668" y1="41.4082" x2="-3.5581" y2="283.512" gradientUnits="userSpaceOnUse">
<stop stop-color="#76593A"/>
<stop offset="0.15" stop-color="#C8A76E"/>
<stop offset="0.29" stop-color="#F5ECB5"/>
<stop offset="0.47" stop-color="#C8A76E"/>
<stop offset="0.67" stop-color="#F5ECB5"/>
<stop offset="0.81" stop-color="#C8A76E"/>
<stop offset="1" stop-color="#76593A"/>
</linearGradient>
<linearGradient id="paint30_linear_409_3485" x1="146.668" y1="41.4079" x2="-3.55907" y2="283.512" gradientUnits="userSpaceOnUse">
<stop stop-color="#76593A"/>
<stop offset="0.15" stop-color="#C8A76E"/>
<stop offset="0.29" stop-color="#F5ECB5"/>
<stop offset="0.47" stop-color="#C8A76E"/>
<stop offset="0.67" stop-color="#F5ECB5"/>
<stop offset="0.81" stop-color="#C8A76E"/>
<stop offset="1" stop-color="#76593A"/>
</linearGradient>
<linearGradient id="paint31_linear_409_3485" x1="146.668" y1="41.4079" x2="-3.55776" y2="283.512" gradientUnits="userSpaceOnUse">
<stop stop-color="#76593A"/>
<stop offset="0.15" stop-color="#C8A76E"/>
<stop offset="0.29" stop-color="#F5ECB5"/>
<stop offset="0.47" stop-color="#C8A76E"/>
<stop offset="0.67" stop-color="#F5ECB5"/>
<stop offset="0.81" stop-color="#C8A76E"/>
<stop offset="1" stop-color="#76593A"/>
</linearGradient>
<linearGradient id="paint32_linear_409_3485" x1="146.668" y1="41.4078" x2="-3.55763" y2="283.512" gradientUnits="userSpaceOnUse">
<stop stop-color="#76593A"/>
<stop offset="0.15" stop-color="#C8A76E"/>
<stop offset="0.29" stop-color="#F5ECB5"/>
<stop offset="0.47" stop-color="#C8A76E"/>
<stop offset="0.67" stop-color="#F5ECB5"/>
<stop offset="0.81" stop-color="#C8A76E"/>
<stop offset="1" stop-color="#76593A"/>
</linearGradient>
<linearGradient id="paint33_linear_409_3485" x1="146.669" y1="41.4074" x2="-3.55875" y2="283.515" gradientUnits="userSpaceOnUse">
<stop stop-color="#76593A"/>
<stop offset="0.15" stop-color="#C8A76E"/>
<stop offset="0.29" stop-color="#F5ECB5"/>
<stop offset="0.47" stop-color="#C8A76E"/>
<stop offset="0.67" stop-color="#F5ECB5"/>
<stop offset="0.81" stop-color="#C8A76E"/>
<stop offset="1" stop-color="#76593A"/>
</linearGradient>
<linearGradient id="paint34_linear_409_3485" x1="146.668" y1="41.4067" x2="-3.56154" y2="283.512" gradientUnits="userSpaceOnUse">
<stop stop-color="#76593A"/>
<stop offset="0.15" stop-color="#C8A76E"/>
<stop offset="0.29" stop-color="#F5ECB5"/>
<stop offset="0.47" stop-color="#C8A76E"/>
<stop offset="0.67" stop-color="#F5ECB5"/>
<stop offset="0.81" stop-color="#C8A76E"/>
<stop offset="1" stop-color="#76593A"/>
</linearGradient>
<linearGradient id="paint35_linear_409_3485" x1="146.668" y1="41.4079" x2="-3.55827" y2="283.512" gradientUnits="userSpaceOnUse">
<stop stop-color="#76593A"/>
<stop offset="0.15" stop-color="#C8A76E"/>
<stop offset="0.29" stop-color="#F5ECB5"/>
<stop offset="0.47" stop-color="#C8A76E"/>
<stop offset="0.67" stop-color="#F5ECB5"/>
<stop offset="0.81" stop-color="#C8A76E"/>
<stop offset="1" stop-color="#76593A"/>
</linearGradient>
<linearGradient id="paint36_linear_409_3485" x1="146.668" y1="41.4079" x2="-3.5586" y2="283.512" gradientUnits="userSpaceOnUse">
<stop stop-color="#76593A"/>
<stop offset="0.15" stop-color="#C8A76E"/>
<stop offset="0.29" stop-color="#F5ECB5"/>
<stop offset="0.47" stop-color="#C8A76E"/>
<stop offset="0.67" stop-color="#F5ECB5"/>
<stop offset="0.81" stop-color="#C8A76E"/>
<stop offset="1" stop-color="#76593A"/>
</linearGradient>
<linearGradient id="paint37_linear_409_3485" x1="146.668" y1="41.408" x2="-3.55803" y2="283.512" gradientUnits="userSpaceOnUse">
<stop stop-color="#76593A"/>
<stop offset="0.15" stop-color="#C8A76E"/>
<stop offset="0.29" stop-color="#F5ECB5"/>
<stop offset="0.47" stop-color="#C8A76E"/>
<stop offset="0.67" stop-color="#F5ECB5"/>
<stop offset="0.81" stop-color="#C8A76E"/>
<stop offset="1" stop-color="#76593A"/>
</linearGradient>
<linearGradient id="paint38_linear_409_3485" x1="146.668" y1="41.4091" x2="-3.5561" y2="283.512" gradientUnits="userSpaceOnUse">
<stop stop-color="#76593A"/>
<stop offset="0.15" stop-color="#C8A76E"/>
<stop offset="0.29" stop-color="#F5ECB5"/>
<stop offset="0.47" stop-color="#C8A76E"/>
<stop offset="0.67" stop-color="#F5ECB5"/>
<stop offset="0.81" stop-color="#C8A76E"/>
<stop offset="1" stop-color="#76593A"/>
</linearGradient>
<linearGradient id="paint39_linear_409_3485" x1="146.667" y1="41.4083" x2="-3.55957" y2="283.511" gradientUnits="userSpaceOnUse">
<stop stop-color="#76593A"/>
<stop offset="0.15" stop-color="#C8A76E"/>
<stop offset="0.29" stop-color="#F5ECB5"/>
<stop offset="0.47" stop-color="#C8A76E"/>
<stop offset="0.67" stop-color="#F5ECB5"/>
<stop offset="0.81" stop-color="#C8A76E"/>
<stop offset="1" stop-color="#76593A"/>
</linearGradient>
<linearGradient id="paint40_linear_409_3485" x1="146.667" y1="41.4083" x2="-3.55822" y2="283.513" gradientUnits="userSpaceOnUse">
<stop stop-color="#76593A"/>
<stop offset="0.15" stop-color="#C8A76E"/>
<stop offset="0.29" stop-color="#F5ECB5"/>
<stop offset="0.47" stop-color="#C8A76E"/>
<stop offset="0.67" stop-color="#F5ECB5"/>
<stop offset="0.81" stop-color="#C8A76E"/>
<stop offset="1" stop-color="#76593A"/>
</linearGradient>
<linearGradient id="paint41_linear_409_3485" x1="146.668" y1="41.4083" x2="-3.55854" y2="283.511" gradientUnits="userSpaceOnUse">
<stop stop-color="#76593A"/>
<stop offset="0.15" stop-color="#C8A76E"/>
<stop offset="0.29" stop-color="#F5ECB5"/>
<stop offset="0.47" stop-color="#C8A76E"/>
<stop offset="0.67" stop-color="#F5ECB5"/>
<stop offset="0.81" stop-color="#C8A76E"/>
<stop offset="1" stop-color="#76593A"/>
</linearGradient>
<linearGradient id="paint42_linear_409_3485" x1="146.668" y1="41.4085" x2="-3.55705" y2="283.511" gradientUnits="userSpaceOnUse">
<stop stop-color="#76593A"/>
<stop offset="0.15" stop-color="#C8A76E"/>
<stop offset="0.29" stop-color="#F5ECB5"/>
<stop offset="0.47" stop-color="#C8A76E"/>
<stop offset="0.67" stop-color="#F5ECB5"/>
<stop offset="0.81" stop-color="#C8A76E"/>
<stop offset="1" stop-color="#76593A"/>
</linearGradient>
<linearGradient id="paint43_linear_409_3485" x1="146.668" y1="41.4084" x2="-3.55585" y2="283.512" gradientUnits="userSpaceOnUse">
<stop stop-color="#76593A"/>
<stop offset="0.15" stop-color="#C8A76E"/>
<stop offset="0.29" stop-color="#F5ECB5"/>
<stop offset="0.47" stop-color="#C8A76E"/>
<stop offset="0.67" stop-color="#F5ECB5"/>
<stop offset="0.81" stop-color="#C8A76E"/>
<stop offset="1" stop-color="#76593A"/>
</linearGradient>
<linearGradient id="paint44_linear_409_3485" x1="146.668" y1="41.4079" x2="-3.55809" y2="283.512" gradientUnits="userSpaceOnUse">
<stop stop-color="#76593A"/>
<stop offset="0.15" stop-color="#C8A76E"/>
<stop offset="0.29" stop-color="#F5ECB5"/>
<stop offset="0.47" stop-color="#C8A76E"/>
<stop offset="0.67" stop-color="#F5ECB5"/>
<stop offset="0.81" stop-color="#C8A76E"/>
<stop offset="1" stop-color="#76593A"/>
</linearGradient>
<linearGradient id="paint45_linear_409_3485" x1="146.668" y1="41.4077" x2="-3.55846" y2="283.512" gradientUnits="userSpaceOnUse">
<stop stop-color="#76593A"/>
<stop offset="0.15" stop-color="#C8A76E"/>
<stop offset="0.29" stop-color="#F5ECB5"/>
<stop offset="0.47" stop-color="#C8A76E"/>
<stop offset="0.67" stop-color="#F5ECB5"/>
<stop offset="0.81" stop-color="#C8A76E"/>
<stop offset="1" stop-color="#76593A"/>
</linearGradient>
<linearGradient id="paint46_linear_409_3485" x1="146.668" y1="41.4078" x2="-3.55852" y2="283.512" gradientUnits="userSpaceOnUse">
<stop stop-color="#76593A"/>
<stop offset="0.15" stop-color="#C8A76E"/>
<stop offset="0.29" stop-color="#F5ECB5"/>
<stop offset="0.47" stop-color="#C8A76E"/>
<stop offset="0.67" stop-color="#F5ECB5"/>
<stop offset="0.81" stop-color="#C8A76E"/>
<stop offset="1" stop-color="#76593A"/>
</linearGradient>
<linearGradient id="paint47_linear_409_3485" x1="146.667" y1="41.4085" x2="-3.55782" y2="283.511" gradientUnits="userSpaceOnUse">
<stop stop-color="#76593A"/>
<stop offset="0.15" stop-color="#C8A76E"/>
<stop offset="0.29" stop-color="#F5ECB5"/>
<stop offset="0.47" stop-color="#C8A76E"/>
<stop offset="0.67" stop-color="#F5ECB5"/>
<stop offset="0.81" stop-color="#C8A76E"/>
<stop offset="1" stop-color="#76593A"/>
</linearGradient>
<linearGradient id="paint48_linear_409_3485" x1="146.668" y1="41.4081" x2="-3.55774" y2="283.513" gradientUnits="userSpaceOnUse">
<stop stop-color="#76593A"/>
<stop offset="0.15" stop-color="#C8A76E"/>
<stop offset="0.29" stop-color="#F5ECB5"/>
<stop offset="0.47" stop-color="#C8A76E"/>
<stop offset="0.67" stop-color="#F5ECB5"/>
<stop offset="0.81" stop-color="#C8A76E"/>
<stop offset="1" stop-color="#76593A"/>
</linearGradient>
<linearGradient id="paint49_linear_409_3485" x1="146.667" y1="41.4075" x2="-3.5605" y2="283.511" gradientUnits="userSpaceOnUse">
<stop stop-color="#76593A"/>
<stop offset="0.15" stop-color="#C8A76E"/>
<stop offset="0.29" stop-color="#F5ECB5"/>
<stop offset="0.47" stop-color="#C8A76E"/>
<stop offset="0.67" stop-color="#F5ECB5"/>
<stop offset="0.81" stop-color="#C8A76E"/>
<stop offset="1" stop-color="#76593A"/>
</linearGradient>
<linearGradient id="paint50_linear_409_3485" x1="146.668" y1="41.408" x2="-3.55769" y2="283.513" gradientUnits="userSpaceOnUse">
<stop stop-color="#76593A"/>
<stop offset="0.15" stop-color="#C8A76E"/>
<stop offset="0.29" stop-color="#F5ECB5"/>
<stop offset="0.47" stop-color="#C8A76E"/>
<stop offset="0.67" stop-color="#F5ECB5"/>
<stop offset="0.81" stop-color="#C8A76E"/>
<stop offset="1" stop-color="#76593A"/>
</linearGradient>
<linearGradient id="paint51_linear_409_3485" x1="146.667" y1="41.4081" x2="-3.55804" y2="283.513" gradientUnits="userSpaceOnUse">
<stop stop-color="#76593A"/>
<stop offset="0.15" stop-color="#C8A76E"/>
<stop offset="0.29" stop-color="#F5ECB5"/>
<stop offset="0.47" stop-color="#C8A76E"/>
<stop offset="0.67" stop-color="#F5ECB5"/>
<stop offset="0.81" stop-color="#C8A76E"/>
<stop offset="1" stop-color="#76593A"/>
</linearGradient>
<linearGradient id="paint52_linear_409_3485" x1="146.668" y1="41.4083" x2="-3.55801" y2="283.512" gradientUnits="userSpaceOnUse">
<stop stop-color="#76593A"/>
<stop offset="0.15" stop-color="#C8A76E"/>
<stop offset="0.29" stop-color="#F5ECB5"/>
<stop offset="0.47" stop-color="#C8A76E"/>
<stop offset="0.67" stop-color="#F5ECB5"/>
<stop offset="0.81" stop-color="#C8A76E"/>
<stop offset="1" stop-color="#76593A"/>
</linearGradient>
<linearGradient id="paint53_linear_409_3485" x1="146.667" y1="41.408" x2="-3.55949" y2="283.511" gradientUnits="userSpaceOnUse">
<stop stop-color="#76593A"/>
<stop offset="0.15" stop-color="#C8A76E"/>
<stop offset="0.29" stop-color="#F5ECB5"/>
<stop offset="0.47" stop-color="#C8A76E"/>
<stop offset="0.67" stop-color="#F5ECB5"/>
<stop offset="0.81" stop-color="#C8A76E"/>
<stop offset="1" stop-color="#76593A"/>
</linearGradient>
<linearGradient id="paint54_linear_409_3485" x1="146.667" y1="41.4083" x2="-3.55908" y2="283.511" gradientUnits="userSpaceOnUse">
<stop stop-color="#76593A"/>
<stop offset="0.15" stop-color="#C8A76E"/>
<stop offset="0.29" stop-color="#F5ECB5"/>
<stop offset="0.47" stop-color="#C8A76E"/>
<stop offset="0.67" stop-color="#F5ECB5"/>
<stop offset="0.81" stop-color="#C8A76E"/>
<stop offset="1" stop-color="#76593A"/>
</linearGradient>
<linearGradient id="paint55_linear_409_3485" x1="146.668" y1="41.4077" x2="-3.55857" y2="283.512" gradientUnits="userSpaceOnUse">
<stop stop-color="#76593A"/>
<stop offset="0.15" stop-color="#C8A76E"/>
<stop offset="0.29" stop-color="#F5ECB5"/>
<stop offset="0.47" stop-color="#C8A76E"/>
<stop offset="0.67" stop-color="#F5ECB5"/>
<stop offset="0.81" stop-color="#C8A76E"/>
<stop offset="1" stop-color="#76593A"/>
</linearGradient>
<linearGradient id="paint56_linear_409_3485" x1="146.668" y1="41.4081" x2="-3.55844" y2="283.512" gradientUnits="userSpaceOnUse">
<stop stop-color="#76593A"/>
<stop offset="0.15" stop-color="#C8A76E"/>
<stop offset="0.29" stop-color="#F5ECB5"/>
<stop offset="0.47" stop-color="#C8A76E"/>
<stop offset="0.67" stop-color="#F5ECB5"/>
<stop offset="0.81" stop-color="#C8A76E"/>
<stop offset="1" stop-color="#76593A"/>
</linearGradient>
<linearGradient id="paint57_linear_409_3485" x1="146.667" y1="41.4073" x2="-3.56032" y2="283.511" gradientUnits="userSpaceOnUse">
<stop stop-color="#76593A"/>
<stop offset="0.15" stop-color="#C8A76E"/>
<stop offset="0.29" stop-color="#F5ECB5"/>
<stop offset="0.47" stop-color="#C8A76E"/>
<stop offset="0.67" stop-color="#F5ECB5"/>
<stop offset="0.81" stop-color="#C8A76E"/>
<stop offset="1" stop-color="#76593A"/>
</linearGradient>
<linearGradient id="paint58_linear_409_3485" x1="146.668" y1="41.408" x2="-3.55725" y2="283.513" gradientUnits="userSpaceOnUse">
<stop stop-color="#76593A"/>
<stop offset="0.15" stop-color="#C8A76E"/>
<stop offset="0.29" stop-color="#F5ECB5"/>
<stop offset="0.47" stop-color="#C8A76E"/>
<stop offset="0.67" stop-color="#F5ECB5"/>
<stop offset="0.81" stop-color="#C8A76E"/>
<stop offset="1" stop-color="#76593A"/>
</linearGradient>
<linearGradient id="paint59_linear_409_3485" x1="146.667" y1="41.4073" x2="-3.56068" y2="283.511" gradientUnits="userSpaceOnUse">
<stop stop-color="#76593A"/>
<stop offset="0.15" stop-color="#C8A76E"/>
<stop offset="0.29" stop-color="#F5ECB5"/>
<stop offset="0.47" stop-color="#C8A76E"/>
<stop offset="0.67" stop-color="#F5ECB5"/>
<stop offset="0.81" stop-color="#C8A76E"/>
<stop offset="1" stop-color="#76593A"/>
</linearGradient>
<linearGradient id="paint60_linear_409_3485" x1="146.668" y1="41.4076" x2="-3.55905" y2="283.513" gradientUnits="userSpaceOnUse">
<stop stop-color="#76593A"/>
<stop offset="0.15" stop-color="#C8A76E"/>
<stop offset="0.29" stop-color="#F5ECB5"/>
<stop offset="0.47" stop-color="#C8A76E"/>
<stop offset="0.67" stop-color="#F5ECB5"/>
<stop offset="0.81" stop-color="#C8A76E"/>
<stop offset="1" stop-color="#76593A"/>
</linearGradient>
<linearGradient id="paint61_linear_409_3485" x1="146.667" y1="41.4074" x2="-3.56027" y2="283.511" gradientUnits="userSpaceOnUse">
<stop stop-color="#76593A"/>
<stop offset="0.15" stop-color="#C8A76E"/>
<stop offset="0.29" stop-color="#F5ECB5"/>
<stop offset="0.47" stop-color="#C8A76E"/>
<stop offset="0.67" stop-color="#F5ECB5"/>
<stop offset="0.81" stop-color="#C8A76E"/>
<stop offset="1" stop-color="#76593A"/>
</linearGradient>
<linearGradient id="paint62_linear_409_3485" x1="146.668" y1="41.4081" x2="-3.55831" y2="283.512" gradientUnits="userSpaceOnUse">
<stop stop-color="#76593A"/>
<stop offset="0.15" stop-color="#C8A76E"/>
<stop offset="0.29" stop-color="#F5ECB5"/>
<stop offset="0.47" stop-color="#C8A76E"/>
<stop offset="0.67" stop-color="#F5ECB5"/>
<stop offset="0.81" stop-color="#C8A76E"/>
<stop offset="1" stop-color="#76593A"/>
</linearGradient>
<linearGradient id="paint63_linear_409_3485" x1="146.668" y1="41.4077" x2="-3.55941" y2="283.512" gradientUnits="userSpaceOnUse">
<stop stop-color="#76593A"/>
<stop offset="0.15" stop-color="#C8A76E"/>
<stop offset="0.29" stop-color="#F5ECB5"/>
<stop offset="0.47" stop-color="#C8A76E"/>
<stop offset="0.67" stop-color="#F5ECB5"/>
<stop offset="0.81" stop-color="#C8A76E"/>
<stop offset="1" stop-color="#76593A"/>
</linearGradient>
<linearGradient id="paint64_linear_409_3485" x1="146.667" y1="41.4077" x2="-3.56068" y2="283.511" gradientUnits="userSpaceOnUse">
<stop stop-color="#76593A"/>
<stop offset="0.15" stop-color="#C8A76E"/>
<stop offset="0.29" stop-color="#F5ECB5"/>
<stop offset="0.47" stop-color="#C8A76E"/>
<stop offset="0.67" stop-color="#F5ECB5"/>
<stop offset="0.81" stop-color="#C8A76E"/>
<stop offset="1" stop-color="#76593A"/>
</linearGradient>
<clipPath id="clip0_409_3485">
<rect width="753" height="492" fill="white" transform="translate(509 492) rotate(-180)"/>
</clipPath>
</defs>
</svg>
