<svg width="509" height="492" fill="none" xmlns="http://www.w3.org/2000/svg"><g clip-path="url(#clip0_409_3485)"><path d="M262 12l-389 480" stroke="url(#paint0_linear_409_3485)" stroke-miterlimit="10"/><path d="M478 58l-593 162" stroke="url(#paint1_linear_409_3485)" stroke-miterlimit="10"/><path d="M102.711 105.261a1.814 1.814 0 012.548-.296c.785.621.918 1.762.296 2.532a1.798 1.798 0 01-2.533.296 1.813 1.813 0 01-.296-2.547l-.015.015zm-42.235 72.426a1.798 1.798 0 012.533-.296 1.813 1.813 0 11-2.252 2.843 1.796 1.796 0 01-.296-2.532l.015-.015zm19.732 14.497a1.799 1.799 0 012.534-.296c.785.622.918 1.762.296 2.547a1.798 1.798 0 01-2.533.296 1.813 1.813 0 01-.297-2.547zm-29.48-70.931a1.798 1.798 0 012.534-.296 1.813 1.813 0 11-2.252 2.843 1.813 1.813 0 01-.296-2.547h.014zm160.807 4.783c.622-.784 1.763-.918 2.533-.296.786.622.919 1.762.297 2.547a1.798 1.798 0 01-2.533.296 1.812 1.812 0 01-.297-2.547zM96.148 174.503a1.798 1.798 0 012.534-.296c.785.622.918 1.762.296 2.547a1.798 1.798 0 01-2.533.296 1.813 1.813 0 01-.297-2.547zm61.597 98.385a.913.913 0 011.274-.148c.385.311.46.874.148 1.274a.913.913 0 01-1.274.148.913.913 0 01-.148-1.274zm-73.863 18.2a.913.913 0 011.274-.148.91.91 0 01.148 1.273.913.913 0 01-1.274.148.912.912 0 01-.148-1.273zm117.032-151.917a1.798 1.798 0 012.533-.296c.785.622.918 1.762.296 2.547a1.798 1.798 0 01-2.533.296 1.796 1.796 0 01-.296-2.532v-.015zM73.69 190.837a.913.913 0 011.274-.148.91.91 0 01.148 1.273.913.913 0 01-1.274.148.912.912 0 01-.148-1.273zm14.192 15.281a.913.913 0 011.274-.148c.385.311.46.874.148 1.274a.913.913 0 01-1.274.148.913.913 0 01-.148-1.274zm67.478-28.935a.913.913 0 011.274-.148.913.913 0 01.148 1.274.913.913 0 01-1.274.148.913.913 0 01-.148-1.274zm60.427 30.979a.913.913 0 011.274-.148.913.913 0 01.148 1.274.913.913 0 01-1.274.148.913.913 0 01-.148-1.274zm131.342-40.9a.913.913 0 011.274-.148.912.912 0 01.148 1.273.913.913 0 01-1.274.148.912.912 0 01-.148-1.273zm-64.249 24.286a.913.913 0 011.274-.148c.385.31.459.873.148 1.273a.913.913 0 01-1.274.148.912.912 0 01-.148-1.273zm-174.688-46.839c.622-.784 1.763-.918 2.533-.296.786.622.919 1.762.297 2.532a1.814 1.814 0 01-2.548.297c-.785-.622-.919-1.763-.297-2.533h.015zm2.104-54.049a1.798 1.798 0 012.533-.297 1.813 1.813 0 11-2.548.296h.015zm9.91 12.661a.914.914 0 011.274-.149c.386.311.46.874.149 1.274a.913.913 0 01-1.274.148.899.899 0 01-.149-1.273zm-2.148 12.912a1.799 1.799 0 012.534-.296c.785.622.918 1.762.296 2.532a1.799 1.799 0 01-2.533.297 1.797 1.797 0 01-.297-2.533zM91.052 63.605a1.798 1.798 0 012.533-.296c.786.622.919 1.762.297 2.547a1.798 1.798 0 01-2.533.296 1.812 1.812 0 01-.297-2.547zm56.101 80.956c.622-.784 1.763-.918 2.533-.296.786.622.919 1.762.297 2.532a1.814 1.814 0 01-2.845-2.25l.015.014zM29.07 135.069c1.867-2.34 5.274-2.739 7.615-.874a5.432 5.432 0 01.874 7.627 5.437 5.437 0 01-7.63.873 5.431 5.431 0 01-.874-7.626h.015zm56.309-59.677c1.866-2.34 5.273-2.74 7.614-.873a5.431 5.431 0 01.874 7.626 5.436 5.436 0 01-7.63.874 5.431 5.431 0 01-.873-7.627h.014zm61.863 46.039a1.798 1.798 0 012.533-.296c.785.622.919 1.762.297 2.547a1.799 1.799 0 01-2.534.296 1.813 1.813 0 01-.296-2.547zm-12.029 61.928a1.798 1.798 0 012.533-.296c.785.621.919 1.762.297 2.547a1.8 1.8 0 01-2.534.296 1.813 1.813 0 01-.296-2.547zm-20.947-14.201a3.624 3.624 0 015.081-.593 3.623 3.623 0 01.593 5.08 3.61 3.61 0 01-5.081.577 3.604 3.604 0 01-.578-5.079l-.015.015zm-27.125-.593a1.814 1.814 0 012.845 2.251 1.798 1.798 0 01-2.534.296 1.813 1.813 0 01-.296-2.547h-.015zm77.552-66.118a1.798 1.798 0 012.533-.296c.785.622.919 1.762.297 2.547a1.799 1.799 0 01-2.534.296c-.77-.622-.918-1.762-.296-2.532v-.015zm-75.73-1.792a1.798 1.798 0 012.534-.296c.785.622.918 1.762.296 2.532a1.798 1.798 0 01-2.533.296 1.813 1.813 0 01-.297-2.547v.015zM13.1 165.1a1.798 1.798 0 012.534-.296c.785.622.918 1.762.296 2.532a1.798 1.798 0 01-2.533.296 1.796 1.796 0 01-.296-2.532zM63.069 51.403a1.798 1.798 0 012.533-.296c.785.622.918 1.762.296 2.547a1.798 1.798 0 01-2.533.296 1.796 1.796 0 01-.297-2.532v-.015zM29.13 95.739a.913.913 0 011.273-.148c.386.31.46.874.149 1.273a.913.913 0 01-1.274.148.912.912 0 01-.149-1.273zm-11.6 32.489a.913.913 0 011.274-.148.91.91 0 01.148 1.273.913.913 0 01-1.274.148.912.912 0 01-.148-1.273zM8.893 82.1a1.814 1.814 0 012.548-.296c.786.622.919 1.763.297 2.533a1.798 1.798 0 01-2.534.296 1.813 1.813 0 01-.296-2.547l-.015.014zm83.626 166.118a1.798 1.798 0 012.533-.296c.785.622.918 1.762.296 2.547a1.798 1.798 0 01-2.533.296 1.796 1.796 0 01-.296-2.532v-.015zm-64.012-34.562a1.798 1.798 0 012.533-.296c.77.622.919 1.762.297 2.547a1.814 1.814 0 01-2.845-2.251h.015zm21.747-74.115a.913.913 0 011.274-.148c.386.311.46.874.148 1.274a.913.913 0 01-1.274.148.913.913 0 01-.148-1.274zm16.592-60.106a.913.913 0 011.274-.148c.385.311.46.874.148 1.274a.913.913 0 01-1.274.148.912.912 0 01-.148-1.274zm170.792 80.364a1.793 1.793 0 012 1.585 1.793 1.793 0 01-1.586 1.999 1.792 1.792 0 01-1.999-1.585 1.791 1.791 0 011.585-1.999zm-86.707 9.744a1.792 1.792 0 012 1.584 1.792 1.792 0 01-1.585 1.999 1.791 1.791 0 01-2-1.584 1.79 1.79 0 011.585-1.999zm20.873-59.44a1.792 1.792 0 012 1.584 1.8 1.8 0 01-1.585 1.999 1.791 1.791 0 01-2-1.584 1.79 1.79 0 011.585-1.999zM37.203 75.496a1.8 1.8 0 012 1.585 1.792 1.792 0 01-1.585 1.999 1.792 1.792 0 01-2-1.585 1.792 1.792 0 011.585-1.999zm187.221 94.491a1.79 1.79 0 011.999 1.584 1.791 1.791 0 01-1.585 1.999 1.792 1.792 0 01-2-1.584 1.792 1.792 0 011.586-1.999zm-10.044-17.148a.912.912 0 011.007.799.91.91 0 01-1.807.208.91.91 0 01.8-1.007zm-.252-54.065a.911.911 0 011.007.8.911.911 0 01-.8 1.007.911.911 0 01-1.007-.8.91.91 0 01.8-1.007zm-149.593 2.77a1.792 1.792 0 012 1.584 1.791 1.791 0 01-1.585 1.999 1.8 1.8 0 01-2-1.584 1.792 1.792 0 011.585-1.999zm81.181 103.375a1.792 1.792 0 012 1.585 1.791 1.791 0 01-1.585 1.999 1.793 1.793 0 01-2-1.585 1.793 1.793 0 011.585-1.999zm-81.64-88.834a1.792 1.792 0 012 1.585 1.8 1.8 0 01-1.585 1.999 1.793 1.793 0 01-2-1.585 1.792 1.792 0 011.585-1.999zm73.507 121.175a1.792 1.792 0 012 1.584 1.792 1.792 0 01-1.585 2 1.794 1.794 0 01-2-1.585 1.793 1.793 0 011.585-1.999zm67.627-33.511a1.794 1.794 0 012 1.585 1.793 1.793 0 01-1.586 1.999 1.792 1.792 0 01-1.999-1.585 1.791 1.791 0 011.585-1.999zm99.18-12.927a1.793 1.793 0 012 1.584 1.793 1.793 0 01-1.585 2 1.793 1.793 0 01-2-1.585 1.791 1.791 0 011.585-1.999zm-288.075-6.99a1.793 1.793 0 012 1.585 1.792 1.792 0 01-1.585 1.999 1.793 1.793 0 01-2-1.585 1.792 1.792 0 011.585-1.999zm53.227-34.354a1.792 1.792 0 012 1.584 1.791 1.791 0 01-1.585 1.999 1.8 1.8 0 01-2-1.584 1.8 1.8 0 011.585-1.999zm115.595-16.527a3.614 3.614 0 11.814 7.182 3.612 3.612 0 01-3.999-3.183 3.613 3.613 0 013.185-3.999zm3.066 38.28a.91.91 0 11-.8 1.007.911.911 0 01.8-1.007zM85.986 133.174a1.792 1.792 0 012 1.584 1.792 1.792 0 01-1.585 1.999 1.792 1.792 0 01-2-1.584 1.79 1.79 0 011.585-1.999zM54.24 250.306a1.792 1.792 0 012 1.584 1.79 1.79 0 01-1.586 1.999 1.792 1.792 0 01-2-1.584 1.792 1.792 0 011.585-1.999zm-20.207-62.875a1.792 1.792 0 012 1.584 1.791 1.791 0 01-1.585 1.999 1.792 1.792 0 01-2-1.584 1.792 1.792 0 011.585-1.999zm103.669-41.256a1.802 1.802 0 012 1.585 1.793 1.793 0 01-1.585 1.999 1.791 1.791 0 01-2-1.584 1.792 1.792 0 011.585-2zM93.897 96.094a1.792 1.792 0 012 1.584 1.792 1.792 0 01-1.586 2 1.792 1.792 0 01-2-1.585 1.792 1.792 0 011.585-2zm-13.467 18.14a.912.912 0 011.008.8.911.911 0 01-.8 1.007.912.912 0 01-1.007-.8.912.912 0 01.8-1.007zM247 112.813a1.8 1.8 0 012 1.584 1.79 1.79 0 01-1.585 1.999 1.792 1.792 0 01-2-1.584 1.792 1.792 0 011.585-1.999zM37.78 53.21a1.792 1.792 0 012 1.584 1.792 1.792 0 01-1.584 2 1.792 1.792 0 01-2-1.585 1.792 1.792 0 011.585-2z" fill="#E5CCB0"/><path d="M102.711 105.261a1.814 1.814 0 012.548-.296c.785.621.918 1.762.296 2.532a1.798 1.798 0 01-2.533.296 1.813 1.813 0 01-.296-2.547l-.015.015z" fill="url(#paint2_linear_409_3485)"/><path d="M60.476 177.687a1.798 1.798 0 012.533-.296 1.813 1.813 0 11-2.252 2.843 1.796 1.796 0 01-.296-2.532l.015-.015z" fill="url(#paint3_linear_409_3485)"/><path d="M80.208 192.184a1.799 1.799 0 012.534-.296c.785.622.918 1.762.296 2.547a1.798 1.798 0 01-2.533.296 1.813 1.813 0 01-.297-2.547z" fill="url(#paint4_linear_409_3485)"/><path d="M50.728 121.253a1.798 1.798 0 012.534-.296 1.813 1.813 0 11-2.252 2.843 1.813 1.813 0 01-.296-2.547h.014z" fill="url(#paint5_linear_409_3485)"/><path d="M211.535 126.036c.622-.784 1.763-.918 2.533-.296.786.622.919 1.762.297 2.547a1.798 1.798 0 01-2.533.296 1.812 1.812 0 01-.297-2.547z" fill="url(#paint6_linear_409_3485)"/><path d="M96.148 174.503a1.798 1.798 0 012.534-.296c.785.622.918 1.762.296 2.547a1.798 1.798 0 01-2.533.296 1.813 1.813 0 01-.297-2.547z" fill="url(#paint7_linear_409_3485)"/><path d="M157.745 272.888a.913.913 0 011.274-.148c.385.311.46.874.148 1.274a.913.913 0 01-1.274.148.913.913 0 01-.148-1.274z" fill="url(#paint8_linear_409_3485)"/><path d="M83.882 291.088a.913.913 0 011.274-.148.91.91 0 01.148 1.273.913.913 0 01-1.274.148.912.912 0 01-.148-1.273z" fill="url(#paint9_linear_409_3485)"/><path d="M200.914 139.171a1.798 1.798 0 012.533-.296c.785.622.918 1.762.296 2.547a1.798 1.798 0 01-2.533.296 1.796 1.796 0 01-.296-2.532v-.015z" fill="url(#paint10_linear_409_3485)"/><path d="M73.69 190.837a.913.913 0 011.274-.148.91.91 0 01.148 1.273.913.913 0 01-1.274.148.912.912 0 01-.148-1.273z" fill="url(#paint11_linear_409_3485)"/><path d="M87.882 206.118a.913.913 0 011.274-.148c.385.311.46.874.148 1.274a.913.913 0 01-1.274.148.913.913 0 01-.148-1.274z" fill="url(#paint12_linear_409_3485)"/><path d="M155.36 177.183a.913.913 0 011.274-.148.913.913 0 01.148 1.274.913.913 0 01-1.274.148.913.913 0 01-.148-1.274z" fill="url(#paint13_linear_409_3485)"/><path d="M215.787 208.162a.913.913 0 011.274-.148.913.913 0 01.148 1.274.913.913 0 01-1.274.148.913.913 0 01-.148-1.274z" fill="url(#paint14_linear_409_3485)"/><path d="M347.129 167.262a.913.913 0 011.274-.148.912.912 0 01.148 1.273.913.913 0 01-1.274.148.912.912 0 01-.148-1.273z" fill="url(#paint15_linear_409_3485)"/><path d="M282.88 191.548a.913.913 0 011.274-.148c.385.31.459.873.148 1.273a.913.913 0 01-1.274.148.912.912 0 01-.148-1.273z" fill="url(#paint16_linear_409_3485)"/><path d="M108.192 144.709c.622-.784 1.763-.918 2.533-.296.786.622.919 1.762.297 2.532a1.814 1.814 0 01-2.548.297c-.785-.622-.919-1.763-.297-2.533h.015z" fill="url(#paint17_linear_409_3485)"/><path d="M110.296 90.66a1.798 1.798 0 012.533-.297 1.813 1.813 0 11-2.548.296h.015z" fill="url(#paint18_linear_409_3485)"/><path d="M120.206 103.321a.914.914 0 011.274-.149c.386.311.46.874.149 1.274a.913.913 0 01-1.274.148.899.899 0 01-.149-1.273z" fill="url(#paint19_linear_409_3485)"/><path d="M118.058 116.233a1.799 1.799 0 012.534-.296c.785.622.918 1.762.296 2.532a1.799 1.799 0 01-2.533.297 1.797 1.797 0 01-.297-2.533z" fill="url(#paint20_linear_409_3485)"/><path d="M91.052 63.605a1.798 1.798 0 012.533-.296c.786.622.919 1.762.297 2.547a1.798 1.798 0 01-2.533.296 1.812 1.812 0 01-.297-2.547z" fill="url(#paint21_linear_409_3485)"/><path d="M147.153 144.561c.622-.784 1.763-.918 2.533-.296.786.622.919 1.762.297 2.532a1.814 1.814 0 01-2.845-2.25l.015.014z" fill="url(#paint22_linear_409_3485)"/><path d="M29.07 135.069c1.867-2.34 5.274-2.739 7.615-.874a5.432 5.432 0 01.874 7.627 5.437 5.437 0 01-7.63.873 5.431 5.431 0 01-.874-7.626h.015z" fill="url(#paint23_linear_409_3485)"/><path d="M85.379 75.392c1.866-2.34 5.273-2.74 7.614-.873a5.431 5.431 0 01.874 7.626 5.436 5.436 0 01-7.63.874 5.431 5.431 0 01-.873-7.627h.014z" fill="url(#paint24_linear_409_3485)"/><path d="M147.242 121.431a1.798 1.798 0 012.533-.296c.785.622.919 1.762.297 2.547a1.799 1.799 0 01-2.534.296 1.813 1.813 0 01-.296-2.547z" fill="url(#paint25_linear_409_3485)"/><path d="M135.213 183.359a1.798 1.798 0 012.533-.296c.785.621.919 1.762.297 2.547a1.8 1.8 0 01-2.534.296 1.813 1.813 0 01-.296-2.547z" fill="url(#paint26_linear_409_3485)"/><path d="M114.266 169.158a3.624 3.624 0 015.081-.593 3.623 3.623 0 01.593 5.08 3.61 3.61 0 01-5.081.577 3.604 3.604 0 01-.578-5.079l-.015.015z" fill="url(#paint27_linear_409_3485)"/><path d="M87.141 168.565a1.814 1.814 0 012.845 2.251 1.798 1.798 0 01-2.534.296 1.813 1.813 0 01-.296-2.547h-.015z" fill="url(#paint28_linear_409_3485)"/><path d="M164.693 102.447a1.798 1.798 0 012.533-.296c.785.622.919 1.762.297 2.547a1.799 1.799 0 01-2.534.296c-.77-.622-.918-1.762-.296-2.532v-.015z" fill="url(#paint29_linear_409_3485)"/><path d="M88.963 100.655a1.798 1.798 0 012.534-.296c.785.622.918 1.762.296 2.532a1.798 1.798 0 01-2.533.296 1.813 1.813 0 01-.297-2.547v.015z" fill="url(#paint30_linear_409_3485)"/><path d="M13.1 165.1a1.798 1.798 0 012.534-.296c.785.622.918 1.762.296 2.532a1.798 1.798 0 01-2.533.296 1.796 1.796 0 01-.296-2.532z" fill="url(#paint31_linear_409_3485)"/><path d="M63.069 51.403a1.798 1.798 0 012.533-.296c.785.622.918 1.762.296 2.547a1.798 1.798 0 01-2.533.296 1.796 1.796 0 01-.297-2.532v-.015z" fill="url(#paint32_linear_409_3485)"/><path d="M29.13 95.739a.913.913 0 011.273-.148c.386.31.46.874.149 1.273a.913.913 0 01-1.274.148.912.912 0 01-.149-1.273z" fill="url(#paint33_linear_409_3485)"/><path d="M17.53 128.228a.913.913 0 011.274-.148.91.91 0 01.148 1.273.913.913 0 01-1.274.148.912.912 0 01-.148-1.273z" fill="url(#paint34_linear_409_3485)"/><path d="M8.893 82.1a1.814 1.814 0 012.548-.296c.786.622.919 1.763.297 2.533a1.798 1.798 0 01-2.534.296 1.813 1.813 0 01-.296-2.547l-.015.014z" fill="url(#paint35_linear_409_3485)"/><path d="M92.519 248.218a1.798 1.798 0 012.533-.296c.785.622.918 1.762.296 2.547a1.798 1.798 0 01-2.533.296 1.796 1.796 0 01-.296-2.532v-.015z" fill="url(#paint36_linear_409_3485)"/><path d="M28.507 213.656a1.798 1.798 0 012.533-.296c.77.622.919 1.762.297 2.547a1.814 1.814 0 01-2.845-2.251h.015z" fill="url(#paint37_linear_409_3485)"/><path d="M50.254 139.541a.913.913 0 011.274-.148c.386.311.46.874.148 1.274a.913.913 0 01-1.274.148.913.913 0 01-.148-1.274z" fill="url(#paint38_linear_409_3485)"/><path d="M66.846 79.435a.913.913 0 011.274-.148c.385.311.46.874.148 1.274a.913.913 0 01-1.274.148.912.912 0 01-.148-1.274z" fill="url(#paint39_linear_409_3485)"/><path d="M237.638 159.799a1.793 1.793 0 012 1.585 1.793 1.793 0 01-1.586 1.999 1.792 1.792 0 01-1.999-1.585 1.791 1.791 0 011.585-1.999z" fill="url(#paint40_linear_409_3485)"/><path d="M150.931 169.543a1.792 1.792 0 012 1.584 1.792 1.792 0 01-1.585 1.999 1.791 1.791 0 01-2-1.584 1.79 1.79 0 011.585-1.999z" fill="url(#paint41_linear_409_3485)"/><path d="M171.804 110.103a1.792 1.792 0 012 1.584 1.8 1.8 0 01-1.585 1.999 1.791 1.791 0 01-2-1.584 1.79 1.79 0 011.585-1.999z" fill="url(#paint42_linear_409_3485)"/><path d="M37.203 75.496a1.8 1.8 0 012 1.585 1.792 1.792 0 01-1.585 1.999 1.792 1.792 0 01-2-1.585 1.792 1.792 0 011.585-1.999z" fill="url(#paint43_linear_409_3485)"/><path d="M224.424 169.987a1.79 1.79 0 011.999 1.584 1.791 1.791 0 01-1.585 1.999 1.792 1.792 0 01-2-1.584 1.792 1.792 0 011.586-1.999z" fill="url(#paint44_linear_409_3485)"/><path d="M214.38 152.839a.912.912 0 011.007.799.91.91 0 01-1.807.208.91.91 0 01.8-1.007z" fill="url(#paint45_linear_409_3485)"/><path d="M214.128 98.774a.911.911 0 011.007.8.911.911 0 01-.8 1.007.911.911 0 01-1.007-.8.91.91 0 01.8-1.007z" fill="url(#paint46_linear_409_3485)"/><path d="M64.535 101.544a1.792 1.792 0 012 1.584 1.791 1.791 0 01-1.585 1.999 1.8 1.8 0 01-2-1.584 1.792 1.792 0 011.585-1.999z" fill="url(#paint47_linear_409_3485)"/><path d="M145.716 204.919a1.792 1.792 0 012 1.585 1.791 1.791 0 01-1.585 1.999 1.793 1.793 0 01-2-1.585 1.793 1.793 0 011.585-1.999z" fill="url(#paint48_linear_409_3485)"/><path d="M64.076 116.085a1.792 1.792 0 012 1.585 1.8 1.8 0 01-1.585 1.999 1.793 1.793 0 01-2-1.585 1.792 1.792 0 011.585-1.999z" fill="url(#paint49_linear_409_3485)"/><path d="M137.583 237.26a1.792 1.792 0 012 1.584 1.792 1.792 0 01-1.585 2 1.794 1.794 0 01-2-1.585 1.793 1.793 0 011.585-1.999z" fill="url(#paint50_linear_409_3485)"/><path d="M205.21 203.749a1.794 1.794 0 012 1.585 1.793 1.793 0 01-1.586 1.999 1.792 1.792 0 01-1.999-1.585 1.791 1.791 0 011.585-1.999z" fill="url(#paint51_linear_409_3485)"/><path d="M304.39 190.822a1.793 1.793 0 012 1.584 1.793 1.793 0 01-1.585 2 1.793 1.793 0 01-2-1.585 1.791 1.791 0 011.585-1.999z" fill="url(#paint52_linear_409_3485)"/><path d="M16.315 183.832a1.793 1.793 0 012 1.585 1.792 1.792 0 01-1.585 1.999 1.793 1.793 0 01-2-1.585 1.792 1.792 0 011.585-1.999z" fill="url(#paint53_linear_409_3485)"/><path d="M69.542 149.478a1.792 1.792 0 012 1.584 1.791 1.791 0 01-1.585 1.999 1.8 1.8 0 01-2-1.584 1.8 1.8 0 011.585-1.999z" fill="url(#paint54_linear_409_3485)"/><path d="M185.137 132.951a3.614 3.614 0 11.814 7.182 3.612 3.612 0 01-3.999-3.183 3.613 3.613 0 013.185-3.999z" fill="url(#paint55_linear_409_3485)"/><path d="M188.203 171.231a.91.91 0 11-.8 1.007.911.911 0 01.8-1.007z" fill="url(#paint56_linear_409_3485)"/><path d="M85.986 133.174a1.792 1.792 0 012 1.584 1.792 1.792 0 01-1.585 1.999 1.792 1.792 0 01-2-1.584 1.79 1.79 0 011.585-1.999z" fill="url(#paint57_linear_409_3485)"/><path d="M54.24 250.306a1.792 1.792 0 012 1.584 1.79 1.79 0 01-1.586 1.999 1.792 1.792 0 01-2-1.584 1.792 1.792 0 011.585-1.999z" fill="url(#paint58_linear_409_3485)"/><path d="M34.033 187.431a1.792 1.792 0 012 1.584 1.791 1.791 0 01-1.585 1.999 1.792 1.792 0 01-2-1.584 1.792 1.792 0 011.585-1.999z" fill="url(#paint59_linear_409_3485)"/><path d="M137.702 146.175a1.802 1.802 0 012 1.585 1.793 1.793 0 01-1.585 1.999 1.791 1.791 0 01-2-1.584 1.792 1.792 0 011.585-2z" fill="url(#paint60_linear_409_3485)"/><path d="M93.897 96.094a1.792 1.792 0 012 1.584 1.792 1.792 0 01-1.586 2 1.792 1.792 0 01-2-1.585 1.792 1.792 0 011.585-2z" fill="url(#paint61_linear_409_3485)"/><path d="M80.43 114.234a.912.912 0 011.008.8.911.911 0 01-.8 1.007.912.912 0 01-1.007-.8.912.912 0 01.8-1.007z" fill="url(#paint62_linear_409_3485)"/><path d="M247 112.813a1.8 1.8 0 012 1.584 1.79 1.79 0 01-1.585 1.999 1.792 1.792 0 01-2-1.584 1.792 1.792 0 011.585-1.999z" fill="url(#paint63_linear_409_3485)"/><path d="M37.78 53.21a1.792 1.792 0 012 1.584 1.792 1.792 0 01-1.584 2 1.792 1.792 0 01-2-1.585 1.792 1.792 0 011.585-2z" fill="url(#paint64_linear_409_3485)"/></g><defs><linearGradient id="paint0_linear_409_3485" x1="289.661" y1="223.589" x2="-154.624" y2="280.497" gradientUnits="userSpaceOnUse"><stop stop-color="#C8A76E"/><stop offset=".14" stop-color="#F5ECB5"/><stop offset=".25" stop-color="#C8A76E"/><stop offset=".44" stop-color="#76593A"/><stop offset=".62" stop-color="#C8A76E"/><stop offset=".77" stop-color="#F5ECB5"/><stop offset=".9" stop-color="#C8A76E"/><stop offset="1" stop-color="#F5ECB5"/></linearGradient><linearGradient id="paint1_linear_409_3485" x1="366.055" y1="303.038" x2="-62.815" y2="105.676" gradientUnits="userSpaceOnUse"><stop stop-color="#C8A76E"/><stop offset=".14" stop-color="#F5ECB5"/><stop offset=".25" stop-color="#C8A76E"/><stop offset=".44" stop-color="#76593A"/><stop offset=".62" stop-color="#C8A76E"/><stop offset=".77" stop-color="#F5ECB5"/><stop offset=".9" stop-color="#C8A76E"/><stop offset="1" stop-color="#F5ECB5"/></linearGradient><linearGradient id="paint2_linear_409_3485" x1="146.668" y1="41.408" x2="-3.558" y2="283.513" gradientUnits="userSpaceOnUse"><stop stop-color="#76593A"/><stop offset=".15" stop-color="#C8A76E"/><stop offset=".29" stop-color="#F5ECB5"/><stop offset=".47" stop-color="#C8A76E"/><stop offset=".67" stop-color="#F5ECB5"/><stop offset=".81" stop-color="#C8A76E"/><stop offset="1" stop-color="#76593A"/></linearGradient><linearGradient id="paint3_linear_409_3485" x1="146.668" y1="41.408" x2="-3.558" y2="283.512" gradientUnits="userSpaceOnUse"><stop stop-color="#76593A"/><stop offset=".15" stop-color="#C8A76E"/><stop offset=".29" stop-color="#F5ECB5"/><stop offset=".47" stop-color="#C8A76E"/><stop offset=".67" stop-color="#F5ECB5"/><stop offset=".81" stop-color="#C8A76E"/><stop offset="1" stop-color="#76593A"/></linearGradient><linearGradient id="paint4_linear_409_3485" x1="146.668" y1="41.408" x2="-3.559" y2="283.512" gradientUnits="userSpaceOnUse"><stop stop-color="#76593A"/><stop offset=".15" stop-color="#C8A76E"/><stop offset=".29" stop-color="#F5ECB5"/><stop offset=".47" stop-color="#C8A76E"/><stop offset=".67" stop-color="#F5ECB5"/><stop offset=".81" stop-color="#C8A76E"/><stop offset="1" stop-color="#76593A"/></linearGradient><linearGradient id="paint5_linear_409_3485" x1="146.668" y1="41.408" x2="-3.558" y2="283.512" gradientUnits="userSpaceOnUse"><stop stop-color="#76593A"/><stop offset=".15" stop-color="#C8A76E"/><stop offset=".29" stop-color="#F5ECB5"/><stop offset=".47" stop-color="#C8A76E"/><stop offset=".67" stop-color="#F5ECB5"/><stop offset=".81" stop-color="#C8A76E"/><stop offset="1" stop-color="#76593A"/></linearGradient><linearGradient id="paint6_linear_409_3485" x1="146.668" y1="41.408" x2="-3.558" y2="283.512" gradientUnits="userSpaceOnUse"><stop stop-color="#76593A"/><stop offset=".15" stop-color="#C8A76E"/><stop offset=".29" stop-color="#F5ECB5"/><stop offset=".47" stop-color="#C8A76E"/><stop offset=".67" stop-color="#F5ECB5"/><stop offset=".81" stop-color="#C8A76E"/><stop offset="1" stop-color="#76593A"/></linearGradient><linearGradient id="paint7_linear_409_3485" x1="146.668" y1="41.408" x2="-3.558" y2="283.512" gradientUnits="userSpaceOnUse"><stop stop-color="#76593A"/><stop offset=".15" stop-color="#C8A76E"/><stop offset=".29" stop-color="#F5ECB5"/><stop offset=".47" stop-color="#C8A76E"/><stop offset=".67" stop-color="#F5ECB5"/><stop offset=".81" stop-color="#C8A76E"/><stop offset="1" stop-color="#76593A"/></linearGradient><linearGradient id="paint8_linear_409_3485" x1="146.668" y1="41.408" x2="-3.558" y2="283.514" gradientUnits="userSpaceOnUse"><stop stop-color="#76593A"/><stop offset=".15" stop-color="#C8A76E"/><stop offset=".29" stop-color="#F5ECB5"/><stop offset=".47" stop-color="#C8A76E"/><stop offset=".67" stop-color="#F5ECB5"/><stop offset=".81" stop-color="#C8A76E"/><stop offset="1" stop-color="#76593A"/></linearGradient><linearGradient id="paint9_linear_409_3485" x1="146.667" y1="41.408" x2="-3.559" y2="283.511" gradientUnits="userSpaceOnUse"><stop stop-color="#76593A"/><stop offset=".15" stop-color="#C8A76E"/><stop offset=".29" stop-color="#F5ECB5"/><stop offset=".47" stop-color="#C8A76E"/><stop offset=".67" stop-color="#F5ECB5"/><stop offset=".81" stop-color="#C8A76E"/><stop offset="1" stop-color="#76593A"/></linearGradient><linearGradient id="paint10_linear_409_3485" x1="146.668" y1="41.408" x2="-3.559" y2="283.512" gradientUnits="userSpaceOnUse"><stop stop-color="#76593A"/><stop offset=".15" stop-color="#C8A76E"/><stop offset=".29" stop-color="#F5ECB5"/><stop offset=".47" stop-color="#C8A76E"/><stop offset=".67" stop-color="#F5ECB5"/><stop offset=".81" stop-color="#C8A76E"/><stop offset="1" stop-color="#76593A"/></linearGradient><linearGradient id="paint11_linear_409_3485" x1="146.667" y1="41.408" x2="-3.559" y2="283.511" gradientUnits="userSpaceOnUse"><stop stop-color="#76593A"/><stop offset=".15" stop-color="#C8A76E"/><stop offset=".29" stop-color="#F5ECB5"/><stop offset=".47" stop-color="#C8A76E"/><stop offset=".67" stop-color="#F5ECB5"/><stop offset=".81" stop-color="#C8A76E"/><stop offset="1" stop-color="#76593A"/></linearGradient><linearGradient id="paint12_linear_409_3485" x1="146.669" y1="41.407" x2="-3.557" y2="283.514" gradientUnits="userSpaceOnUse"><stop stop-color="#76593A"/><stop offset=".15" stop-color="#C8A76E"/><stop offset=".29" stop-color="#F5ECB5"/><stop offset=".47" stop-color="#C8A76E"/><stop offset=".67" stop-color="#F5ECB5"/><stop offset=".81" stop-color="#C8A76E"/><stop offset="1" stop-color="#76593A"/></linearGradient><linearGradient id="paint13_linear_409_3485" x1="146.668" y1="41.408" x2="-3.559" y2="283.51" gradientUnits="userSpaceOnUse"><stop stop-color="#76593A"/><stop offset=".15" stop-color="#C8A76E"/><stop offset=".29" stop-color="#F5ECB5"/><stop offset=".47" stop-color="#C8A76E"/><stop offset=".67" stop-color="#F5ECB5"/><stop offset=".81" stop-color="#C8A76E"/><stop offset="1" stop-color="#76593A"/></linearGradient><linearGradient id="paint14_linear_409_3485" x1="146.668" y1="41.408" x2="-3.558" y2="283.512" gradientUnits="userSpaceOnUse"><stop stop-color="#76593A"/><stop offset=".15" stop-color="#C8A76E"/><stop offset=".29" stop-color="#F5ECB5"/><stop offset=".47" stop-color="#C8A76E"/><stop offset=".67" stop-color="#F5ECB5"/><stop offset=".81" stop-color="#C8A76E"/><stop offset="1" stop-color="#76593A"/></linearGradient><linearGradient id="paint15_linear_409_3485" x1="146.668" y1="41.409" x2="-3.557" y2="283.512" gradientUnits="userSpaceOnUse"><stop stop-color="#76593A"/><stop offset=".15" stop-color="#C8A76E"/><stop offset=".29" stop-color="#F5ECB5"/><stop offset=".47" stop-color="#C8A76E"/><stop offset=".67" stop-color="#F5ECB5"/><stop offset=".81" stop-color="#C8A76E"/><stop offset="1" stop-color="#76593A"/></linearGradient><linearGradient id="paint16_linear_409_3485" x1="146.667" y1="41.409" x2="-3.557" y2="283.513" gradientUnits="userSpaceOnUse"><stop stop-color="#76593A"/><stop offset=".15" stop-color="#C8A76E"/><stop offset=".29" stop-color="#F5ECB5"/><stop offset=".47" stop-color="#C8A76E"/><stop offset=".67" stop-color="#F5ECB5"/><stop offset=".81" stop-color="#C8A76E"/><stop offset="1" stop-color="#76593A"/></linearGradient><linearGradient id="paint17_linear_409_3485" x1="146.668" y1="41.408" x2="-3.558" y2="283.512" gradientUnits="userSpaceOnUse"><stop stop-color="#76593A"/><stop offset=".15" stop-color="#C8A76E"/><stop offset=".29" stop-color="#F5ECB5"/><stop offset=".47" stop-color="#C8A76E"/><stop offset=".67" stop-color="#F5ECB5"/><stop offset=".81" stop-color="#C8A76E"/><stop offset="1" stop-color="#76593A"/></linearGradient><linearGradient id="paint18_linear_409_3485" x1="146.667" y1="41.408" x2="-3.559" y2="283.511" gradientUnits="userSpaceOnUse"><stop stop-color="#76593A"/><stop offset=".15" stop-color="#C8A76E"/><stop offset=".29" stop-color="#F5ECB5"/><stop offset=".47" stop-color="#C8A76E"/><stop offset=".67" stop-color="#F5ECB5"/><stop offset=".81" stop-color="#C8A76E"/><stop offset="1" stop-color="#76593A"/></linearGradient><linearGradient id="paint19_linear_409_3485" x1="146.668" y1="41.408" x2="-3.558" y2="283.512" gradientUnits="userSpaceOnUse"><stop stop-color="#76593A"/><stop offset=".15" stop-color="#C8A76E"/><stop offset=".29" stop-color="#F5ECB5"/><stop offset=".47" stop-color="#C8A76E"/><stop offset=".67" stop-color="#F5ECB5"/><stop offset=".81" stop-color="#C8A76E"/><stop offset="1" stop-color="#76593A"/></linearGradient><linearGradient id="paint20_linear_409_3485" x1="146.668" y1="41.408" x2="-3.559" y2="283.511" gradientUnits="userSpaceOnUse"><stop stop-color="#76593A"/><stop offset=".15" stop-color="#C8A76E"/><stop offset=".29" stop-color="#F5ECB5"/><stop offset=".47" stop-color="#C8A76E"/><stop offset=".67" stop-color="#F5ECB5"/><stop offset=".81" stop-color="#C8A76E"/><stop offset="1" stop-color="#76593A"/></linearGradient><linearGradient id="paint21_linear_409_3485" x1="146.668" y1="41.408" x2="-3.558" y2="283.512" gradientUnits="userSpaceOnUse"><stop stop-color="#76593A"/><stop offset=".15" stop-color="#C8A76E"/><stop offset=".29" stop-color="#F5ECB5"/><stop offset=".47" stop-color="#C8A76E"/><stop offset=".67" stop-color="#F5ECB5"/><stop offset=".81" stop-color="#C8A76E"/><stop offset="1" stop-color="#76593A"/></linearGradient><linearGradient id="paint22_linear_409_3485" x1="146.668" y1="41.408" x2="-3.558" y2="283.512" gradientUnits="userSpaceOnUse"><stop stop-color="#76593A"/><stop offset=".15" stop-color="#C8A76E"/><stop offset=".29" stop-color="#F5ECB5"/><stop offset=".47" stop-color="#C8A76E"/><stop offset=".67" stop-color="#F5ECB5"/><stop offset=".81" stop-color="#C8A76E"/><stop offset="1" stop-color="#76593A"/></linearGradient><linearGradient id="paint23_linear_409_3485" x1="146.668" y1="41.408" x2="-3.558" y2="283.512" gradientUnits="userSpaceOnUse"><stop stop-color="#76593A"/><stop offset=".15" stop-color="#C8A76E"/><stop offset=".29" stop-color="#F5ECB5"/><stop offset=".47" stop-color="#C8A76E"/><stop offset=".67" stop-color="#F5ECB5"/><stop offset=".81" stop-color="#C8A76E"/><stop offset="1" stop-color="#76593A"/></linearGradient><linearGradient id="paint24_linear_409_3485" x1="146.668" y1="41.408" x2="-3.558" y2="283.512" gradientUnits="userSpaceOnUse"><stop stop-color="#76593A"/><stop offset=".15" stop-color="#C8A76E"/><stop offset=".29" stop-color="#F5ECB5"/><stop offset=".47" stop-color="#C8A76E"/><stop offset=".67" stop-color="#F5ECB5"/><stop offset=".81" stop-color="#C8A76E"/><stop offset="1" stop-color="#76593A"/></linearGradient><linearGradient id="paint25_linear_409_3485" x1="146.668" y1="41.408" x2="-3.559" y2="283.512" gradientUnits="userSpaceOnUse"><stop stop-color="#76593A"/><stop offset=".15" stop-color="#C8A76E"/><stop offset=".29" stop-color="#F5ECB5"/><stop offset=".47" stop-color="#C8A76E"/><stop offset=".67" stop-color="#F5ECB5"/><stop offset=".81" stop-color="#C8A76E"/><stop offset="1" stop-color="#76593A"/></linearGradient><linearGradient id="paint26_linear_409_3485" x1="146.668" y1="41.408" x2="-3.558" y2="283.512" gradientUnits="userSpaceOnUse"><stop stop-color="#76593A"/><stop offset=".15" stop-color="#C8A76E"/><stop offset=".29" stop-color="#F5ECB5"/><stop offset=".47" stop-color="#C8A76E"/><stop offset=".67" stop-color="#F5ECB5"/><stop offset=".81" stop-color="#C8A76E"/><stop offset="1" stop-color="#76593A"/></linearGradient><linearGradient id="paint27_linear_409_3485" x1="146.668" y1="41.408" x2="-3.558" y2="283.512" gradientUnits="userSpaceOnUse"><stop stop-color="#76593A"/><stop offset=".15" stop-color="#C8A76E"/><stop offset=".29" stop-color="#F5ECB5"/><stop offset=".47" stop-color="#C8A76E"/><stop offset=".67" stop-color="#F5ECB5"/><stop offset=".81" stop-color="#C8A76E"/><stop offset="1" stop-color="#76593A"/></linearGradient><linearGradient id="paint28_linear_409_3485" x1="146.668" y1="41.408" x2="-3.559" y2="283.512" gradientUnits="userSpaceOnUse"><stop stop-color="#76593A"/><stop offset=".15" stop-color="#C8A76E"/><stop offset=".29" stop-color="#F5ECB5"/><stop offset=".47" stop-color="#C8A76E"/><stop offset=".67" stop-color="#F5ECB5"/><stop offset=".81" stop-color="#C8A76E"/><stop offset="1" stop-color="#76593A"/></linearGradient><linearGradient id="paint29_linear_409_3485" x1="146.668" y1="41.408" x2="-3.558" y2="283.512" gradientUnits="userSpaceOnUse"><stop stop-color="#76593A"/><stop offset=".15" stop-color="#C8A76E"/><stop offset=".29" stop-color="#F5ECB5"/><stop offset=".47" stop-color="#C8A76E"/><stop offset=".67" stop-color="#F5ECB5"/><stop offset=".81" stop-color="#C8A76E"/><stop offset="1" stop-color="#76593A"/></linearGradient><linearGradient id="paint30_linear_409_3485" x1="146.668" y1="41.408" x2="-3.559" y2="283.512" gradientUnits="userSpaceOnUse"><stop stop-color="#76593A"/><stop offset=".15" stop-color="#C8A76E"/><stop offset=".29" stop-color="#F5ECB5"/><stop offset=".47" stop-color="#C8A76E"/><stop offset=".67" stop-color="#F5ECB5"/><stop offset=".81" stop-color="#C8A76E"/><stop offset="1" stop-color="#76593A"/></linearGradient><linearGradient id="paint31_linear_409_3485" x1="146.668" y1="41.408" x2="-3.558" y2="283.512" gradientUnits="userSpaceOnUse"><stop stop-color="#76593A"/><stop offset=".15" stop-color="#C8A76E"/><stop offset=".29" stop-color="#F5ECB5"/><stop offset=".47" stop-color="#C8A76E"/><stop offset=".67" stop-color="#F5ECB5"/><stop offset=".81" stop-color="#C8A76E"/><stop offset="1" stop-color="#76593A"/></linearGradient><linearGradient id="paint32_linear_409_3485" x1="146.668" y1="41.408" x2="-3.558" y2="283.512" gradientUnits="userSpaceOnUse"><stop stop-color="#76593A"/><stop offset=".15" stop-color="#C8A76E"/><stop offset=".29" stop-color="#F5ECB5"/><stop offset=".47" stop-color="#C8A76E"/><stop offset=".67" stop-color="#F5ECB5"/><stop offset=".81" stop-color="#C8A76E"/><stop offset="1" stop-color="#76593A"/></linearGradient><linearGradient id="paint33_linear_409_3485" x1="146.669" y1="41.407" x2="-3.559" y2="283.515" gradientUnits="userSpaceOnUse"><stop stop-color="#76593A"/><stop offset=".15" stop-color="#C8A76E"/><stop offset=".29" stop-color="#F5ECB5"/><stop offset=".47" stop-color="#C8A76E"/><stop offset=".67" stop-color="#F5ECB5"/><stop offset=".81" stop-color="#C8A76E"/><stop offset="1" stop-color="#76593A"/></linearGradient><linearGradient id="paint34_linear_409_3485" x1="146.668" y1="41.407" x2="-3.562" y2="283.512" gradientUnits="userSpaceOnUse"><stop stop-color="#76593A"/><stop offset=".15" stop-color="#C8A76E"/><stop offset=".29" stop-color="#F5ECB5"/><stop offset=".47" stop-color="#C8A76E"/><stop offset=".67" stop-color="#F5ECB5"/><stop offset=".81" stop-color="#C8A76E"/><stop offset="1" stop-color="#76593A"/></linearGradient><linearGradient id="paint35_linear_409_3485" x1="146.668" y1="41.408" x2="-3.558" y2="283.512" gradientUnits="userSpaceOnUse"><stop stop-color="#76593A"/><stop offset=".15" stop-color="#C8A76E"/><stop offset=".29" stop-color="#F5ECB5"/><stop offset=".47" stop-color="#C8A76E"/><stop offset=".67" stop-color="#F5ECB5"/><stop offset=".81" stop-color="#C8A76E"/><stop offset="1" stop-color="#76593A"/></linearGradient><linearGradient id="paint36_linear_409_3485" x1="146.668" y1="41.408" x2="-3.559" y2="283.512" gradientUnits="userSpaceOnUse"><stop stop-color="#76593A"/><stop offset=".15" stop-color="#C8A76E"/><stop offset=".29" stop-color="#F5ECB5"/><stop offset=".47" stop-color="#C8A76E"/><stop offset=".67" stop-color="#F5ECB5"/><stop offset=".81" stop-color="#C8A76E"/><stop offset="1" stop-color="#76593A"/></linearGradient><linearGradient id="paint37_linear_409_3485" x1="146.668" y1="41.408" x2="-3.558" y2="283.512" gradientUnits="userSpaceOnUse"><stop stop-color="#76593A"/><stop offset=".15" stop-color="#C8A76E"/><stop offset=".29" stop-color="#F5ECB5"/><stop offset=".47" stop-color="#C8A76E"/><stop offset=".67" stop-color="#F5ECB5"/><stop offset=".81" stop-color="#C8A76E"/><stop offset="1" stop-color="#76593A"/></linearGradient><linearGradient id="paint38_linear_409_3485" x1="146.668" y1="41.409" x2="-3.556" y2="283.512" gradientUnits="userSpaceOnUse"><stop stop-color="#76593A"/><stop offset=".15" stop-color="#C8A76E"/><stop offset=".29" stop-color="#F5ECB5"/><stop offset=".47" stop-color="#C8A76E"/><stop offset=".67" stop-color="#F5ECB5"/><stop offset=".81" stop-color="#C8A76E"/><stop offset="1" stop-color="#76593A"/></linearGradient><linearGradient id="paint39_linear_409_3485" x1="146.667" y1="41.408" x2="-3.56" y2="283.511" gradientUnits="userSpaceOnUse"><stop stop-color="#76593A"/><stop offset=".15" stop-color="#C8A76E"/><stop offset=".29" stop-color="#F5ECB5"/><stop offset=".47" stop-color="#C8A76E"/><stop offset=".67" stop-color="#F5ECB5"/><stop offset=".81" stop-color="#C8A76E"/><stop offset="1" stop-color="#76593A"/></linearGradient><linearGradient id="paint40_linear_409_3485" x1="146.667" y1="41.408" x2="-3.558" y2="283.513" gradientUnits="userSpaceOnUse"><stop stop-color="#76593A"/><stop offset=".15" stop-color="#C8A76E"/><stop offset=".29" stop-color="#F5ECB5"/><stop offset=".47" stop-color="#C8A76E"/><stop offset=".67" stop-color="#F5ECB5"/><stop offset=".81" stop-color="#C8A76E"/><stop offset="1" stop-color="#76593A"/></linearGradient><linearGradient id="paint41_linear_409_3485" x1="146.668" y1="41.408" x2="-3.559" y2="283.511" gradientUnits="userSpaceOnUse"><stop stop-color="#76593A"/><stop offset=".15" stop-color="#C8A76E"/><stop offset=".29" stop-color="#F5ECB5"/><stop offset=".47" stop-color="#C8A76E"/><stop offset=".67" stop-color="#F5ECB5"/><stop offset=".81" stop-color="#C8A76E"/><stop offset="1" stop-color="#76593A"/></linearGradient><linearGradient id="paint42_linear_409_3485" x1="146.668" y1="41.408" x2="-3.557" y2="283.511" gradientUnits="userSpaceOnUse"><stop stop-color="#76593A"/><stop offset=".15" stop-color="#C8A76E"/><stop offset=".29" stop-color="#F5ECB5"/><stop offset=".47" stop-color="#C8A76E"/><stop offset=".67" stop-color="#F5ECB5"/><stop offset=".81" stop-color="#C8A76E"/><stop offset="1" stop-color="#76593A"/></linearGradient><linearGradient id="paint43_linear_409_3485" x1="146.668" y1="41.408" x2="-3.556" y2="283.512" gradientUnits="userSpaceOnUse"><stop stop-color="#76593A"/><stop offset=".15" stop-color="#C8A76E"/><stop offset=".29" stop-color="#F5ECB5"/><stop offset=".47" stop-color="#C8A76E"/><stop offset=".67" stop-color="#F5ECB5"/><stop offset=".81" stop-color="#C8A76E"/><stop offset="1" stop-color="#76593A"/></linearGradient><linearGradient id="paint44_linear_409_3485" x1="146.668" y1="41.408" x2="-3.558" y2="283.512" gradientUnits="userSpaceOnUse"><stop stop-color="#76593A"/><stop offset=".15" stop-color="#C8A76E"/><stop offset=".29" stop-color="#F5ECB5"/><stop offset=".47" stop-color="#C8A76E"/><stop offset=".67" stop-color="#F5ECB5"/><stop offset=".81" stop-color="#C8A76E"/><stop offset="1" stop-color="#76593A"/></linearGradient><linearGradient id="paint45_linear_409_3485" x1="146.668" y1="41.408" x2="-3.558" y2="283.512" gradientUnits="userSpaceOnUse"><stop stop-color="#76593A"/><stop offset=".15" stop-color="#C8A76E"/><stop offset=".29" stop-color="#F5ECB5"/><stop offset=".47" stop-color="#C8A76E"/><stop offset=".67" stop-color="#F5ECB5"/><stop offset=".81" stop-color="#C8A76E"/><stop offset="1" stop-color="#76593A"/></linearGradient><linearGradient id="paint46_linear_409_3485" x1="146.668" y1="41.408" x2="-3.559" y2="283.512" gradientUnits="userSpaceOnUse"><stop stop-color="#76593A"/><stop offset=".15" stop-color="#C8A76E"/><stop offset=".29" stop-color="#F5ECB5"/><stop offset=".47" stop-color="#C8A76E"/><stop offset=".67" stop-color="#F5ECB5"/><stop offset=".81" stop-color="#C8A76E"/><stop offset="1" stop-color="#76593A"/></linearGradient><linearGradient id="paint47_linear_409_3485" x1="146.667" y1="41.408" x2="-3.558" y2="283.511" gradientUnits="userSpaceOnUse"><stop stop-color="#76593A"/><stop offset=".15" stop-color="#C8A76E"/><stop offset=".29" stop-color="#F5ECB5"/><stop offset=".47" stop-color="#C8A76E"/><stop offset=".67" stop-color="#F5ECB5"/><stop offset=".81" stop-color="#C8A76E"/><stop offset="1" stop-color="#76593A"/></linearGradient><linearGradient id="paint48_linear_409_3485" x1="146.668" y1="41.408" x2="-3.558" y2="283.513" gradientUnits="userSpaceOnUse"><stop stop-color="#76593A"/><stop offset=".15" stop-color="#C8A76E"/><stop offset=".29" stop-color="#F5ECB5"/><stop offset=".47" stop-color="#C8A76E"/><stop offset=".67" stop-color="#F5ECB5"/><stop offset=".81" stop-color="#C8A76E"/><stop offset="1" stop-color="#76593A"/></linearGradient><linearGradient id="paint49_linear_409_3485" x1="146.667" y1="41.407" x2="-3.561" y2="283.511" gradientUnits="userSpaceOnUse"><stop stop-color="#76593A"/><stop offset=".15" stop-color="#C8A76E"/><stop offset=".29" stop-color="#F5ECB5"/><stop offset=".47" stop-color="#C8A76E"/><stop offset=".67" stop-color="#F5ECB5"/><stop offset=".81" stop-color="#C8A76E"/><stop offset="1" stop-color="#76593A"/></linearGradient><linearGradient id="paint50_linear_409_3485" x1="146.668" y1="41.408" x2="-3.558" y2="283.513" gradientUnits="userSpaceOnUse"><stop stop-color="#76593A"/><stop offset=".15" stop-color="#C8A76E"/><stop offset=".29" stop-color="#F5ECB5"/><stop offset=".47" stop-color="#C8A76E"/><stop offset=".67" stop-color="#F5ECB5"/><stop offset=".81" stop-color="#C8A76E"/><stop offset="1" stop-color="#76593A"/></linearGradient><linearGradient id="paint51_linear_409_3485" x1="146.667" y1="41.408" x2="-3.558" y2="283.513" gradientUnits="userSpaceOnUse"><stop stop-color="#76593A"/><stop offset=".15" stop-color="#C8A76E"/><stop offset=".29" stop-color="#F5ECB5"/><stop offset=".47" stop-color="#C8A76E"/><stop offset=".67" stop-color="#F5ECB5"/><stop offset=".81" stop-color="#C8A76E"/><stop offset="1" stop-color="#76593A"/></linearGradient><linearGradient id="paint52_linear_409_3485" x1="146.668" y1="41.408" x2="-3.558" y2="283.512" gradientUnits="userSpaceOnUse"><stop stop-color="#76593A"/><stop offset=".15" stop-color="#C8A76E"/><stop offset=".29" stop-color="#F5ECB5"/><stop offset=".47" stop-color="#C8A76E"/><stop offset=".67" stop-color="#F5ECB5"/><stop offset=".81" stop-color="#C8A76E"/><stop offset="1" stop-color="#76593A"/></linearGradient><linearGradient id="paint53_linear_409_3485" x1="146.667" y1="41.408" x2="-3.559" y2="283.511" gradientUnits="userSpaceOnUse"><stop stop-color="#76593A"/><stop offset=".15" stop-color="#C8A76E"/><stop offset=".29" stop-color="#F5ECB5"/><stop offset=".47" stop-color="#C8A76E"/><stop offset=".67" stop-color="#F5ECB5"/><stop offset=".81" stop-color="#C8A76E"/><stop offset="1" stop-color="#76593A"/></linearGradient><linearGradient id="paint54_linear_409_3485" x1="146.667" y1="41.408" x2="-3.559" y2="283.511" gradientUnits="userSpaceOnUse"><stop stop-color="#76593A"/><stop offset=".15" stop-color="#C8A76E"/><stop offset=".29" stop-color="#F5ECB5"/><stop offset=".47" stop-color="#C8A76E"/><stop offset=".67" stop-color="#F5ECB5"/><stop offset=".81" stop-color="#C8A76E"/><stop offset="1" stop-color="#76593A"/></linearGradient><linearGradient id="paint55_linear_409_3485" x1="146.668" y1="41.408" x2="-3.559" y2="283.512" gradientUnits="userSpaceOnUse"><stop stop-color="#76593A"/><stop offset=".15" stop-color="#C8A76E"/><stop offset=".29" stop-color="#F5ECB5"/><stop offset=".47" stop-color="#C8A76E"/><stop offset=".67" stop-color="#F5ECB5"/><stop offset=".81" stop-color="#C8A76E"/><stop offset="1" stop-color="#76593A"/></linearGradient><linearGradient id="paint56_linear_409_3485" x1="146.668" y1="41.408" x2="-3.558" y2="283.512" gradientUnits="userSpaceOnUse"><stop stop-color="#76593A"/><stop offset=".15" stop-color="#C8A76E"/><stop offset=".29" stop-color="#F5ECB5"/><stop offset=".47" stop-color="#C8A76E"/><stop offset=".67" stop-color="#F5ECB5"/><stop offset=".81" stop-color="#C8A76E"/><stop offset="1" stop-color="#76593A"/></linearGradient><linearGradient id="paint57_linear_409_3485" x1="146.667" y1="41.407" x2="-3.56" y2="283.511" gradientUnits="userSpaceOnUse"><stop stop-color="#76593A"/><stop offset=".15" stop-color="#C8A76E"/><stop offset=".29" stop-color="#F5ECB5"/><stop offset=".47" stop-color="#C8A76E"/><stop offset=".67" stop-color="#F5ECB5"/><stop offset=".81" stop-color="#C8A76E"/><stop offset="1" stop-color="#76593A"/></linearGradient><linearGradient id="paint58_linear_409_3485" x1="146.668" y1="41.408" x2="-3.557" y2="283.513" gradientUnits="userSpaceOnUse"><stop stop-color="#76593A"/><stop offset=".15" stop-color="#C8A76E"/><stop offset=".29" stop-color="#F5ECB5"/><stop offset=".47" stop-color="#C8A76E"/><stop offset=".67" stop-color="#F5ECB5"/><stop offset=".81" stop-color="#C8A76E"/><stop offset="1" stop-color="#76593A"/></linearGradient><linearGradient id="paint59_linear_409_3485" x1="146.667" y1="41.407" x2="-3.561" y2="283.511" gradientUnits="userSpaceOnUse"><stop stop-color="#76593A"/><stop offset=".15" stop-color="#C8A76E"/><stop offset=".29" stop-color="#F5ECB5"/><stop offset=".47" stop-color="#C8A76E"/><stop offset=".67" stop-color="#F5ECB5"/><stop offset=".81" stop-color="#C8A76E"/><stop offset="1" stop-color="#76593A"/></linearGradient><linearGradient id="paint60_linear_409_3485" x1="146.668" y1="41.408" x2="-3.559" y2="283.513" gradientUnits="userSpaceOnUse"><stop stop-color="#76593A"/><stop offset=".15" stop-color="#C8A76E"/><stop offset=".29" stop-color="#F5ECB5"/><stop offset=".47" stop-color="#C8A76E"/><stop offset=".67" stop-color="#F5ECB5"/><stop offset=".81" stop-color="#C8A76E"/><stop offset="1" stop-color="#76593A"/></linearGradient><linearGradient id="paint61_linear_409_3485" x1="146.667" y1="41.407" x2="-3.56" y2="283.511" gradientUnits="userSpaceOnUse"><stop stop-color="#76593A"/><stop offset=".15" stop-color="#C8A76E"/><stop offset=".29" stop-color="#F5ECB5"/><stop offset=".47" stop-color="#C8A76E"/><stop offset=".67" stop-color="#F5ECB5"/><stop offset=".81" stop-color="#C8A76E"/><stop offset="1" stop-color="#76593A"/></linearGradient><linearGradient id="paint62_linear_409_3485" x1="146.668" y1="41.408" x2="-3.558" y2="283.512" gradientUnits="userSpaceOnUse"><stop stop-color="#76593A"/><stop offset=".15" stop-color="#C8A76E"/><stop offset=".29" stop-color="#F5ECB5"/><stop offset=".47" stop-color="#C8A76E"/><stop offset=".67" stop-color="#F5ECB5"/><stop offset=".81" stop-color="#C8A76E"/><stop offset="1" stop-color="#76593A"/></linearGradient><linearGradient id="paint63_linear_409_3485" x1="146.668" y1="41.408" x2="-3.559" y2="283.512" gradientUnits="userSpaceOnUse"><stop stop-color="#76593A"/><stop offset=".15" stop-color="#C8A76E"/><stop offset=".29" stop-color="#F5ECB5"/><stop offset=".47" stop-color="#C8A76E"/><stop offset=".67" stop-color="#F5ECB5"/><stop offset=".81" stop-color="#C8A76E"/><stop offset="1" stop-color="#76593A"/></linearGradient><linearGradient id="paint64_linear_409_3485" x1="146.667" y1="41.408" x2="-3.561" y2="283.511" gradientUnits="userSpaceOnUse"><stop stop-color="#76593A"/><stop offset=".15" stop-color="#C8A76E"/><stop offset=".29" stop-color="#F5ECB5"/><stop offset=".47" stop-color="#C8A76E"/><stop offset=".67" stop-color="#F5ECB5"/><stop offset=".81" stop-color="#C8A76E"/><stop offset="1" stop-color="#76593A"/></linearGradient><clipPath id="clip0_409_3485"><path fill="#fff" transform="rotate(-180 254.5 246)" d="M0 0h753v492H0z"/></clipPath></defs></svg>