<svg width="280" height="63" fill="none" xmlns="http://www.w3.org/2000/svg"><path d="M90.87 60.397h-1.76v-3.56h-1.065v-1.179h1.064V52.18h1.727a9.5 9.5 0 011.22.058c.434.057.827.147 1.195.286.368.131.712.336 1.031.614.434.368.786.851 1.04 1.44.123.287.212.565.278.86a4.228 4.228 0 01-.286 2.612 3.963 3.963 0 01-1.032 1.415 3.86 3.86 0 01-1.047.622 5.363 5.363 0 01-1.146.27c-.14.017-.32.025-.54.041-.222.008-.45.017-.688.017m1.056-4.74v1.18h-1.285v2.078h.188c.663 0 1.17-.049 1.522-.147.303-.082.582-.221.835-.41.32-.245.557-.548.729-.9a2.55 2.55 0 00.262-1.138c0-.433-.09-.843-.279-1.236a2.322 2.322 0 00-.81-.94c-.295-.205-.671-.345-1.121-.418a8.105 8.105 0 00-1.212-.074h-.106v2.005h1.285-.008zm11.074-1.441v6.171h-1.359v-.834c-.229.31-.54.556-.941.753a2.713 2.713 0 01-1.179.286c-.474 0-.9-.09-1.276-.262a2.897 2.897 0 01-.99-.77 3.322 3.322 0 01-.574-1.03 3.589 3.589 0 01-.204-1.212c0-.442.057-.843.18-1.203.122-.36.327-.696.614-1.015.31-.36.654-.63 1.039-.802a3.037 3.037 0 011.252-.262 2.44 2.44 0 012.07 1.064v-.868h1.36l.008-.016zm-1.408 3.077c0-.523-.163-.957-.491-1.31-.327-.343-.753-.515-1.285-.515-.532 0-.974.18-1.326.532-.352.352-.524.81-.524 1.35 0 .5.18.926.532 1.27.352.343.786.515 1.293.515.508 0 .958-.172 1.294-.524.335-.343.507-.785.507-1.326m-2.725-3.724l-.557-1.023 2.505-1.481.597 1.154-2.537 1.35h-.008zm12.768 4.813h1.67a2.972 2.972 0 01-1.154 1.588 3.205 3.205 0 01-1.899.614 3.28 3.28 0 01-1.228-.246 3.252 3.252 0 01-1.064-.68 3.3 3.3 0 01-.753-1.088 3.333 3.333 0 01-.254-1.31c0-.892.32-1.653.966-2.291a3.208 3.208 0 012.325-.95 3.24 3.24 0 011.907.622c.589.418.982.958 1.162 1.62h-1.67c-.319-.531-.794-.801-1.424-.801-.524 0-.949.172-1.285.516-.335.343-.499.777-.499 1.3 0 .525.172.991.524 1.335.352.352.794.524 1.334.524.278 0 .532-.066.761-.205.229-.13.426-.319.581-.556m2.709 2.013V52.18h1.482v2.52c.147-.212.376-.376.687-.49a2.389 2.389 0 011.899.05c.328.146.598.35.811.596.188.213.327.475.434.786.049.155.09.352.114.58.025.23.041.508.041.844v3.34h-1.481v-3.013c0-.753-.115-1.268-.344-1.547-.205-.237-.508-.36-.917-.36-.442 0-.778.18-1.007.532-.098.156-.163.385-.204.68a7.694 7.694 0 00-.025.712v2.995h-1.481l-.009-.008zm9.732-6.36c.893 0 1.654.32 2.292.966.311.32.549.68.704 1.056.156.385.238.81.238 1.269a3.13 3.13 0 01-.966 2.316 3.198 3.198 0 01-2.325.958c-.9 0-1.653-.32-2.3-.958a3.138 3.138 0 01-.966-2.308 3.2 3.2 0 01.974-2.333c.647-.638 1.433-.957 2.358-.957m-.066 1.448a1.623 1.623 0 00-.687.164c-.221.098-.418.23-.59.401-.163.172-.294.36-.376.59a1.85 1.85 0 00-.131.703c0 .508.172.933.515 1.294.344.36.77.532 1.269.532a1.773 1.773 0 001.809-1.826c0-.515-.18-.95-.532-1.31a1.725 1.725 0 00-1.285-.54m7.244 4.895V52.18h1.481v4.96l1.981-2.905h1.743l-2.226 3.012 2.595 3.151h-1.981l-2.112-2.88v2.88h-1.481zm6.458 0V52.18h1.481v2.52c.156-.212.377-.376.688-.49a2.397 2.397 0 011.899.05c.327.146.597.35.818.596.188.213.327.475.434.786.049.155.09.352.114.58.025.23.041.508.041.844v3.34h-1.481v-3.013c0-.753-.115-1.268-.352-1.547-.205-.237-.507-.36-.909-.36-.442 0-.777.18-1.015.532-.098.156-.163.385-.204.68a7.694 7.694 0 00-.025.712v2.995h-1.481l-.008-.008zm9.74-6.36c.892 0 1.653.32 2.292.966.311.32.548.68.704 1.056.155.385.237.81.237 1.269 0 .908-.319 1.678-.966 2.316a3.196 3.196 0 01-2.324.958c-.901 0-1.654-.32-2.3-.958a3.134 3.134 0 01-.966-2.308c0-.892.327-1.694.974-2.333.646-.638 1.432-.957 2.357-.957m-2.284-.54l1.646-1.531h1.17l1.629 1.53H148l-.597-.712-.614.712h-1.621zm2.219 1.98a1.632 1.632 0 00-.688.164 1.938 1.938 0 00-.589.4 1.665 1.665 0 00-.377.59c-.09.221-.131.459-.131.704 0 .508.172.933.516 1.293.344.36.769.532 1.269.532a1.773 1.773 0 001.808-1.825c0-.516-.18-.95-.532-1.31a1.724 1.724 0 00-1.285-.54m4.126 4.903v-6.163h1.366v.573c.189-.246.442-.442.745-.573.303-.131.622-.197.966-.197s.647.066.958.197c.311.13.581.32.802.565l.09.09s.041.04.065.09c.213.294.352.646.426 1.064.041.262.066.646.066 1.154v3.192h-1.482v-3.356a1.51 1.51 0 00-.024-.32c-.033-.302-.107-.531-.221-.703a1.083 1.083 0 00-.434-.401c-.18-.09-.369-.14-.557-.14-.188 0-.393.05-.589.148a1.11 1.11 0 00-.45.393 1.55 1.55 0 00-.197.598c-.016.122-.024.237-.033.36 0 .122-.008.262-.008.433v2.98h-1.481l-.008.016zm11.516-6.163h1.359v5.23c0 .5-.058.925-.18 1.285a2.904 2.904 0 01-.68 1.097 3.425 3.425 0 01-1.129.786 3.297 3.297 0 01-1.326.278 3.383 3.383 0 01-1.858-.557 2.964 2.964 0 01-1.204-1.481h1.678c.156.172.369.311.631.425.262.115.507.172.753.172.245 0 .499-.04.745-.13.245-.09.458-.213.638-.385.155-.14.278-.295.36-.459.082-.163.156-.482.237-.94-.27.343-.564.597-.867.769-.344.196-.72.294-1.122.294-.376 0-.769-.09-1.17-.262a3.288 3.288 0 01-1.031-.704 3.368 3.368 0 01-.688-1.096 4.727 4.727 0 01-.172-.639 3.529 3.529 0 01-.057-.671 3.2 3.2 0 01.213-1.146 3.208 3.208 0 011.653-1.776 3.012 3.012 0 011.293-.278c.426 0 .803.081 1.13.253.352.18.63.442.818.794v-.85l-.024-.01zm-.033 3.11c0-.532-.172-.974-.524-1.326-.352-.352-.785-.532-1.326-.532-.221 0-.45.05-.671.14a1.82 1.82 0 00-.589.409c-.156.163-.278.36-.368.573a2.01 2.01 0 00-.115.687c0 .532.18.982.532 1.334.352.352.794.532 1.326.532.475 0 .884-.18 1.228-.54.335-.36.507-.786.507-1.277zm10.493-3.11h1.359v5.23c0 .5-.057.925-.18 1.285a2.913 2.913 0 01-.679 1.097 3.43 3.43 0 01-1.13.786 3.297 3.297 0 01-1.326.278 3.383 3.383 0 01-1.858-.557 2.957 2.957 0 01-1.203-1.481h1.678c.164.172.368.311.63.425.262.115.508.172.753.172.246 0 .499-.04.745-.13.245-.09.458-.213.638-.385a1.56 1.56 0 00.361-.459c.081-.163.155-.482.237-.94a3.01 3.01 0 01-.868.769c-.344.196-.72.294-1.121.294-.377 0-.769-.09-1.171-.262a3.3 3.3 0 01-1.031-.704 3.349 3.349 0 01-.687-1.096 4.584 4.584 0 01-.172-.639 3.527 3.527 0 01-.058-.671 3.2 3.2 0 01.213-1.146 3.223 3.223 0 011.654-1.776 3.009 3.009 0 011.293-.278c.425 0 .802.081 1.129.253.352.18.631.442.811.794v-.85l-.017-.01zm-.032 3.11c0-.532-.172-.974-.524-1.326-.352-.352-.794-.532-1.326-.532-.221 0-.45.05-.671.14a1.82 1.82 0 00-.59.409c-.155.163-.278.36-.368.573a2.01 2.01 0 00-.115.687c0 .532.18.982.532 1.334.352.352.794.532 1.326.532.475 0 .884-.18 1.228-.54.336-.36.508-.786.508-1.277zm2.545-5.164h1.482v1.342h-1.482v-1.343zm0 2.054h1.482v6.171h-1.482v-6.171zm8.914 0v6.171h-1.359v-.834c-.229.31-.54.556-.941.753a2.605 2.605 0 01-1.179.286c-.475 0-.9-.09-1.277-.262a2.898 2.898 0 01-.99-.77 3.31 3.31 0 01-.573-1.03 3.583 3.583 0 01-.197-1.212c0-.442.058-.843.18-1.203.123-.36.328-.696.614-1.015a3.07 3.07 0 011.04-.802 3.033 3.033 0 011.252-.262c.45 0 .819.09 1.171.27.351.18.654.442.9.794v-.868h1.359v-.016zm-1.408 3.077c0-.523-.164-.957-.491-1.31-.328-.343-.762-.515-1.285-.515-.524 0-.974.18-1.326.532-.352.352-.524.81-.524 1.359 0 .5.18.925.532 1.269.352.343.786.515 1.293.515.508 0 .958-.172 1.293-.524.336-.352.508-.785.508-1.326zm2.513 3.086v-6.163h1.366v.573c.189-.246.442-.442.745-.573.303-.131.622-.197.966-.197s.647.066.958.197c.311.13.581.32.802.565l.09.09s.041.04.065.09c.213.294.352.646.426 1.064.041.262.066.646.066 1.154v3.192h-1.482v-3.356a1.43 1.43 0 00-.025-.32c-.032-.302-.106-.531-.221-.703a1.073 1.073 0 00-.433-.401c-.18-.09-.369-.14-.557-.14-.188 0-.393.05-.589.148a1.04 1.04 0 00-.442.393 1.57 1.57 0 00-.205.598c-.016.122-.024.237-.033.36 0 .122-.008.262-.008.433v2.98h-1.481l-.008.016zm13.693-4.469h-1.449a.475.475 0 00-.196-.335.632.632 0 00-.368-.115.654.654 0 00-.418.13.466.466 0 00-.172.386c0 .172.098.31.303.417.066.033.237.09.532.188.442.131.753.246.933.336.311.155.54.335.704.556.188.262.287.59.287.974 0 .573-.213 1.065-.622 1.482a2.418 2.418 0 01-.737.466 2.16 2.16 0 01-.86.18c-.638 0-1.17-.196-1.604-.597-.425-.401-.638-.908-.638-1.539h1.514a.882.882 0 00.254.491.764.764 0 00.524.205.74.74 0 00.482-.155c.14-.099.205-.246.205-.434 0-.213-.123-.393-.376-.54a1.64 1.64 0 00-.221-.099c-.107-.04-.254-.09-.451-.163a8.97 8.97 0 01-.589-.205 2.14 2.14 0 01-.524-.327 1.594 1.594 0 01-.597-1.285c0-.557.213-1.015.63-1.384.401-.352.884-.524 1.449-.524.515 0 .974.189 1.383.557.401.377.606.819.606 1.334m4.068-1.89c.892 0 1.661.319 2.291.965.32.328.549.68.704 1.064.156.385.238.81.238 1.269 0 .909-.319 1.678-.966 2.316a3.183 3.183 0 01-2.325.958c-.908 0-1.653-.32-2.3-.958a3.124 3.124 0 01-.965-2.308c0-.9.327-1.694.974-2.333.646-.638 1.432-.957 2.357-.957m-2.284-.54l1.645-1.531h1.171l1.62 1.53h-1.612l-.597-.712-.614.713h-1.613zm2.218 1.98a1.63 1.63 0 00-.679.164 1.93 1.93 0 00-.589.401 1.65 1.65 0 00-.377.59 1.85 1.85 0 00-.131.703c0 .508.172.934.516 1.294.344.36.769.532 1.269.532.499 0 .941-.172 1.293-.524.352-.352.515-.786.515-1.302 0-.515-.171-.95-.523-1.31a1.725 1.725 0 00-1.285-.54m1.915-2.938l-.565-1.023 2.505-1.481.589 1.154-2.537 1.35h.008zm2.202 7.833v-6.163h1.367v.573a1.86 1.86 0 01.744-.573c.303-.131.622-.197.966-.197s.647.066.958.197c.311.13.581.32.802.565l.09.09s.041.04.065.09c.213.294.352.646.426 1.064.041.262.066.646.066 1.154v3.192h-1.482v-3.356a1.51 1.51 0 00-.024-.32c-.033-.302-.107-.531-.221-.703a1.083 1.083 0 00-.434-.401c-.18-.09-.369-.14-.557-.14-.188 0-.393.05-.589.148a1.04 1.04 0 00-.442.393 1.57 1.57 0 00-.205.598c-.016.122-.024.237-.033.36 0 .122-.008.262-.008.433v2.98h-1.481l-.008.016zm11.508-6.163h1.358v5.23c0 .5-.057.925-.18 1.285-.131.393-.36.753-.679 1.097a3.425 3.425 0 01-1.129.786 3.297 3.297 0 01-1.326.278 3.383 3.383 0 01-1.858-.557 2.964 2.964 0 01-1.204-1.481h1.678c.156.172.369.311.631.425.261.115.507.172.753.172.245 0 .499-.04.744-.13a1.8 1.8 0 00.639-.385c.155-.14.278-.295.36-.459.082-.163.155-.482.237-.94-.27.343-.564.597-.867.769a2.231 2.231 0 01-1.122.294c-.376 0-.769-.09-1.17-.262a3.288 3.288 0 01-1.031-.704 3.368 3.368 0 01-.688-1.096 4.584 4.584 0 01-.172-.639 3.529 3.529 0 01-.057-.671 3.2 3.2 0 01.213-1.146 3.208 3.208 0 011.653-1.776 3.012 3.012 0 011.293-.278c.426 0 .802.081 1.13.253.352.18.63.442.81.794v-.85l-.016-.01zm-.033 3.11c0-.532-.172-.974-.524-1.326-.352-.352-.786-.532-1.326-.532-.221 0-.45.05-.671.14a1.82 1.82 0 00-.589.409 1.89 1.89 0 00-.369.573 2.035 2.035 0 00-.114.687c0 .532.18.982.532 1.334.352.352.794.532 1.326.532.475 0 .884-.18 1.228-.54.335-.36.507-.786.507-1.277zm9.004-5.009h1.391v-.573h1.481v.565h.532v.966l-.532.024v7.088h-1.35v-.834a2.195 2.195 0 01-.892.76c-.377.18-.77.279-1.179.279-.45 0-.859-.09-1.236-.278a2.978 2.978 0 01-.99-.761 3.383 3.383 0 01-.614-1.04 3.354 3.354 0 01-.221-1.187c0-.22.016-.425.049-.622a3.16 3.16 0 01.156-.59 3.2 3.2 0 011.661-1.808 2.93 2.93 0 011.236-.287 2.8 2.8 0 011.056.213c.336.148.622.352.851.614v-1.563h-1.383v-.974l-.016.008zm1.481 4.968c0-.507-.18-.941-.54-1.293a1.799 1.799 0 00-1.302-.532c-.474 0-.892.18-1.244.54a1.71 1.71 0 00-.532 1.252c0 .516.172.966.516 1.326.344.369.777.557 1.285.557.507 0 .933-.18 1.285-.54.352-.36.532-.794.532-1.31zm8.766-3.069v6.171h-1.359v-.834c-.229.31-.54.556-.941.753a2.716 2.716 0 01-1.179.286c-.474 0-.9-.09-1.276-.262a2.901 2.901 0 01-.991-.77 3.33 3.33 0 01-.573-1.03 3.799 3.799 0 01-.204-1.212c0-.442.057-.843.18-1.203.122-.36.327-.696.614-1.015.311-.36.654-.63 1.039-.802a3.037 3.037 0 011.252-.262 2.44 2.44 0 012.071 1.064v-.868h1.359l.008-.016zm-1.408 3.077c0-.523-.163-.957-.491-1.31-.327-.343-.761-.515-1.285-.515-.524 0-.974.18-1.326.532-.352.36-.524.81-.524 1.359 0 .5.18.925.532 1.269.352.343.786.515 1.294.515.507 0 .957-.172 1.293-.524.335-.352.507-.785.507-1.326zm-2.422-5.197a1.122 1.122 0 00.392.475.88.88 0 00.23.057c.09.016.18.016.27.016.09 0 .18 0 .262-.016a.643.643 0 00.221-.066.715.715 0 00.204-.188 1.35 1.35 0 00.164-.286h1.089c-.099.433-.344.802-.737 1.105a1.845 1.845 0 01-.54.262 2.457 2.457 0 01-.663.081c-.238 0-.459-.024-.663-.081a1.582 1.582 0 01-.541-.262c-.392-.303-.638-.672-.736-1.105h1.048v.008zm-.442-1.506v-.18l.024-.23v-.016c0-.024.016-.049.025-.065a.579.579 0 01.065-.115.804.804 0 01.107-.204c.049-.066.106-.14.171-.213a1.169 1.169 0 01.426-.27 1.64 1.64 0 01.557-.123c.188 0 .352.033.499.09.147.065.286.155.409.286.246.246.368.54.368.884 0 .14-.04.279-.114.418a1.489 1.489 0 01-.336.4 1.325 1.325 0 00-.286.37.872.872 0 00-.098.4h-.974a1.458 1.458 0 01.27-.818l.474-.557c.058-.057.09-.139.09-.262a.387.387 0 00-.09-.262.314.314 0 00-.221-.106.297.297 0 00-.221.082.35.35 0 00-.114.188 1.03 1.03 0 00-.033.295h-.982l-.016.008zm5.377 9.789v-6.163h1.367v.573c.188-.246.442-.442.745-.573.303-.131.622-.197.966-.197.343 0 .646.066.957.197.311.13.581.32.802.565l.09.09s.041.04.066.09c.213.294.352.646.426 1.064.041.262.065.646.065 1.154v3.192h-1.481v-3.356a1.48 1.48 0 00-.025-.32c-.033-.302-.106-.531-.221-.703a1.076 1.076 0 00-.434-.401c-.18-.09-.368-.14-.556-.14-.189 0-.393.05-.59.148-.196.098-.343.23-.442.393-.098.164-.172.36-.204.598a4.868 4.868 0 00-.033.36c0 .122-.008.262-.008.433v2.98h-1.482l-.008.016zm11.508-6.163h1.359v5.23c0 .5-.057.925-.18 1.285a2.913 2.913 0 01-.679 1.097 3.43 3.43 0 01-1.13.786 3.297 3.297 0 01-1.326.278 3.383 3.383 0 01-1.858-.557 2.957 2.957 0 01-1.203-1.481h1.678c.163.172.368.311.63.425.262.115.507.172.753.172s.499-.04.745-.13c.245-.09.458-.213.638-.385a1.54 1.54 0 00.36-.459c.082-.163.156-.482.238-.94a3.01 3.01 0 01-.868.769c-.344.196-.72.294-1.121.294-.377 0-.77-.09-1.171-.262a3.3 3.3 0 01-1.031-.704 3.349 3.349 0 01-.687-1.096 4.584 4.584 0 01-.172-.639 3.527 3.527 0 01-.058-.671 3.2 3.2 0 01.213-1.146 3.212 3.212 0 011.654-1.776 3.009 3.009 0 011.293-.278c.425 0 .802.081 1.129.253.352.18.631.442.819.794v-.85l-.025-.01zm-.033 3.11c0-.532-.171-.974-.523-1.326-.352-.352-.786-.532-1.326-.532-.221 0-.45.05-.671.14a1.82 1.82 0 00-.59.409c-.155.163-.278.36-.368.573a2.01 2.01 0 00-.115.687c0 .532.18.982.532 1.334.352.352.794.532 1.326.532.475 0 .884-.18 1.228-.54.336-.36.507-.786.507-1.277zm10.076 1.048h1.67a2.972 2.972 0 01-1.154 1.588 3.205 3.205 0 01-1.899.614 3.28 3.28 0 01-1.228-.246 3.252 3.252 0 01-1.064-.68 3.3 3.3 0 01-.753-1.088 3.333 3.333 0 01-.254-1.31c0-.892.32-1.653.966-2.291a3.195 3.195 0 012.325-.95 3.24 3.24 0 011.907.622c.589.418.982.958 1.162 1.62h-1.67c-.319-.531-.794-.801-1.424-.801-.524 0-.949.172-1.285.516-.335.343-.499.777-.499 1.3 0 .525.172.991.524 1.335.352.352.794.524 1.334.524.278 0 .532-.066.769-.205.229-.13.426-.319.581-.556m8.947-4.15v6.163h-1.359v-.835c-.229.311-.54.557-.941.753a2.714 2.714 0 01-1.179.287c-.475 0-.9-.09-1.277-.262a2.899 2.899 0 01-.99-.77 3.311 3.311 0 01-.573-1.03 3.801 3.801 0 01-.205-1.212c0-.442.066-.852.18-1.203.123-.36.328-.696.614-1.015a3.02 3.02 0 011.048-.803 3.037 3.037 0 011.252-.261c.45 0 .819.09 1.171.27.352.18.654.442.9.794v-.868h1.359v-.008zm-5.362-.737l1.654-1.53h1.17l1.621 1.53h-1.613l-.605-.712-.614.712H264.8zm3.954 3.806c0-.524-.164-.957-.491-1.31-.328-.343-.753-.515-1.285-.515-.532 0-.974.18-1.326.532-.352.36-.524.81-.524 1.359 0 .499.18.925.532 1.268.352.344.786.516 1.293.516.508 0 .958-.172 1.293-.524.336-.352.508-.794.508-1.326zm.188-4.763l-.556-1.024 2.504-1.481.589 1.154-2.537 1.35zm2.316 9.92v-8.226h1.351v.802c.237-.336.532-.59.868-.753a2.6 2.6 0 011.137-.246c.467 0 .876.074 1.228.23.352.155.696.409 1.015.769a2.917 2.917 0 01.63 1.031c.148.401.221.819.221 1.253 0 .892-.286 1.653-.867 2.291a2.878 2.878 0 01-2.227.99c-.401 0-.753-.065-1.047-.204a2.466 2.466 0 01-.827-.663v2.726h-1.482zm3.201-6.974c-.508 0-.941.18-1.285.532a1.802 1.802 0 00-.524 1.31c0 .27.049.524.139.753.09.229.237.434.442.614a1.895 1.895 0 001.179.474c.524 0 .957-.18 1.309-.532.344-.352.516-.794.516-1.317 0-.524-.172-.934-.508-1.294-.335-.36-.761-.532-1.26-.532M154.949 16.149c-.72-.458-1.604-.696-2.643-.696-1.334 0-2.423.418-3.258 1.253v-.737h-5.124v20.593h5.329V23.14c0-.671.213-1.22.655-1.662.433-.442.974-.663 1.653-.663.45 0 .843.14 1.195.426l.655.532 1.94-5.37-.402-.261v.008zm11.459-.696c-3.159 0-5.86 1.015-8.021 3.029-2.177 2.021-3.274 4.64-3.274 7.792 0 3.151 1.113 5.738 3.299 7.776 2.177 2.021 4.87 3.044 8.005 3.044 3.135 0 5.827-1.023 7.996-3.044 2.186-2.038 3.299-4.65 3.299-7.776 0-3.127-1.105-5.77-3.274-7.792-2.161-2.006-4.862-3.029-8.021-3.029m5.696 10.82c0 1.638-.532 2.972-1.628 4.069-1.097 1.097-2.423 1.629-4.068 1.629-1.646 0-2.972-.532-4.068-1.63-1.097-1.096-1.629-2.422-1.629-4.067s.532-2.971 1.629-4.068c1.096-1.097 2.422-1.629 4.068-1.629 1.645 0 2.971.532 4.068 1.629 1.096 1.097 1.628 2.423 1.628 4.068zm18.932-2.07l-4.207-.802c-2.079-.393-2.079-1.195-2.079-1.457 0-.36.099-.9.933-1.359.606-.327 1.294-.49 2.047-.49 1.62 0 3.249.678 4.845 2.02l.467.394 3.159-3.896-.516-.369c-2.602-1.858-5.312-2.799-8.037-2.799-2.177 0-4.052.581-5.566 1.719-1.76 1.293-2.652 3.045-2.652 5.214 0 1.948.868 3.47 2.57 4.518 1.089.655 2.685 1.179 4.887 1.596l2.365.45c2.079.385 2.079 1.302 2.079 1.645 0 .344-.106.876-1.072 1.343a4.9 4.9 0 01-2.186.499c-2.152 0-4.01-.868-5.672-2.652l-.425-.458-3.749 3.79.491.417c2.766 2.357 5.836 3.552 9.126 3.552 2.308 0 4.306-.573 5.951-1.71 1.899-1.318 2.864-3.144 2.864-5.42 0-3.126-1.89-5.057-5.614-5.761m15.526 6.9c-.572-.565-.867-1.547-.867-2.93V21.1h3.364v-5.124h-3.364V9.495l-5.329 1.497v4.985h-2.365v5.124h2.365v7.817c0 7.284 6.303 7.653 6.393 7.653h2.505v-4.895h-.729c-.466.008-1.342.033-1.981-.59m15.642-15.633c-3.16 0-5.861 1.015-8.021 3.029-2.178 2.021-3.274 4.64-3.274 7.792 0 3.151 1.113 5.738 3.298 7.776 2.177 2.021 4.87 3.044 7.997 3.044s5.828-1.023 8.005-3.044c2.185-2.038 3.298-4.65 3.298-7.776 0-3.127-1.105-5.77-3.274-7.792-2.16-2.006-4.862-3.029-8.021-3.029m5.697 10.82c0 1.638-.532 2.972-1.629 4.069s-2.423 1.629-4.068 1.629c-1.645 0-2.971-.532-4.068-1.63-1.097-1.096-1.629-2.422-1.629-4.067s.532-2.971 1.629-4.068c1.097-1.097 2.423-1.629 4.068-1.629 1.645 0 2.971.532 4.068 1.629 1.097 1.097 1.629 2.423 1.629 4.068zm18.948-10.82c-2.226 0-4.035.647-5.386 1.916v-1.4h-5.328v20.593h5.328V25.103c0-1.35.369-2.373 1.122-3.15.753-.77 1.759-1.147 3.085-1.147 2.767 0 4.052 1.392 4.052 4.371v11.377h5.328V24.252c0-2.382-.744-4.444-2.209-6.13-1.572-1.785-3.586-2.685-5.992-2.685m33.125 11.516c0-3.61-1.252-6.548-3.724-8.741-2.055-1.834-4.387-2.759-6.933-2.759-3.159 0-5.86 1.015-8.021 3.029-2.178 2.021-3.274 4.64-3.274 7.792 0 3.151 1.105 5.77 3.274 7.792 2.161 2.005 4.862 3.028 8.029 3.028 3.7-.024 6.892-1.694 9.478-4.952l.442-.548-4.6-2.562-.311.418c-1.391 1.858-3.069 2.766-5.132 2.766-1.366 0-2.553-.425-3.626-1.31-.875-.711-1.407-1.563-1.62-2.586H280v-1.359l-.008-.008zm-14.357-5.517c.86-.736 1.883-1.096 3.135-1.096 2.382 0 3.986 1.088 4.887 3.331h-9.56c.343-.9.859-1.645 1.538-2.235zm-148.476 7.572l-.155-1.04-.819.663a12.505 12.505 0 01-7.857 2.791 12.4 12.4 0 01-12.081-9.535h19.635v-5.795H96.247a12.4 12.4 0 0112.081-9.544c2.954 0 5.811 1.056 8.046 2.963l.761.655 1.473-6.786-.352-.22a18.615 18.615 0 00-9.928-2.857c-9.209 0-17.05 6.752-18.457 15.797h-3.815l-2.66 5.795h6.483c1.407 9.036 9.249 15.797 18.457 15.797a18.66 18.66 0 0010.305-3.094l.507-.336-.344-.507c-.81-1.179-1.334-2.685-1.637-4.74m17.836-1.579c0 1.22-.385 2.218-1.171 3.053-.777.827-1.743 1.236-2.955 1.236-1.211 0-2.185-.401-2.954-1.236-.786-.843-1.171-1.841-1.171-3.053V15.977h-5.328v11.82c0 2.692.908 4.943 2.709 6.678 1.792 1.736 4.06 2.611 6.744 2.611 2.685 0 4.961-.875 6.745-2.61 1.792-1.736 2.709-3.987 2.709-6.68V15.977h-5.328v11.46zM10.654 60.569H.787c-.437 0-.787-.334-.787-.752V27.002c0-5.62 4.771-10.177 10.654-10.177.437 0 .787.34.787.751v42.241c0 .418-.356.752-.787.752zm41.772 0h-9.287a.74.74 0 01-.74-.745V24.217c0-5.568 4.49-10.084 10.027-10.084.411 0 .74.337.74.745v44.946a.743.743 0 01-.74.745zm-32.949-.006H13.5c-.396 0-.712-.335-.712-.754V23.636c0-.42.322-.754.712-.754 3.693 0 6.69 3.171 6.69 7.079v29.854c0 .419-.322.754-.712.754m20.172.001H22.938a.736.736 0 01-.73-.749v-41.93C22.209 8.007 30.016 0 39.65 0c.405 0 .73.332.73.748V59.82a.74.74 0 01-.73.748zM55.282 9.422a.759.759 0 00-.77.746v49.655a.76.76 0 00.77.746h11.247c.428 0 .77-.332.77-.746v-38.75c0-6.433-5.382-11.651-12.017-11.651z" fill="#fff"/></svg>