<svg width="280" height="63" viewBox="0 0 280 63" fill="none" xmlns="http://www.w3.org/2000/svg">
<path d="M90.8691 60.3972H89.1093V56.8367H88.0452V55.6581H89.1093V52.1794H90.8363C91.352 52.1794 91.7612 52.1958 92.0559 52.2367C92.4897 52.294 92.8826 52.3841 93.2509 52.5232C93.6192 52.6542 93.963 52.8588 94.2822 53.1371C94.716 53.5054 95.068 53.9883 95.3217 54.5776C95.4445 54.8641 95.5345 55.1424 95.6 55.4371C95.6655 55.7235 95.69 56.0264 95.69 56.3292C95.69 56.9022 95.5673 57.4751 95.3135 58.0481C95.0598 58.621 94.716 59.0876 94.2822 59.4641C93.9712 59.726 93.6192 59.9306 93.2345 60.0862C92.8989 60.2089 92.5224 60.299 92.0886 60.3563C91.9495 60.3726 91.7694 60.3808 91.5484 60.3972C91.3274 60.4054 91.0982 60.4136 90.8609 60.4136M91.9167 55.6744V56.8531H90.6317V58.9321H90.8199C91.4829 58.9321 91.9904 58.883 92.3424 58.7848C92.6452 58.7029 92.9235 58.5638 93.1772 58.3755C93.4964 58.13 93.7338 57.8271 93.9057 57.4751C94.0776 57.1232 94.1676 56.7467 94.1676 56.3374C94.1676 55.9036 94.0776 55.4944 93.8893 55.1015C93.7011 54.7086 93.431 54.3976 93.079 54.1602C92.7843 53.9556 92.4078 53.8164 91.9577 53.7428C91.6466 53.6937 91.2374 53.6691 90.7463 53.6691H90.6399V55.6744H91.9249H91.9167Z" fill="white"/>
<path d="M102.991 54.2339V60.4054H101.632V59.5705C101.403 59.8815 101.092 60.1271 100.691 60.3235C100.298 60.5118 99.9053 60.61 99.5124 60.61C99.0377 60.61 98.6121 60.52 98.2356 60.3481C97.859 60.168 97.5235 59.9143 97.2452 59.5787C96.9996 59.284 96.8114 58.9403 96.6722 58.5474C96.5331 58.1545 96.4676 57.7534 96.4676 57.336C96.4676 56.894 96.5249 56.4929 96.6477 56.1328C96.7704 55.7727 96.9751 55.4371 97.2615 55.1179C97.5726 54.7577 97.9163 54.4876 98.301 54.3157C98.6857 54.1438 99.1032 54.0538 99.5533 54.0538C100.004 54.0538 100.372 54.1438 100.724 54.3239C101.076 54.504 101.379 54.7659 101.624 55.1179V54.2502H102.983L102.991 54.2339ZM101.583 57.3114C101.583 56.7876 101.42 56.3538 101.092 56.0018C100.765 55.6581 100.339 55.4862 99.8071 55.4862C99.275 55.4862 98.8331 55.6663 98.4811 56.0182C98.1291 56.3702 97.9573 56.8285 97.9573 57.3687C97.9573 57.868 98.1373 58.2936 98.4893 58.6374C98.8412 58.9812 99.275 59.1531 99.7825 59.1531C100.29 59.1531 100.74 58.9812 101.076 58.6292C101.411 58.2855 101.583 57.8435 101.583 57.3033M98.8576 53.5791L98.301 52.556L100.806 51.0745L101.403 52.2286L98.8658 53.5791H98.8576Z" fill="white"/>
<path d="M111.626 58.3918H113.296C113.1 59.0385 112.715 59.5705 112.142 59.9797C111.569 60.389 110.931 60.5936 110.243 60.5936C109.834 60.5936 109.424 60.5118 109.015 60.3481C108.606 60.1844 108.246 59.9552 107.951 59.6687C107.624 59.3495 107.37 58.9894 107.198 58.5801C107.026 58.1709 106.944 57.737 106.944 57.2705C106.944 56.3783 107.264 55.6171 107.91 54.9787C108.557 54.3485 109.326 54.0292 110.235 54.0292C110.914 54.0292 111.553 54.2339 112.142 54.6513C112.731 55.0687 113.124 55.6089 113.304 56.2719H111.634C111.315 55.7399 110.84 55.4698 110.21 55.4698C109.686 55.4698 109.261 55.6417 108.925 55.9855C108.59 56.3292 108.426 56.763 108.426 57.2869C108.426 57.8107 108.598 58.2773 108.95 58.621C109.302 58.973 109.744 59.1449 110.284 59.1449C110.562 59.1449 110.816 59.0794 111.045 58.9402C111.274 58.8093 111.471 58.621 111.626 58.3837" fill="white"/>
<path d="M114.335 60.3972V52.1794H115.817V54.7004C115.964 54.4876 116.193 54.3239 116.504 54.2093C116.807 54.0947 117.11 54.0374 117.405 54.0374C117.749 54.0374 118.076 54.1111 118.403 54.2584C118.731 54.4058 119.001 54.6104 119.214 54.8559C119.402 55.0688 119.541 55.3307 119.648 55.6417C119.697 55.7972 119.738 55.9937 119.762 56.2228C119.787 56.452 119.803 56.7303 119.803 57.0659V60.4054H118.322V57.3933C118.322 56.6403 118.207 56.1246 117.978 55.8463C117.773 55.609 117.47 55.4862 117.061 55.4862C116.619 55.4862 116.283 55.6663 116.054 56.0182C115.956 56.1737 115.891 56.4029 115.85 56.6976C115.833 56.8695 115.825 57.1068 115.825 57.4097V60.4054H114.344L114.335 60.3972Z" fill="white"/>
<path d="M124.067 54.0374C124.96 54.0374 125.721 54.3566 126.359 55.0033C126.67 55.3225 126.908 55.6826 127.063 56.0591C127.219 56.4438 127.301 56.8694 127.301 57.3278C127.301 58.2363 126.981 59.0057 126.335 59.6442C125.688 60.2826 124.91 60.6018 124.01 60.6018C123.11 60.6018 122.357 60.2826 121.71 59.6442C121.064 59.0057 120.744 58.2282 120.744 57.336C120.744 56.4438 121.072 55.6417 121.718 55.0033C122.365 54.3648 123.151 54.0456 124.076 54.0456M124.01 55.4944C123.904 55.4944 123.789 55.5107 123.675 55.5353C123.56 55.5598 123.445 55.6008 123.323 55.6581C123.102 55.7563 122.905 55.8872 122.733 56.0591C122.57 56.231 122.439 56.4193 122.357 56.6484C122.267 56.8694 122.226 57.1068 122.226 57.3524C122.226 57.8598 122.398 58.2854 122.741 58.6456C123.085 59.0057 123.511 59.1776 124.01 59.1776C124.509 59.1776 124.951 59.0057 125.303 58.6538C125.647 58.3018 125.819 57.868 125.819 57.3524C125.819 56.8367 125.639 56.4029 125.287 56.0428C124.935 55.6826 124.509 55.5025 124.002 55.5025" fill="white"/>
<path d="M131.246 60.3972V52.1794H132.727V57.1396L134.708 54.2339H136.451L134.225 57.246L136.82 60.3972H134.839L132.727 57.5161V60.3972H131.246Z" fill="white"/>
<path d="M137.704 60.3972V52.1794H139.185V54.7004C139.341 54.4876 139.562 54.3239 139.873 54.2093C140.176 54.0947 140.478 54.0374 140.773 54.0374C141.117 54.0374 141.444 54.1111 141.772 54.2584C142.099 54.4058 142.369 54.6104 142.59 54.8559C142.778 55.0688 142.917 55.3307 143.024 55.6417C143.073 55.7972 143.114 55.9937 143.138 56.2228C143.163 56.452 143.179 56.7303 143.179 57.0659V60.4054H141.698V57.3933C141.698 56.6403 141.583 56.1246 141.346 55.8463C141.141 55.609 140.839 55.4862 140.437 55.4862C139.995 55.4862 139.66 55.6663 139.422 56.0182C139.324 56.1737 139.259 56.4029 139.218 56.6976C139.201 56.8695 139.193 57.1068 139.193 57.4097V60.4054H137.712L137.704 60.3972Z" fill="white"/>
<path d="M147.444 54.0374C148.336 54.0374 149.097 54.3566 149.736 55.0032C150.047 55.3225 150.284 55.6826 150.44 56.0591C150.595 56.4438 150.677 56.8694 150.677 57.3278C150.677 58.2363 150.358 59.0057 149.711 59.6441C149.064 60.2826 148.287 60.6018 147.387 60.6018C146.486 60.6018 145.733 60.2826 145.087 59.6441C144.44 59.0057 144.121 58.2281 144.121 57.336C144.121 56.4438 144.448 55.6417 145.095 55.0032C145.741 54.3648 146.527 54.0456 147.452 54.0456M145.168 53.5054L146.814 51.9748H147.984L149.613 53.5054H148L147.403 52.7933L146.789 53.5054H145.177H145.168ZM147.387 55.4862C147.28 55.4862 147.166 55.5025 147.051 55.5271C146.936 55.5516 146.822 55.5926 146.699 55.6499C146.478 55.7481 146.282 55.879 146.11 56.0509C145.946 56.2228 145.815 56.4111 145.733 56.6402C145.643 56.8612 145.602 57.0986 145.602 57.3442C145.602 57.8516 145.774 58.2772 146.118 58.6374C146.462 58.9975 146.887 59.1694 147.387 59.1694C147.886 59.1694 148.328 58.9975 148.68 58.6456C149.024 58.2936 149.195 57.8598 149.195 57.3442C149.195 56.8285 149.015 56.3947 148.663 56.0346C148.311 55.6744 147.886 55.4943 147.378 55.4943" fill="white"/>
<path d="M151.504 60.3972V54.2339H152.87V54.8068C153.059 54.5613 153.312 54.3648 153.615 54.2339C153.918 54.1029 154.237 54.0374 154.581 54.0374C154.925 54.0374 155.228 54.1029 155.539 54.2339C155.85 54.3648 156.12 54.5531 156.341 54.7986L156.431 54.8887C156.431 54.8887 156.472 54.9296 156.496 54.9787C156.709 55.2734 156.848 55.6253 156.922 56.0428C156.963 56.3047 156.988 56.6894 156.988 57.1968V60.389H155.506V57.0331C155.506 56.8858 155.498 56.7794 155.482 56.7139C155.449 56.4111 155.375 56.1819 155.261 56.01C155.154 55.8381 155.007 55.699 154.827 55.6089C154.647 55.5189 154.458 55.4698 154.27 55.4698C154.082 55.4698 153.877 55.5189 153.681 55.6171C153.484 55.7154 153.337 55.8463 153.231 56.01C153.132 56.1737 153.067 56.3702 153.034 56.6075C153.018 56.7303 153.01 56.8449 153.001 56.9677C153.001 57.0904 152.993 57.2296 152.993 57.4015V60.3808H151.512L151.504 60.3972Z" fill="white"/>
<path d="M163.02 54.2339H164.379V59.4641C164.379 59.9634 164.321 60.389 164.199 60.7491C164.068 61.142 163.847 61.5022 163.519 61.8459C163.2 62.1815 162.823 62.4434 162.39 62.6317C161.956 62.82 161.514 62.91 161.064 62.91C160.401 62.91 159.779 62.7217 159.206 62.3534C158.633 61.9851 158.232 61.4858 158.002 60.8719H159.68C159.836 61.0438 160.049 61.183 160.311 61.2975C160.573 61.4121 160.818 61.4694 161.064 61.4694C161.309 61.4694 161.563 61.4285 161.809 61.3385C162.054 61.2484 162.267 61.1257 162.447 60.9538C162.602 60.8146 162.725 60.6591 162.807 60.4954C162.889 60.3317 162.963 60.0125 163.044 59.5541C162.774 59.8979 162.48 60.1516 162.177 60.3235C161.833 60.52 161.457 60.6182 161.055 60.6182C160.679 60.6182 160.286 60.5282 159.885 60.3563C159.484 60.1762 159.14 59.947 158.854 59.6524C158.559 59.3413 158.33 58.973 158.166 58.5556C158.093 58.3427 158.035 58.1299 157.994 57.9171C157.953 57.7043 157.937 57.4833 157.937 57.246C157.937 56.8449 158.011 56.4684 158.15 56.1001C158.289 55.7317 158.494 55.4043 158.764 55.0933C159.058 54.7659 159.402 54.5122 159.803 54.3239C160.204 54.1357 160.638 54.0456 161.096 54.0456C161.522 54.0456 161.899 54.1275 162.226 54.2994C162.578 54.4794 162.856 54.7413 163.044 55.0933V54.2421L163.02 54.2339ZM162.987 57.3442C162.987 56.8122 162.815 56.3702 162.463 56.0182C162.111 55.6663 161.678 55.4862 161.137 55.4862C160.916 55.4862 160.687 55.5353 160.466 55.6253C160.245 55.7236 160.049 55.8545 159.877 56.0346C159.721 56.1983 159.599 56.3947 159.509 56.6075C159.435 56.8122 159.394 57.0413 159.394 57.2951C159.394 57.8271 159.574 58.2773 159.926 58.6292C160.278 58.9812 160.72 59.1613 161.252 59.1613C161.727 59.1613 162.136 58.9812 162.48 58.621C162.815 58.2609 162.987 57.8353 162.987 57.3442Z" fill="white"/>
<path d="M173.48 54.2339H174.839V59.4641C174.839 59.9634 174.782 60.389 174.659 60.7491C174.528 61.142 174.307 61.5022 173.98 61.8459C173.66 62.1815 173.284 62.4434 172.85 62.6317C172.416 62.82 171.974 62.91 171.524 62.91C170.861 62.91 170.239 62.7217 169.666 62.3534C169.093 61.9851 168.692 61.4858 168.463 60.8719H170.141C170.305 61.0438 170.509 61.183 170.771 61.2975C171.033 61.4121 171.279 61.4694 171.524 61.4694C171.77 61.4694 172.023 61.4285 172.269 61.3385C172.514 61.2484 172.727 61.1257 172.907 60.9538C173.063 60.8146 173.186 60.6591 173.268 60.4954C173.349 60.3317 173.423 60.0125 173.505 59.5541C173.235 59.8979 172.94 60.1516 172.637 60.3235C172.293 60.52 171.917 60.6182 171.516 60.6182C171.139 60.6182 170.747 60.5282 170.345 60.3563C169.944 60.1762 169.601 59.947 169.314 59.6524C169.019 59.3413 168.79 58.973 168.627 58.5556C168.553 58.3427 168.496 58.1299 168.455 57.9171C168.414 57.7043 168.397 57.4833 168.397 57.246C168.397 56.8449 168.471 56.4684 168.61 56.1001C168.749 55.7317 168.954 55.4043 169.224 55.0933C169.519 54.7659 169.863 54.5122 170.264 54.3239C170.665 54.1357 171.098 54.0456 171.557 54.0456C171.982 54.0456 172.359 54.1275 172.686 54.2994C173.038 54.4794 173.317 54.7413 173.497 55.0933V54.2421L173.48 54.2339ZM173.448 57.3442C173.448 56.8122 173.276 56.3702 172.924 56.0182C172.572 55.6663 172.13 55.4862 171.598 55.4862C171.377 55.4862 171.148 55.5353 170.927 55.6253C170.706 55.7236 170.509 55.8545 170.337 56.0346C170.182 56.1983 170.059 56.3947 169.969 56.6075C169.895 56.8122 169.854 57.0413 169.854 57.2951C169.854 57.8271 170.034 58.2773 170.386 58.6292C170.738 58.9812 171.18 59.1613 171.712 59.1613C172.187 59.1613 172.596 58.9812 172.94 58.621C173.276 58.2609 173.448 57.8353 173.448 57.3442Z" fill="white"/>
<path d="M175.993 52.1794H177.475V53.5218H175.993V52.1794ZM175.993 54.2339H177.475V60.4054H175.993V54.2339Z" fill="white"/>
<path d="M184.907 54.2338V60.4053H183.548V59.5705C183.319 59.8815 183.008 60.127 182.607 60.3235C182.214 60.5199 181.821 60.61 181.428 60.61C180.953 60.61 180.528 60.5199 180.151 60.348C179.775 60.168 179.439 59.9142 179.161 59.5787C178.915 59.284 178.727 58.9402 178.588 58.5473C178.449 58.1545 178.391 57.7534 178.391 57.336C178.391 56.894 178.449 56.4929 178.571 56.1328C178.694 55.7726 178.899 55.437 179.185 55.1178C179.496 54.7577 179.848 54.4876 180.225 54.3157C180.609 54.1438 181.027 54.0538 181.477 54.0538C181.927 54.0538 182.296 54.1438 182.648 54.3239C182.999 54.5039 183.302 54.7659 183.548 55.1178V54.2502H184.907V54.2338ZM183.499 57.3114C183.499 56.7876 183.335 56.3538 183.008 56.0018C182.68 55.658 182.246 55.4861 181.723 55.4861C181.199 55.4861 180.749 55.6662 180.397 56.0182C180.045 56.3701 179.873 56.8285 179.873 57.3769C179.873 57.8762 180.053 58.3018 180.405 58.6456C180.757 58.9893 181.191 59.1612 181.698 59.1612C182.206 59.1612 182.656 58.9893 182.991 58.6374C183.327 58.2854 183.499 57.8516 183.499 57.3114Z" fill="white"/>
<path d="M186.012 60.3972V54.2339H187.378V54.8068C187.567 54.5613 187.82 54.3648 188.123 54.2339C188.426 54.1029 188.745 54.0374 189.089 54.0374C189.433 54.0374 189.736 54.1029 190.047 54.2339C190.358 54.3648 190.628 54.5531 190.849 54.7986L190.939 54.8887C190.939 54.8887 190.98 54.9296 191.004 54.9787C191.217 55.2734 191.356 55.6253 191.43 56.0428C191.471 56.3047 191.496 56.6894 191.496 57.1968V60.389H190.014V57.0331C190.014 56.8858 190.006 56.7794 189.989 56.7139C189.957 56.4111 189.883 56.1819 189.768 56.01C189.662 55.8381 189.515 55.699 189.335 55.6089C189.155 55.5189 188.966 55.4698 188.778 55.4698C188.59 55.4698 188.385 55.5189 188.189 55.6171C187.992 55.7154 187.845 55.8463 187.747 56.01C187.649 56.1737 187.575 56.3702 187.542 56.6075C187.526 56.7303 187.518 56.8449 187.509 56.9677C187.509 57.0904 187.501 57.2296 187.501 57.4015V60.3808H186.02L186.012 60.3972Z" fill="white"/>
<path d="M199.705 55.9282H198.256C198.232 55.7808 198.174 55.6744 198.06 55.5926C197.954 55.5189 197.831 55.478 197.692 55.478C197.528 55.478 197.389 55.5189 197.274 55.6089C197.16 55.699 197.102 55.8299 197.102 55.9936C197.102 56.1655 197.2 56.3047 197.405 56.4111C197.471 56.4438 197.642 56.5011 197.937 56.5993C198.379 56.7303 198.69 56.8449 198.87 56.9349C199.181 57.0904 199.41 57.2705 199.574 57.4915C199.762 57.7534 199.861 58.0808 199.861 58.4655C199.861 59.0385 199.648 59.5296 199.239 59.947C199.034 60.1353 198.788 60.299 198.502 60.4135C198.215 60.5363 197.929 60.5936 197.642 60.5936C197.004 60.5936 196.472 60.3972 196.038 59.9961C195.613 59.595 195.4 59.0876 195.4 58.4573H196.914C196.955 58.6701 197.045 58.8338 197.168 58.9484C197.315 59.0794 197.487 59.1531 197.692 59.1531C197.88 59.1531 198.044 59.1039 198.174 58.9975C198.314 58.8993 198.379 58.752 198.379 58.5637C198.379 58.3509 198.256 58.1709 198.003 58.0235C197.962 57.999 197.888 57.9662 197.782 57.9253C197.675 57.8844 197.528 57.8353 197.331 57.7616C197.02 57.6634 196.824 57.5897 196.742 57.557C196.562 57.4833 196.39 57.3687 196.218 57.2296C195.817 56.894 195.621 56.4684 195.621 55.9445C195.621 55.388 195.834 54.9296 196.251 54.5613C196.652 54.2093 197.135 54.0374 197.7 54.0374C198.215 54.0374 198.674 54.2257 199.083 54.594C199.484 54.9705 199.689 55.4125 199.689 55.9282" fill="white"/>
<path d="M203.757 54.0375C204.649 54.0375 205.418 54.3567 206.048 55.0033C206.368 55.3307 206.597 55.6826 206.752 56.0673C206.908 56.452 206.99 56.8777 206.99 57.336C206.99 58.2445 206.671 59.0139 206.024 59.6524C205.377 60.2908 204.608 60.61 203.699 60.61C202.791 60.61 202.046 60.2908 201.399 59.6524C200.753 59.0139 200.434 58.2445 200.434 57.3442C200.434 56.4438 200.761 55.6499 201.408 55.0115C202.054 54.373 202.84 54.0538 203.765 54.0538M201.481 53.5136L203.126 51.983H204.297L205.917 53.5136H204.305L203.708 52.8015L203.094 53.5136H201.481ZM203.699 55.4944C203.593 55.4944 203.478 55.5108 203.364 55.5353C203.249 55.5599 203.135 55.6008 203.02 55.6581C202.799 55.7563 202.603 55.8873 202.431 56.0592C202.267 56.231 202.136 56.4193 202.054 56.6485C201.964 56.8695 201.923 57.1068 201.923 57.3524C201.923 57.8599 202.095 58.2855 202.439 58.6456C202.783 59.0057 203.208 59.1776 203.708 59.1776C204.207 59.1776 204.649 59.0058 205.001 58.6538C205.353 58.3018 205.516 57.868 205.516 57.3524C205.516 56.8367 205.345 56.4029 204.993 56.0428C204.641 55.6826 204.215 55.5026 203.708 55.5026M205.623 52.5642L205.058 51.541L207.563 50.0595L208.152 51.2136L205.615 52.5642H205.623Z" fill="white"/>
<path d="M207.825 60.3972V54.2339H209.192V54.8068C209.38 54.5613 209.634 54.3648 209.936 54.2339C210.239 54.1029 210.558 54.0374 210.902 54.0374C211.246 54.0374 211.549 54.1029 211.86 54.2339C212.171 54.3648 212.441 54.5531 212.662 54.7986L212.752 54.8887C212.752 54.8887 212.793 54.9296 212.817 54.9787C213.03 55.2734 213.169 55.6253 213.243 56.0428C213.284 56.3047 213.309 56.6894 213.309 57.1968V60.389H211.827V57.0331C211.827 56.8858 211.819 56.7794 211.803 56.7139C211.77 56.4111 211.696 56.1819 211.582 56.01C211.475 55.8381 211.328 55.699 211.148 55.6089C210.968 55.5189 210.779 55.4698 210.591 55.4698C210.403 55.4698 210.198 55.5189 210.002 55.6171C209.805 55.7154 209.658 55.8463 209.56 56.01C209.462 56.1737 209.388 56.3702 209.355 56.6075C209.339 56.7303 209.331 56.8449 209.322 56.9677C209.322 57.0904 209.314 57.2296 209.314 57.4015V60.3808H207.833L207.825 60.3972Z" fill="white"/>
<path d="M219.333 54.2339H220.691V59.4641C220.691 59.9634 220.634 60.389 220.511 60.7491C220.38 61.142 220.151 61.5022 219.832 61.8459C219.513 62.1815 219.136 62.4434 218.703 62.6317C218.269 62.82 217.827 62.91 217.377 62.91C216.714 62.91 216.092 62.7217 215.519 62.3534C214.946 61.9851 214.545 61.4858 214.315 60.8719H215.993C216.149 61.0438 216.362 61.183 216.624 61.2975C216.885 61.4121 217.131 61.4694 217.377 61.4694C217.622 61.4694 217.876 61.4285 218.121 61.3385C218.367 61.2484 218.58 61.1257 218.76 60.9538C218.915 60.8146 219.038 60.6591 219.12 60.4954C219.202 60.3317 219.275 60.0125 219.357 59.5541C219.087 59.8979 218.793 60.1516 218.49 60.3235C218.146 60.52 217.769 60.6182 217.368 60.6182C216.992 60.6182 216.599 60.5282 216.198 60.3563C215.797 60.1762 215.453 59.947 215.167 59.6524C214.872 59.3413 214.643 58.973 214.479 58.5556C214.405 58.3427 214.348 58.1299 214.307 57.9171C214.266 57.7043 214.25 57.4833 214.25 57.246C214.25 56.8449 214.324 56.4684 214.463 56.1001C214.602 55.7317 214.806 55.4043 215.077 55.0933C215.371 54.7659 215.715 54.5122 216.116 54.3239C216.517 54.1357 216.951 54.0456 217.409 54.0456C217.835 54.0456 218.211 54.1275 218.539 54.2994C218.891 54.4794 219.169 54.7413 219.349 55.0933V54.2421L219.333 54.2339ZM219.3 57.3442C219.3 56.8122 219.128 56.3702 218.776 56.0182C218.424 55.6663 217.99 55.4862 217.45 55.4862C217.229 55.4862 217 55.5353 216.779 55.6253C216.558 55.7236 216.362 55.8545 216.19 56.0346C216.034 56.1983 215.911 56.3947 215.821 56.6075C215.748 56.8122 215.707 57.0413 215.707 57.2951C215.707 57.8271 215.887 58.2773 216.239 58.6292C216.591 58.9812 217.033 59.1613 217.565 59.1613C218.04 59.1613 218.449 58.9812 218.793 58.621C219.128 58.2609 219.3 57.8353 219.3 57.3442Z" fill="white"/>
<path d="M228.304 52.3349H229.695V51.762H231.176V52.3267H231.708V53.2926L231.176 53.3171V60.4053H229.826V59.5705C229.605 59.8979 229.31 60.1516 228.934 60.3317C228.557 60.5118 228.164 60.61 227.755 60.61C227.305 60.61 226.896 60.5199 226.519 60.3317C226.143 60.1516 225.807 59.8979 225.529 59.5705C225.267 59.2676 225.062 58.9238 224.915 58.531C224.768 58.1381 224.694 57.7452 224.694 57.3441C224.694 57.1232 224.71 56.9185 224.743 56.7221C224.776 56.5257 224.825 56.3292 224.899 56.1328C225.038 55.7481 225.251 55.3961 225.529 55.0851C225.807 54.7741 226.151 54.5203 226.56 54.3239C226.969 54.1356 227.379 54.0374 227.796 54.0374C228.156 54.0374 228.508 54.1111 228.852 54.2502C229.188 54.3975 229.474 54.6022 229.703 54.8641V53.3008H228.32V52.3267L228.304 52.3349ZM229.785 57.3032C229.785 56.7957 229.605 56.3619 229.245 56.01C228.885 55.658 228.451 55.478 227.943 55.478C227.469 55.478 227.051 55.658 226.699 56.0182C226.339 56.3783 226.167 56.7958 226.167 57.2705C226.167 57.7861 226.339 58.2363 226.683 58.5965C227.027 58.9648 227.46 59.153 227.968 59.153C228.475 59.153 228.901 58.973 229.253 58.6128C229.605 58.2527 229.785 57.8189 229.785 57.3032Z" fill="white"/>
<path d="M238.551 54.2338V60.4053H237.192V59.5705C236.963 59.8815 236.652 60.127 236.251 60.3235C235.858 60.5117 235.465 60.61 235.072 60.61C234.598 60.61 234.172 60.5199 233.796 60.348C233.419 60.168 233.084 59.9142 232.805 59.5786C232.56 59.284 232.371 58.9402 232.232 58.5473C232.101 58.1545 232.028 57.7534 232.028 57.336C232.028 56.894 232.085 56.4929 232.208 56.1328C232.33 55.7726 232.535 55.437 232.822 55.1178C233.133 54.7577 233.476 54.4876 233.861 54.3157C234.246 54.1438 234.663 54.0538 235.113 54.0538C235.564 54.0538 235.932 54.1438 236.284 54.3239C236.636 54.5039 236.939 54.7659 237.184 55.1178V54.2502H238.543L238.551 54.2338ZM237.143 57.3114C237.143 56.7876 236.98 56.3538 236.652 56.0018C236.325 55.658 235.891 55.4861 235.367 55.4861C234.843 55.4861 234.393 55.6662 234.041 56.0182C233.689 56.3783 233.517 56.8285 233.517 57.3769C233.517 57.8762 233.697 58.3018 234.049 58.6456C234.401 58.9893 234.835 59.1612 235.343 59.1612C235.85 59.1612 236.3 58.9893 236.636 58.6374C236.971 58.2854 237.143 57.8516 237.143 57.3114ZM234.721 52.1139C234.77 52.2203 234.827 52.3185 234.901 52.4004C234.974 52.4823 235.04 52.5477 235.113 52.5887C235.179 52.6132 235.253 52.6378 235.343 52.646C235.433 52.6623 235.523 52.6623 235.613 52.6623C235.703 52.6623 235.793 52.6623 235.875 52.646C235.956 52.6378 236.03 52.6132 236.096 52.5805C236.161 52.5395 236.235 52.4822 236.3 52.3922C236.366 52.3104 236.415 52.2121 236.464 52.1057H237.553C237.454 52.5395 237.209 52.9079 236.816 53.2107C236.652 53.3253 236.472 53.4153 236.276 53.4726C236.071 53.5299 235.85 53.5545 235.613 53.5545C235.375 53.5545 235.154 53.5299 234.95 53.4726C234.745 53.4153 234.573 53.3335 234.409 53.2107C234.017 52.9079 233.771 52.5395 233.673 52.1057H234.721V52.1139ZM234.279 50.6079V50.4278L234.303 50.1986C234.303 50.1986 234.303 50.1986 234.303 50.1823C234.303 50.1577 234.319 50.1331 234.328 50.1168C234.336 50.0922 234.36 50.0513 234.393 50.0022C234.418 49.9367 234.45 49.863 234.5 49.7976C234.549 49.7321 234.606 49.6584 234.671 49.5848C234.721 49.5356 234.778 49.4865 234.851 49.4374C234.917 49.3965 234.999 49.3474 235.097 49.3146C235.318 49.2328 235.498 49.1919 235.654 49.1919C235.842 49.1919 236.006 49.2246 236.153 49.2819C236.3 49.3474 236.439 49.4374 236.562 49.5684C236.808 49.8139 236.93 50.1086 236.93 50.4524C236.93 50.5915 236.89 50.7307 236.816 50.8698C236.734 51.0089 236.628 51.1481 236.48 51.2709C236.358 51.3855 236.259 51.5082 236.194 51.6392C236.128 51.7701 236.096 51.9011 236.096 52.0403H235.122C235.122 51.9175 235.146 51.7783 235.187 51.6392C235.228 51.5 235.302 51.3609 235.392 51.2218L235.866 50.6652C235.924 50.6079 235.956 50.526 235.956 50.4033C235.956 50.2969 235.924 50.2068 235.866 50.1413C235.801 50.0759 235.727 50.0349 235.645 50.0349C235.555 50.0349 235.482 50.0595 235.424 50.1168C235.375 50.1577 235.334 50.215 235.31 50.305C235.285 50.3869 235.277 50.4851 235.277 50.5997H234.295L234.279 50.6079Z" fill="white"/>
<path d="M239.656 60.3972V54.2339H241.023V54.8068C241.211 54.5613 241.465 54.3648 241.768 54.2339C242.071 54.1029 242.39 54.0374 242.734 54.0374C243.077 54.0374 243.38 54.1029 243.691 54.2339C244.002 54.3648 244.272 54.5531 244.493 54.7986L244.583 54.8887C244.583 54.8887 244.624 54.9296 244.649 54.9787C244.862 55.2734 245.001 55.6253 245.075 56.0428C245.116 56.3047 245.14 56.6894 245.14 57.1968V60.389H243.659V57.0331C243.659 56.8858 243.65 56.7794 243.634 56.7139C243.601 56.4111 243.528 56.1819 243.413 56.01C243.307 55.8381 243.159 55.699 242.979 55.6089C242.799 55.5189 242.611 55.4698 242.423 55.4698C242.234 55.4698 242.03 55.5189 241.833 55.6171C241.637 55.7154 241.49 55.8463 241.391 56.01C241.293 56.1737 241.219 56.3702 241.187 56.6075C241.17 56.7303 241.162 56.8449 241.154 56.9677C241.154 57.0904 241.146 57.2296 241.146 57.4015V60.3808H239.664L239.656 60.3972Z" fill="white"/>
<path d="M251.164 54.2339H252.523V59.4641C252.523 59.9634 252.466 60.389 252.343 60.7491C252.212 61.142 251.991 61.5022 251.664 61.8459C251.344 62.1815 250.968 62.4434 250.534 62.6317C250.1 62.82 249.658 62.91 249.208 62.91C248.545 62.91 247.923 62.7217 247.35 62.3534C246.777 61.9851 246.376 61.4858 246.147 60.8719H247.825C247.988 61.0438 248.193 61.183 248.455 61.2975C248.717 61.4121 248.962 61.4694 249.208 61.4694C249.454 61.4694 249.707 61.4285 249.953 61.3385C250.198 61.2484 250.411 61.1257 250.591 60.9538C250.747 60.8146 250.87 60.6591 250.951 60.4954C251.033 60.3317 251.107 60.0125 251.189 59.5541C250.919 59.8979 250.624 60.1516 250.321 60.3235C249.977 60.52 249.601 60.6182 249.2 60.6182C248.823 60.6182 248.43 60.5282 248.029 60.3563C247.628 60.1762 247.285 59.947 246.998 59.6524C246.703 59.3413 246.474 58.973 246.311 58.5556C246.237 58.3427 246.18 58.1299 246.139 57.9171C246.098 57.7043 246.081 57.4833 246.081 57.246C246.081 56.8449 246.155 56.4684 246.294 56.1001C246.433 55.7317 246.638 55.4043 246.908 55.0933C247.203 54.7659 247.546 54.5122 247.948 54.3239C248.349 54.1357 248.782 54.0456 249.241 54.0456C249.666 54.0456 250.043 54.1275 250.37 54.2994C250.722 54.4794 251.001 54.7413 251.189 55.0933V54.2421L251.164 54.2339ZM251.131 57.3442C251.131 56.8122 250.96 56.3702 250.608 56.0182C250.256 55.6663 249.822 55.4862 249.282 55.4862C249.061 55.4862 248.832 55.5353 248.611 55.6253C248.39 55.7236 248.193 55.8545 248.021 56.0346C247.866 56.1983 247.743 56.3947 247.653 56.6075C247.579 56.8122 247.538 57.0413 247.538 57.2951C247.538 57.8271 247.718 58.2773 248.07 58.6292C248.422 58.9812 248.864 59.1613 249.396 59.1613C249.871 59.1613 250.28 58.9812 250.624 58.621C250.96 58.2609 251.131 57.8353 251.131 57.3442Z" fill="white"/>
<path d="M261.207 58.3918H262.877C262.681 59.0385 262.296 59.5705 261.723 59.9797C261.15 60.389 260.512 60.5936 259.824 60.5936C259.415 60.5936 259.005 60.5118 258.596 60.3481C258.187 60.1844 257.827 59.9552 257.532 59.6687C257.205 59.3495 256.951 58.9894 256.779 58.5801C256.607 58.1709 256.525 57.737 256.525 57.2705C256.525 56.3783 256.845 55.6171 257.491 54.9787C258.13 54.3485 258.907 54.0292 259.816 54.0292C260.495 54.0292 261.134 54.2339 261.723 54.6513C262.312 55.0687 262.705 55.6089 262.885 56.2719H261.215C260.896 55.7399 260.421 55.4698 259.791 55.4698C259.267 55.4698 258.842 55.6417 258.506 55.9855C258.171 56.3292 258.007 56.763 258.007 57.2869C258.007 57.8107 258.179 58.2773 258.531 58.621C258.883 58.973 259.325 59.1449 259.865 59.1449C260.143 59.1449 260.397 59.0794 260.634 58.9402C260.863 58.8093 261.06 58.621 261.215 58.3837" fill="white"/>
<path d="M270.162 54.2338V60.3972H268.803V59.5623C268.574 59.8733 268.263 60.1189 267.862 60.3153C267.469 60.5036 267.076 60.6018 266.683 60.6018C266.208 60.6018 265.783 60.5117 265.406 60.3399C265.03 60.1598 264.694 59.9061 264.416 59.5705C264.17 59.2758 263.982 58.932 263.843 58.5392C263.712 58.1463 263.638 57.7452 263.638 57.3278C263.638 56.8858 263.704 56.4765 263.818 56.1246C263.941 55.7645 264.146 55.4289 264.432 55.1096C264.743 54.7495 265.095 54.4794 265.48 54.3075C265.865 54.1356 266.282 54.0456 266.732 54.0456C267.182 54.0456 267.551 54.1356 267.903 54.3157C268.255 54.4958 268.557 54.7577 268.803 55.1096V54.242H270.162V54.2338ZM264.8 53.4972L266.454 51.9666H267.624L269.245 53.4972H267.632L267.027 52.7851L266.413 53.4972H264.8ZM268.754 57.3032C268.754 56.7794 268.59 56.3456 268.263 55.9936C267.935 55.6499 267.51 55.478 266.978 55.478C266.446 55.478 266.004 55.658 265.652 56.01C265.3 56.3701 265.128 56.8203 265.128 57.3687C265.128 57.868 265.308 58.2936 265.66 58.6374C266.012 58.9812 266.446 59.153 266.953 59.153C267.461 59.153 267.911 58.9812 268.246 58.6292C268.582 58.2772 268.754 57.8352 268.754 57.3032ZM268.942 52.5396L268.386 51.5164L270.89 50.0349L271.479 51.189L268.942 52.5396Z" fill="white"/>
<path d="M271.258 62.4598V54.2339H272.609V55.036C272.846 54.7004 273.141 54.4467 273.477 54.283C273.82 54.1193 274.197 54.0374 274.614 54.0374C275.081 54.0374 275.49 54.1111 275.842 54.2666C276.194 54.4221 276.538 54.6759 276.857 55.036C276.988 55.1751 277.111 55.3307 277.217 55.5025C277.324 55.6744 277.414 55.8627 277.487 56.0673C277.635 56.4684 277.708 56.8858 277.708 57.3196C277.708 58.2118 277.422 58.973 276.841 59.6114C276.243 60.2744 275.498 60.6018 274.614 60.6018C274.213 60.6018 273.861 60.5363 273.567 60.3972C273.272 60.258 272.994 60.037 272.74 59.7342V62.4598H271.258ZM274.459 55.4862C273.951 55.4862 273.518 55.6662 273.174 56.0182C272.83 56.3702 272.65 56.804 272.65 57.3278C272.65 57.5979 272.699 57.8516 272.789 58.0808C272.879 58.31 273.026 58.5146 273.231 58.6947C273.387 58.8338 273.567 58.9484 273.788 59.0385C274.009 59.1203 274.213 59.1694 274.41 59.1694C274.934 59.1694 275.367 58.9894 275.719 58.6374C276.063 58.2854 276.235 57.8435 276.235 57.3196C276.235 56.7958 276.063 56.3865 275.727 56.0264C275.392 55.6662 274.966 55.4944 274.467 55.4944" fill="white"/>
<path d="M154.949 16.149C154.229 15.6907 153.345 15.4533 152.306 15.4533C150.972 15.4533 149.883 15.8707 149.048 16.7056V15.969H143.924V36.5624H149.253V23.139C149.253 22.4679 149.466 21.9195 149.908 21.4775C150.341 21.0355 150.882 20.8145 151.561 20.8145C152.011 20.8145 152.404 20.9536 152.756 21.2401L153.411 21.7721L155.351 16.4028L154.949 16.1408V16.149Z" fill="white"/>
<path d="M166.408 15.4533C163.249 15.4533 160.548 16.4682 158.387 18.4818C156.21 20.5035 155.113 23.1227 155.113 26.2739C155.113 29.4251 156.226 32.0116 158.412 34.0496C160.589 36.0713 163.282 37.0945 166.417 37.0945C169.552 37.0945 172.244 36.0713 174.413 34.0496C176.599 32.0116 177.712 29.4006 177.712 26.2739C177.712 23.1472 176.607 20.5035 174.438 18.4818C172.277 16.4764 169.576 15.4533 166.417 15.4533M172.113 26.2739C172.113 27.9109 171.581 29.245 170.485 30.3418C169.388 31.4386 168.062 31.9706 166.417 31.9706C164.771 31.9706 163.445 31.4386 162.349 30.3418C161.252 29.245 160.72 27.9191 160.72 26.2739C160.72 24.6287 161.252 23.3027 162.349 22.2059C163.445 21.1091 164.771 20.5771 166.417 20.5771C168.062 20.5771 169.388 21.1091 170.485 22.2059C171.581 23.3027 172.113 24.6287 172.113 26.2739Z" fill="white"/>
<path d="M191.045 24.2031L186.838 23.4009C184.759 23.008 184.759 22.2059 184.759 21.944C184.759 21.5839 184.858 21.0436 185.692 20.5853C186.298 20.2579 186.986 20.0942 187.739 20.0942C189.359 20.0942 190.988 20.7735 192.584 22.1159L193.051 22.5088L196.21 18.6127L195.694 18.2444C193.092 16.3864 190.382 15.4451 187.657 15.4451C185.48 15.4451 183.605 16.0262 182.091 17.164C180.331 18.4572 179.439 20.2088 179.439 22.3778C179.439 24.3258 180.307 25.8482 182.009 26.8959C183.098 27.5507 184.694 28.0746 186.896 28.492L189.261 28.9422C191.34 29.3269 191.34 30.2436 191.34 30.5874C191.34 30.9311 191.234 31.4632 190.268 31.9297C189.605 32.2571 188.868 32.429 188.082 32.429C185.93 32.429 184.072 31.5614 182.41 29.7771L181.985 29.3187L178.236 33.1083L178.727 33.5258C181.493 35.8831 184.563 37.0781 187.853 37.0781C190.161 37.0781 192.159 36.5051 193.804 35.3674C195.703 34.0496 196.668 32.2244 196.668 29.9489C196.668 26.8223 194.778 24.8906 191.054 24.1867" fill="white"/>
<path d="M206.58 31.0866C206.008 30.5219 205.713 29.5397 205.713 28.1564V21.1009H209.077V15.9771H205.713V9.49458L200.384 10.9924V15.9771H198.019V21.1009H200.384V28.9176C200.384 36.2023 206.687 36.5706 206.777 36.5706H209.282V31.6759H208.553C208.087 31.6841 207.211 31.7087 206.572 31.0866" fill="white"/>
<path d="M222.214 15.4533C219.054 15.4533 216.353 16.4682 214.193 18.4818C212.015 20.5035 210.919 23.1227 210.919 26.2739C210.919 29.4251 212.032 32.0116 214.217 34.0496C216.394 36.0713 219.087 37.0945 222.214 37.0945C225.341 37.0945 228.042 36.0713 230.219 34.0496C232.404 32.0116 233.517 29.4006 233.517 26.2739C233.517 23.1472 232.412 20.5035 230.243 18.4818C228.083 16.4764 225.381 15.4533 222.222 15.4533M227.919 26.2739C227.919 27.9109 227.387 29.245 226.29 30.3418C225.193 31.4386 223.867 31.9706 222.222 31.9706C220.577 31.9706 219.251 31.4386 218.154 30.3418C217.057 29.245 216.525 27.9191 216.525 26.2739C216.525 24.6287 217.057 23.3027 218.154 22.2059C219.251 21.1091 220.577 20.5771 222.222 20.5771C223.867 20.5771 225.193 21.1091 226.29 22.2059C227.387 23.3027 227.919 24.6287 227.919 26.2739Z" fill="white"/>
<path d="M246.867 15.4533C244.641 15.4533 242.832 16.0999 241.481 17.3686V15.969H236.153V36.5624H241.481V25.1034C241.481 23.7529 241.85 22.7298 242.603 21.9522C243.356 21.1828 244.362 20.8063 245.688 20.8063C248.455 20.8063 249.74 22.1977 249.74 25.1771V36.5543H255.068V24.2522C255.068 21.8704 254.324 19.8077 252.859 18.1216C251.287 16.3373 249.273 15.4369 246.867 15.4369" fill="white"/>
<path d="M279.992 26.9532C279.992 23.3436 278.74 20.4052 276.268 18.2117C274.213 16.3782 271.881 15.4533 269.335 15.4533C266.176 15.4533 263.475 16.4682 261.314 18.4818C259.136 20.5035 258.04 23.1227 258.04 26.2739C258.04 29.4251 259.145 32.0443 261.314 34.066C263.475 36.0713 266.176 37.0945 269.343 37.0945C273.043 37.0699 276.235 35.4002 278.821 32.1425L279.263 31.5941L274.663 29.0322L274.352 29.4497C272.961 31.3077 271.283 32.2162 269.22 32.2162C267.854 32.2162 266.667 31.7906 265.594 30.9066C264.719 30.1945 264.187 29.3433 263.974 28.3201H280V26.9614L279.992 26.9532ZM265.635 21.4365C266.495 20.6999 267.518 20.3398 268.77 20.3398C271.152 20.3398 272.756 21.4284 273.657 23.671H264.097C264.44 22.7707 264.956 22.0259 265.635 21.4365Z" fill="white"/>
<path d="M117.159 29.0076L117.004 27.9681L116.185 28.6311C113.967 30.4318 111.176 31.4222 108.328 31.4222C102.541 31.4222 97.5644 27.4525 96.2466 21.8867H115.882V16.0917H96.2466C97.5644 10.5177 102.541 6.54798 108.328 6.54798C111.282 6.54798 114.139 7.60385 116.374 9.51096L117.135 10.1658L118.608 3.38038L118.256 3.15939C115.293 1.29321 111.855 0.302826 108.328 0.302826C99.1195 0.302826 91.2783 7.05545 89.8705 16.0999H86.0563L83.3961 21.8949H89.8787C91.2865 30.9311 99.1277 37.6919 108.336 37.6919C112.011 37.6919 115.58 36.6197 118.641 34.598L119.148 34.2624L118.804 33.7549C117.994 32.5763 117.47 31.0703 117.167 29.0158" fill="white"/>
<path d="M135.003 27.4362C135.003 28.6557 134.618 29.6543 133.832 30.4892C133.055 31.3159 132.089 31.7251 130.877 31.7251C129.666 31.7251 128.692 31.324 127.923 30.4892C127.137 29.6461 126.752 28.6475 126.752 27.4362V15.9772H121.424V27.7963C121.424 30.4892 122.332 32.74 124.133 34.4753C125.925 36.2105 128.193 37.0863 130.877 37.0863C133.562 37.0863 135.838 36.2105 137.622 34.4753C139.414 32.74 140.331 30.4892 140.331 27.7963V15.9772H135.003V27.4362Z" fill="white"/>
<path d="M10.654 60.569H0.78687C0.349721 60.569 0 60.235 0 59.8174V27.0017C0 21.3823 4.77118 16.8247 10.654 16.8247C11.0911 16.8247 11.4408 17.1647 11.4408 17.5763V59.8174C11.4408 60.235 11.0849 60.569 10.654 60.569Z" fill="white"/>
<path d="M52.4256 60.569H43.1389C42.7275 60.569 42.3983 60.238 42.3983 59.8243V24.2168C42.3983 18.6487 46.8889 14.1328 52.4256 14.1328C52.837 14.1328 53.1662 14.4697 53.1662 14.8775V59.8243C53.1662 60.238 52.8311 60.569 52.4256 60.569Z" fill="white"/>
<path d="M19.4771 60.5631H13.4994C13.1035 60.5631 12.7868 60.228 12.7868 59.8091V23.6356C12.7868 23.2167 13.1091 22.8816 13.4994 22.8816C17.1923 22.8816 20.1897 26.0532 20.1897 29.9607V59.8151C20.1897 60.2339 19.8673 60.569 19.4771 60.569" fill="white"/>
<path d="M39.6502 60.5691H22.9378C22.5327 60.5691 22.2086 60.2366 22.2086 59.8211V17.8905C22.2086 8.00741 30.0151 0 39.6502 0C40.0553 0 40.3794 0.332406 40.3794 0.747913V59.8211C40.3794 60.2366 40.0495 60.5691 39.6502 60.5691Z" fill="white"/>
<path d="M55.2819 9.42181C54.8543 9.42181 54.5121 9.75944 54.5121 10.1681V59.8227C54.5121 60.2373 54.8604 60.569 55.2819 60.569H66.5292C66.9568 60.569 67.2989 60.2373 67.2989 59.8227V21.0728C67.2989 14.6402 61.9166 9.42181 55.2819 9.42181Z" fill="white"/>
</svg>
