<?xml version="1.0" encoding="utf-8"?>
<!-- Generator: Adobe Illustrator 27.2.0, SVG Export Plug-In . SVG Version: 6.00 Build 0)  -->
<svg version="1.1" id="Layer_1" xmlns="http://www.w3.org/2000/svg" xmlns:xlink="http://www.w3.org/1999/xlink" x="0px" y="0px"
	 viewBox="0 0 1920 141.2" style="enable-background:new 0 0 1920 141.2;" xml:space="preserve">
<style type="text/css">
	.st0{fill:#DEE0E7;}
	.st1{fill:#000936;}
</style>
<path class="st0" d="M1920,38.9v102.3H0V48.9C57.2,6,202.7-7.7,302.7,4c154.2,18,220.5,99.9,396.5,97.5
	C879.4,99.1,959.6,9.1,1180.1,4c220.5-5.1,297.6,122.9,427.1,124.4C1736.7,129.9,1779.9,41.8,1920,38.9z"/>
<path class="st1" d="M1920,70.8v70.4H0v-81c74.4-35.1,179.3-51.2,251.8-49C480,18.2,571,137.7,740.6,125.4
	c169.6-12.3,222.6-81.7,414.8-81.7c192.2,0,343.1,167.4,627.3,59.4C1846.6,78.7,1869.2,71.4,1920,70.8z"/>
</svg>
