<svg width="30" height="30" viewBox="0 0 30 30" fill="none" xmlns="http://www.w3.org/2000/svg">
<g clip-path="url(#clip0_409_3318)">
<path d="M15 30C23.2843 30 30 23.2843 30 15C30 6.71573 23.2843 0 15 0C6.71573 0 0 6.71573 0 15C0 23.2843 6.71573 30 15 30Z" fill="white"/>
<path fill-rule="evenodd" clip-rule="evenodd" d="M15 3.88867C8.61555 3.88867 3.66666 8.56423 3.66666 14.882C3.66666 18.1865 5.01999 21.042 7.22666 23.0131C7.4111 23.1798 7.52443 23.4109 7.5311 23.6598L7.59332 25.6753C7.61332 26.3176 8.27777 26.7376 8.86666 26.4776L11.1155 25.4842C11.3067 25.3998 11.52 25.3842 11.72 25.4398C12.7533 25.7242 13.8533 25.8753 15 25.8753C21.3844 25.8753 26.3333 21.1998 26.3333 14.882C26.3333 8.56423 21.3844 3.88867 15 3.88867Z" fill="url(#paint0_radial_409_3318)"/>
<path fill-rule="evenodd" clip-rule="evenodd" d="M8.19331 18.0972L11.5222 12.8149C12.0511 11.9749 13.1866 11.7661 13.98 12.3616L16.6289 14.3483C16.8711 14.5305 17.2066 14.5305 17.4489 14.3461L21.0244 11.6327C21.5022 11.2705 22.1244 11.8416 21.8044 12.3483L18.4755 17.6305C17.9466 18.4705 16.8111 18.6794 16.0178 18.0838L13.3689 16.0972C13.1266 15.9149 12.7911 15.9149 12.5489 16.0994L8.97331 18.8127C8.49553 19.1749 7.87331 18.6038 8.19331 18.0972Z" fill="white"/>
</g>
<defs>
<radialGradient id="paint0_radial_409_3318" cx="0" cy="0" r="1" gradientUnits="userSpaceOnUse" gradientTransform="translate(8.14888 26.8065) scale(24.8889 24.8889)">
<stop stop-color="#5697FB"/>
<stop offset="0.61" stop-color="#8936F9"/>
<stop offset="0.93" stop-color="#DD537E"/>
<stop offset="1" stop-color="#E06F62"/>
</radialGradient>
<clipPath id="clip0_409_3318">
<rect width="30" height="30" fill="white"/>
</clipPath>
</defs>
</svg>
