<svg width="14" height="14" viewBox="0 0 14 14" fill="none" xmlns="http://www.w3.org/2000/svg">
<g clip-path="url(#clip0_409_3330)">
<path d="M1.13004 8.66807C1.0006 8.66631 0.871417 8.65606 0.743321 8.63736C0.540168 8.59527 0.357194 8.48573 0.22409 8.32652C0.0909867 8.1673 0.0155642 7.96776 0.010062 7.76027C-0.00221476 7.25221 -0.00444691 6.74304 0.010062 6.23499C0.0245709 5.72693 0.421892 5.34896 0.952026 5.3417C1.10939 5.3417 1.17524 5.29536 1.2277 5.14127C1.3393 4.81969 1.47881 4.50816 1.61832 4.19942C1.66799 4.0911 1.68026 4.02578 1.58707 3.92864C1.14566 3.46804 1.1585 2.94993 1.61162 2.49492C1.91631 2.18897 2.22044 1.88078 2.52792 1.57874C2.95761 1.1589 3.49444 1.14941 3.91743 1.56311C4.02178 1.6664 4.09042 1.6664 4.21933 1.60498C4.52569 1.45871 4.84209 1.33141 5.16129 1.21417C5.2902 1.16727 5.34712 1.11982 5.34823 0.970192C5.35325 0.373925 5.73886 0.000978432 6.33763 -0.00125478C6.78406 -0.00348799 7.23049 -0.00348799 7.67691 -0.00125478C8.26229 0.00153673 8.65403 0.376158 8.6585 0.956793C8.6585 1.11312 8.71765 1.1656 8.85381 1.21529C9.17301 1.33197 9.48718 1.46429 9.79577 1.6061C9.91296 1.66193 9.9816 1.66695 10.0809 1.56925C10.5089 1.14773 11.0447 1.14997 11.4688 1.56925C11.7913 1.88637 12.1114 2.20627 12.4291 2.52897C12.8393 2.94603 12.8471 3.48479 12.442 3.90407C12.3449 4.00457 12.3259 4.07156 12.3895 4.20611C12.5385 4.51876 12.6652 4.84314 12.7896 5.16751C12.8304 5.27471 12.865 5.335 13.0011 5.33947C13.644 5.35454 13.9989 5.72637 14.0006 6.3673C14.0006 6.79943 14.0006 7.23156 14.0006 7.66313C13.9944 8.26274 13.6161 8.64909 13.0223 8.65355C12.8901 8.65355 12.8337 8.69319 12.7868 8.82104C12.6646 9.15324 12.5279 9.4804 12.38 9.80198C12.327 9.91699 12.336 9.98008 12.423 10.0705C12.8482 10.5105 12.8427 11.0431 12.4158 11.4752C12.1077 11.7879 11.7974 12.0983 11.4849 12.4065C11.048 12.838 10.5207 12.8464 10.0798 12.4238C9.99388 12.3406 9.93194 12.3177 9.81196 12.3735C9.48495 12.5254 9.14901 12.6594 8.81252 12.7895C8.70928 12.8297 8.66073 12.8699 8.65794 12.9927C8.64231 13.6353 8.27178 13.9943 7.63339 13.9976C7.20147 13.9976 6.76955 14.001 6.33763 13.9976C5.74109 13.992 5.35493 13.6141 5.34656 13.0223C5.34656 12.8933 5.31419 12.8319 5.1825 12.7839C4.84767 12.6644 4.52401 12.5243 4.20147 12.378C4.08986 12.3266 4.02457 12.3289 3.93138 12.4176C3.47546 12.8525 2.95761 12.8408 2.51118 12.3992C2.20035 12.0899 1.88897 11.7806 1.58093 11.4685C1.16352 11.0459 1.1585 10.506 1.57535 10.0789C1.66966 9.98232 1.67524 9.91141 1.61888 9.79305C1.45091 9.42904 1.29689 9.05553 1.13004 8.66807ZM8.66352 12.0006C9.04243 11.8124 9.37557 11.6589 9.69756 11.4836C10.0195 11.3083 10.149 11.3161 10.4152 11.5791C10.4939 11.6578 10.5759 11.7343 10.6507 11.8163C10.7349 11.9079 10.8092 11.9073 10.8968 11.8163C11.2056 11.5037 11.516 11.1935 11.8281 10.8856C11.9197 10.7958 11.9068 10.7221 11.8192 10.6394C11.7126 10.5395 11.6094 10.4357 11.5089 10.329C11.3415 10.152 11.3164 9.98678 11.4425 9.77909C11.7457 9.27865 11.9714 8.73524 12.1122 8.16727C12.1736 7.92497 12.3125 7.82782 12.5675 7.82113C12.7065 7.81778 12.8466 7.81666 12.9855 7.82113C13.106 7.82559 13.1663 7.78093 13.1652 7.65363C13.1622 7.21481 13.1622 6.77598 13.1652 6.33716C13.1652 6.20596 13.0993 6.16967 12.9827 6.16967C12.8365 6.17302 12.6897 6.17525 12.5435 6.16967C12.3008 6.15682 12.1708 6.058 12.1111 5.82128C11.9703 5.25332 11.7445 4.70991 11.4414 4.20946C11.3164 4.00289 11.3443 3.83875 11.5117 3.65954C11.6116 3.55234 11.7154 3.44906 11.822 3.34912C11.9113 3.26482 11.9158 3.1928 11.8248 3.10402C11.5108 2.79733 11.2 2.4884 10.8923 2.17724C10.8025 2.08512 10.731 2.09294 10.6479 2.18227C10.548 2.2889 10.4442 2.39219 10.3376 2.49213C10.1585 2.65962 9.99332 2.68809 9.78852 2.56247C9.28874 2.25836 8.74546 2.03244 8.17747 1.89251C7.93528 1.83165 7.8354 1.69375 7.82758 1.43972C7.82312 1.29345 7.82368 1.14717 7.82758 1.0009C7.82758 0.885888 7.77736 0.839549 7.66352 0.840666C7.22435 0.840666 6.78573 0.844016 6.34712 0.840666C6.21653 0.840666 6.17636 0.900404 6.1797 1.01988C6.18417 1.16616 6.18473 1.31243 6.1797 1.45871C6.17078 1.67589 6.072 1.835 5.8527 1.88804C5.27013 2.02694 4.71295 2.25639 4.20147 2.56805C4.01787 2.67971 3.84042 2.6518 3.68305 2.50552C3.56642 2.39386 3.45984 2.27048 3.33707 2.17054C3.29187 2.13537 3.16966 2.12755 3.13395 2.16105C2.80694 2.47482 2.48774 2.79659 2.17636 3.12636C2.15931 3.15771 2.15038 3.19284 2.15038 3.22853C2.15038 3.26422 2.15931 3.29934 2.17636 3.3307C2.27124 3.44175 2.3728 3.5469 2.48049 3.64558C2.66687 3.84099 2.69477 4.00457 2.55805 4.22901C2.25812 4.72244 2.03531 5.25883 1.89734 5.81961C1.83819 6.058 1.70872 6.15738 1.46598 6.17022C1.31363 6.1786 1.15962 6.17525 1.00671 6.17022C0.895107 6.17022 0.839303 6.21489 0.839303 6.33213C0.841535 6.77096 0.841535 7.20978 0.839303 7.64861C0.839303 7.77423 0.891758 7.82447 1.01508 7.82057C1.16129 7.8161 1.30749 7.8161 1.4537 7.82057C1.69366 7.82838 1.83372 7.92888 1.89176 8.16113C2.03294 8.73636 2.26221 9.28628 2.57145 9.79138C2.68808 9.98176 2.65404 10.1654 2.50002 10.3251C2.39845 10.4306 2.29745 10.5362 2.18975 10.6355C2.09098 10.726 2.09154 10.803 2.18975 10.8957C2.43026 11.128 2.66185 11.3691 2.90013 11.6036C3.28071 11.9771 3.1758 11.9861 3.55749 11.6081C3.86944 11.2999 3.96542 11.2949 4.35939 11.5087C4.66743 11.6762 4.98941 11.8186 5.34321 11.9905C5.34321 11.4166 5.33763 10.903 5.34321 10.3899C5.34321 10.2269 5.3047 10.1358 5.1479 10.0549C3.05638 8.94666 2.54299 6.16073 4.10158 4.37472C4.4364 3.98949 4.81475 3.6439 5.32089 3.49428C5.71151 3.37815 6.05303 3.57356 6.16073 3.9666C6.1952 4.09401 6.21265 4.22542 6.21263 4.35742C6.21263 5.06088 6.20147 5.76434 6.19868 6.4678C6.19711 6.57902 6.20797 6.69006 6.23104 6.79887C6.30973 7.14893 6.6479 7.44427 6.97937 7.46437C7.26787 7.48112 7.62278 7.22709 7.73774 6.90104C7.78102 6.77642 7.80345 6.64551 7.80415 6.51358C7.81084 5.89945 7.80415 5.28531 7.80749 4.67453C7.80749 4.47354 7.79187 4.2692 7.81977 4.07156C7.88729 3.59924 8.2662 3.36754 8.71932 3.50433C8.81919 3.53403 8.91555 3.57447 9.00671 3.62492C10.2679 4.33285 11.0257 5.9363 10.7701 7.36164C10.5506 8.58246 9.89548 9.49194 8.8047 10.0901C8.74332 10.123 8.66966 10.2045 8.66854 10.2648C8.65794 10.8209 8.6624 11.377 8.6624 12.0034L8.66352 12.0006ZM5.36553 4.38198C5.31308 4.41548 5.28406 4.43167 5.25783 4.45065C4.40069 5.08042 3.96207 5.92457 4.0402 6.98367C4.12334 8.13657 4.72881 8.9623 5.78573 9.43183C6.07089 9.55912 6.1864 9.73164 6.18305 10.037C6.17301 10.9906 6.18305 11.9447 6.17468 12.8983C6.17189 13.1155 6.24499 13.1741 6.45091 13.1663C6.82647 13.1524 7.20258 13.1535 7.57814 13.1663C7.77011 13.1725 7.83149 13.1105 7.82982 12.9162C7.82144 11.9626 7.83316 11.0085 7.822 10.0543C7.81865 9.74336 7.92357 9.55912 8.22323 9.43239C8.87239 9.16162 9.39855 8.66027 9.70049 8.02476C10.0024 7.38926 10.0588 6.66449 9.85883 5.98989C9.66941 5.33044 9.24468 4.76347 8.66519 4.3965C8.64845 4.41604 8.64064 4.4205 8.64064 4.42553C8.64064 5.00281 8.64455 5.5801 8.64064 6.15627C8.64722 6.39272 8.6364 6.62933 8.60828 6.86419C8.47937 7.71058 7.73495 8.32136 6.95816 8.29568C6.15627 8.26944 5.45649 7.62069 5.39566 6.81841C5.33986 6.06359 5.37111 5.30206 5.36441 4.54389L5.36553 4.38198Z" fill="white"/>
</g>
<defs>
<clipPath id="clip0_409_3330">
<rect width="14" height="14" fill="white"/>
</clipPath>
</defs>
</svg>
