<svg width="16" height="16" viewBox="0 0 16 16" fill="none" xmlns="http://www.w3.org/2000/svg">
<g clip-path="url(#clip0_409_3352)">
<path d="M0 4.42886C0.0232166 4.24439 0.0363022 4.05782 0.0721824 3.87588C0.162516 3.42253 0.364711 3.02152 0.688898 2.69015C1.11735 2.25199 1.53103 1.79484 1.9924 1.3934C2.69523 0.782174 3.458 0.785551 4.13423 1.41957C4.85395 2.09412 5.54411 2.80244 6.21697 3.52468C6.71634 4.06077 6.71127 4.88306 6.22668 5.43477C5.86703 5.8438 5.47109 6.22118 5.08485 6.60615C5.01013 6.68044 4.99578 6.72899 5.04475 6.82776C5.43141 7.61037 5.97763 8.27521 6.56817 8.9067C7.17391 9.55423 7.84002 10.133 8.58928 10.6104C8.80245 10.7463 9.03082 10.8586 9.26805 10.9907C9.55889 10.6965 9.83495 10.3997 10.1304 10.1237C10.3453 9.92316 10.5661 9.71463 10.8193 9.57238C11.3512 9.27352 12.0004 9.34908 12.4398 9.77204C13.1769 10.482 13.9038 11.2039 14.6049 11.9485C15.1262 12.5019 15.1304 13.3398 14.6264 13.913C14.1845 14.4158 13.7117 14.8932 13.2309 15.3592C12.8632 15.7155 12.4023 15.9046 11.8928 15.9704C11.8577 15.9751 11.824 15.9894 11.7894 15.9996C11.5918 15.9996 11.3943 15.9996 11.1967 15.9996C11.1625 15.9903 11.1283 15.9785 11.0937 15.9717C10.7573 15.9105 10.4154 15.8717 10.0853 15.7851C8.91431 15.4782 7.84635 14.9337 6.83158 14.2912C4.2862 12.6804 2.32756 10.5264 0.959899 7.84169C0.575348 7.08737 0.274377 6.29716 0.109329 5.46221C0.0561418 5.19374 0.035458 4.91894 0 4.6471C0 4.57449 0 4.50146 0 4.42886ZM0.918109 4.56225C0.934994 4.74292 0.949346 4.92401 0.969608 5.10467C0.978894 5.18699 0.999156 5.26803 1.01731 5.34908C1.26382 6.45039 1.7252 7.4639 2.31363 8.41831C3.87885 10.9578 5.96201 12.9434 8.65091 14.2668C9.47868 14.6741 10.3331 15.0029 11.2651 15.084C11.8396 15.1338 12.3445 14.9975 12.7539 14.5698C13.0916 14.217 13.4369 13.8717 13.7775 13.5217C13.8282 13.4698 13.8772 13.4154 13.9215 13.3579C14.1401 13.0734 14.141 12.7758 13.8991 12.5091C13.6547 12.2402 13.3921 11.9873 13.1355 11.7298C12.7358 11.3284 12.3373 10.9261 11.9325 10.5297C11.6395 10.2427 11.328 10.241 11.0207 10.5124C10.9738 10.5538 10.9295 10.5977 10.8856 10.6416C10.5289 10.9975 10.1743 11.3558 9.81511 11.7096C9.56522 11.9552 9.28662 12.0148 8.98945 11.867C8.68763 11.7172 8.38751 11.5597 8.103 11.3799C7.12959 10.764 6.29 9.99154 5.53567 9.12493C5.01942 8.53186 4.54791 7.90628 4.21317 7.1891C3.92951 6.58251 3.9675 6.41704 4.4542 5.94764C4.80203 5.61248 5.14774 5.27436 5.47911 4.92274C5.75011 4.63528 5.74166 4.34697 5.48628 4.04558C5.45589 4.01012 5.42465 3.97508 5.39173 3.94216C4.78599 3.33515 4.18109 2.72772 3.57324 2.12282C3.50401 2.05402 3.42507 1.98943 3.33981 1.943C3.07303 1.79695 2.80118 1.85942 2.52596 2.13C2.18151 2.46896 1.84888 2.81974 1.49852 3.15279C1.09202 3.53861 0.898692 4.00294 0.918109 4.56225Z" fill="white"/>
<path d="M8.87463 0.0322266C9.06585 0.0714836 9.29675 0.109052 9.52258 0.16646C10.9063 0.517241 12.1359 1.16055 13.1984 2.11749C14.301 3.11032 15.1119 4.30112 15.5901 5.70635C15.74 6.14662 15.8371 6.60588 15.9405 7.06051C15.9996 7.31969 15.8485 7.53033 15.6007 7.58647C15.3677 7.63923 15.1393 7.51049 15.0709 7.26735C14.9996 7.01281 14.9561 6.75067 14.8864 6.49613C14.4166 4.78064 13.4512 3.39989 12.035 2.33615C11.1085 1.64008 10.0675 1.18714 8.92739 0.967642C8.84086 0.95118 8.75306 0.934717 8.67117 0.90348C8.46855 0.826654 8.35416 0.613484 8.39257 0.400736C8.43098 0.193054 8.62262 0.0334929 8.87463 0.0322266Z" fill="white"/>
<path d="M8.75389 2.93168C9.1663 2.995 9.59601 3.11277 10.0025 3.3023C11.6665 4.07689 12.6847 5.36435 13.0532 7.16385C13.1076 7.43063 12.9637 7.66828 12.7146 7.7278C12.4778 7.78394 12.2461 7.63704 12.1684 7.38082C12.0646 7.03932 11.9979 6.68052 11.851 6.35887C11.2241 4.98487 10.1583 4.14612 8.67706 3.83924C8.40817 3.78352 8.26296 3.62691 8.26043 3.39348C8.25663 3.13008 8.4584 2.92831 8.75389 2.93168Z" fill="white"/>
</g>
<defs>
<clipPath id="clip0_409_3352">
<rect width="16" height="16" fill="white"/>
</clipPath>
</defs>
</svg>
