<svg width="12" height="17" viewBox="0 0 12 17" fill="none" xmlns="http://www.w3.org/2000/svg">
<g clip-path="url(#clip0_409_3349)">
<path d="M5.88401 16.9998C5.80386 16.9248 5.70401 16.8616 5.64669 16.7731C4.32445 14.7232 3.07027 12.6359 1.96654 10.4668C1.3952 9.34361 0.879378 8.19834 0.49699 6.99846C0.0263931 5.52114 0.245796 4.12748 1.02669 2.80925C1.7543 1.58076 2.83565 0.751932 4.22147 0.306742C5.10132 0.0241094 6.00804 -0.0478491 6.92192 0.115141C8.96147 0.478402 10.4194 1.58639 11.2607 3.41397C11.7931 4.57007 11.8715 5.77126 11.477 6.99889C10.9876 8.52216 10.2918 9.95743 9.53729 11.368C8.55221 13.2103 7.47669 15.0036 6.33445 16.7588C6.27356 16.852 6.17192 16.9201 6.08908 17.0003C6.02102 16.9998 5.95251 16.9998 5.88401 16.9998ZM5.98744 15.9855C6.02147 15.9361 6.04789 15.9022 6.06983 15.8658C6.73386 14.7661 7.4149 13.6754 8.05744 12.564C9.02057 10.899 9.93177 9.20663 10.5904 7.4016C10.7565 6.94644 10.9079 6.47394 10.9701 5.99754C11.1224 4.8319 10.7955 3.76205 10.101 2.80969C9.27221 1.67309 8.13714 0.989482 6.70923 0.784009C5.56968 0.620152 4.49192 0.813486 3.49744 1.37268C2.21863 2.0914 1.40774 3.15864 1.07998 4.55577C0.949229 5.1128 0.913408 5.67589 1.04057 6.24549C1.25998 7.22777 1.64774 8.15066 2.07311 9.05968C3.18266 11.43 4.52729 13.6767 5.92251 15.8966C5.93863 15.9226 5.95923 15.9469 5.98744 15.9855Z" fill="white"/>
<path d="M3.27359 5.21883C3.28075 3.8061 4.49508 2.66603 5.98971 2.66993C7.49508 2.67383 8.71389 3.83037 8.69911 5.24137C8.68433 6.65583 7.46508 7.79416 5.97448 7.78506C4.47896 7.77596 3.26687 6.62419 3.27359 5.21883ZM7.98493 5.21753C7.97732 4.19017 7.08269 3.35831 5.98612 3.35874C4.88195 3.35917 3.97926 4.20664 3.98866 5.23487C3.99807 6.2709 4.89717 7.09885 6.00403 7.09148C7.10105 7.08368 7.99254 6.24055 7.98493 5.21753Z" fill="white"/>
</g>
<defs>
<clipPath id="clip0_409_3349">
<rect width="12" height="17" fill="white"/>
</clipPath>
</defs>
</svg>
