<svg width="16" height="11" viewBox="0 0 16 11" fill="none" xmlns="http://www.w3.org/2000/svg">
<g clip-path="url(#clip0_409_3356)">
<path d="M16 9.7774C15.9084 9.99589 15.8493 10.2366 15.7186 10.4279C15.4607 10.8106 15.0643 10.9778 14.6013 10.9989C14.57 10.9989 14.5387 10.9989 14.5078 10.9989C10.1707 10.9989 5.8339 10.9989 1.49736 10.9989C1.00464 10.9989 0.593319 10.8343 0.287667 10.4463C0.0970704 10.2015 -0.00357723 9.90097 0.00197332 9.59333C0.000668784 6.86495 0.00106014 4.13645 0.0031474 1.40781C0.00471284 0.582412 0.622671 0.00191331 1.48053 0C3.27688 0 5.0731 0 6.86918 0H14.5066C15.1175 0 15.5817 0.247582 15.8572 0.790197C15.9253 0.924129 15.9534 1.07758 16 1.22222V9.7774ZM1.6179 0.920685C1.66487 0.970431 1.69069 0.999896 1.71887 1.02706C3.46486 2.72583 5.21111 4.42434 6.95763 6.12259C7.5838 6.73141 8.42249 6.72643 9.05297 6.11417C10.7927 4.42332 12.5315 2.73182 14.2694 1.03969C14.3031 1.00678 14.3332 0.970431 14.3786 0.920685H1.6179ZM1.70713 10.0701H14.2886L10.3449 6.13598C10.1143 6.36558 9.90457 6.58408 9.68502 6.79225C9.02206 7.42135 8.2409 7.62875 7.34586 7.39647C6.93375 7.28971 6.58936 7.06509 6.29192 6.77005C6.0845 6.56418 5.87786 6.35755 5.6544 6.13445L1.70713 10.0701ZM4.88733 5.52602L0.950632 1.61522V9.44792L4.88733 5.52602ZM15.0568 1.60718L15.0224 1.58575L11.045 5.53482C12.3634 6.81597 13.7006 8.11524 15.0568 9.43262V1.60718Z" fill="white"/>
</g>
<defs>
<clipPath id="clip0_409_3356">
<rect width="16" height="11" fill="white"/>
</clipPath>
</defs>
</svg>
