<svg width="30" height="30" viewBox="0 0 30 30" fill="none" xmlns="http://www.w3.org/2000/svg">
<g clip-path="url(#clip0_409_3365)">
<path d="M15 30C23.2843 30 30 23.2843 30 15C30 6.71573 23.2843 0 15 0C6.71573 0 0 6.71573 0 15C0 23.2843 6.71573 30 15 30Z" fill="#DA0000"/>
<path d="M24.5822 10.1867C24.3533 9.32667 23.6756 8.64889 22.8133 8.41778C21.2533 8 15 8 15 8C15 8 8.74667 8 7.18667 8.41778C6.32667 8.64889 5.64889 9.32444 5.41778 10.1867C5 11.7467 5 15 5 15C5 15 5 18.2533 5.41778 19.8133C5.64667 20.6733 6.32444 21.3511 7.18667 21.5822C8.74667 22 15 22 15 22C15 22 21.2533 22 22.8133 21.5822C23.6733 21.3511 24.3511 20.6756 24.5822 19.8133C25 18.2533 25 15 25 15C25 15 25 11.7467 24.5822 10.1867ZM13 18V12L18.1956 15L13 18Z" fill="white"/>
</g>
<defs>
<clipPath id="clip0_409_3365">
<rect width="30" height="30" fill="white"/>
</clipPath>
</defs>
</svg>
