<svg width="30" height="29" viewBox="0 0 30 29" fill="none" xmlns="http://www.w3.org/2000/svg">
<g clip-path="url(#clip0_409_3369)">
<path d="M29.898 4.32315V24.1676C29.898 25.3586 29.4108 26.4363 28.626 27.2078H1.13281V1.46016C1.90801 0.604275 3.02641 0.0654297 4.26961 0.0654297H25.6596C28.0008 0.0654297 29.898 1.97128 29.898 4.32315Z" fill="white"/>
<path d="M28.6284 27.2138H1.1268V1.45769L1.128 1.45648C1.5216 1.02131 1.9908 0.677748 2.5224 0.436654C3.072 0.187121 3.66 0.0605469 4.2684 0.0605469H25.6584C26.2308 0.0605469 26.7876 0.173861 27.3108 0.395668C27.816 0.610241 28.2696 0.917636 28.6596 1.30941C29.0496 1.70119 29.3556 2.15686 29.5692 2.66436C29.79 3.18995 29.9028 3.74808 29.9028 4.3243V24.1687C29.9028 24.7522 29.7876 25.3176 29.5608 25.8492C29.3412 26.3627 29.028 26.822 28.6296 27.215L28.6284 27.2138ZM1.1388 27.2017H28.6236C29.442 26.3952 29.892 25.3176 29.892 24.1663V4.32309C29.892 1.97966 27.9936 0.0726016 25.6608 0.0726016H4.2696C3.0804 0.0713961 1.9404 0.578899 1.1388 1.46251V27.2017Z" fill="black"/>
<path d="M5.352 24.946C5.2344 24.8942 5.1504 24.8351 5.2872 24.717C5.3724 24.6519 5.4636 24.5928 5.5548 24.5337C6.4092 23.9768 7.2108 23.368 7.7388 22.4712C8.1816 21.725 8.1108 21.2862 7.5564 20.7353C4.4664 17.6312 3.1104 13.9172 3.7884 9.52925C4.1736 7.05322 5.3004 4.9123 6.9444 3.05226C7.9356 1.92635 9.1152 1.01502 10.4064 0.255571C10.4844 0.209763 10.596 0.196502 10.608 0.0783664C10.5816 0.013271 10.536 0.0325585 10.4976 0.0325585C8.2992 0.0325585 6.102 -0.0132493 3.912 0.0458187C1.812 0.110914 -3.69595e-06 1.74191 0.0059963 4.08053C0.0191963 10.9119 0.0059963 17.7421 0.0059963 24.5795C0.0059963 26.7012 1.6164 28.4768 3.7224 28.5552C5.502 28.6275 7.2816 28.5684 9.0684 28.5612C9.1992 28.5672 9.3288 28.5745 9.4596 28.5745H18.8736C21.2208 28.5745 23.568 28.5877 25.9152 28.5745C28.0932 28.5745 29.8596 26.8061 29.8596 24.6254V24.5856V20.7546C29.8596 20.663 29.892 20.5641 29.8332 20.4665C29.7156 20.4725 29.67 20.5714 29.6052 20.6365C28.3404 21.913 26.8476 22.9413 25.2108 23.6682C21.2016 25.4427 17.1204 25.568 12.9804 24.1395C12.6216 24.0082 12.2304 23.9949 11.8596 24.0877C11.3124 24.2251 10.7712 24.3891 10.23 24.553C8.6388 25.0509 7.0152 25.2739 5.352 24.946ZM10.0788 13.9099C10.1892 13.7653 10.248 13.6809 10.314 13.5953C11.1684 12.508 12.0216 11.4206 12.876 10.3273C13.1232 10.0126 13.3716 9.69199 13.5276 9.31227C13.71 8.8795 13.5144 8.47447 13.0716 8.31655C12.876 8.25748 12.6672 8.23096 12.4584 8.24422C11.298 8.23819 10.1304 8.23819 8.97 8.24422C8.8068 8.24422 8.6436 8.26351 8.4876 8.30329C8.1228 8.3949 7.9008 8.7686 7.992 9.14109C8.0568 9.38942 8.2524 9.58591 8.5008 9.64498C8.6568 9.68476 8.81999 9.70405 8.9832 9.69681C9.6876 9.70284 10.398 9.69681 11.1024 9.70284C11.1804 9.70284 11.2788 9.651 11.3376 9.76793C11.2788 9.84629 11.22 9.92465 11.1612 9.99697C10.1508 11.2808 9.1464 12.5707 8.136 13.8545C7.8888 14.1751 7.758 14.5295 7.9404 14.9225C8.1228 15.3155 8.4948 15.3878 8.8728 15.4132C9.1728 15.4324 9.4788 15.4192 9.786 15.4192C10.842 15.4192 11.892 15.4252 12.948 15.4132C13.5084 15.4071 13.8084 15.066 13.7496 14.5416C13.704 14.1293 13.4232 13.9123 12.9024 13.9063C11.9832 13.9039 11.064 13.9099 10.0788 13.9099ZM17.6412 10.4659C16.8264 9.75226 15.9264 9.70646 15.0468 10.2296C13.9776 10.8589 13.5864 11.8872 13.7172 13.0782C13.8408 14.192 14.3232 15.1021 15.4836 15.4746C16.2072 15.7109 16.8792 15.6253 17.472 15.1407C17.628 15.0166 17.6736 15.0431 17.7852 15.1805C18 15.4553 18.372 15.5602 18.6984 15.4361C19.0248 15.3384 19.2396 15.037 19.2396 14.6959C19.2456 13.3856 19.2528 12.0764 19.2396 10.7661C19.2336 10.2417 18.744 9.90777 18.2352 10.0126C17.9544 10.0729 17.7984 10.2622 17.6412 10.4659ZM22.1592 12.8949C22.1328 14.532 23.4828 15.77 25.1772 15.6C26.7348 15.4433 27.7464 14.2704 27.6936 12.6141C27.642 10.977 26.4288 9.85714 24.7668 9.90898C23.2092 9.95478 22.1076 11.2121 22.1592 12.8949ZM21.5856 11.5918C21.5856 10.5635 21.5916 9.54251 21.5856 8.51425C21.5856 7.98987 21.2532 7.66318 20.7576 7.66921C20.2752 7.67524 19.956 8.00313 19.9488 8.50701C19.9428 8.81441 19.9488 9.11578 19.9488 9.42438V14.6308C19.9488 15.037 20.196 15.3902 20.5224 15.4758C20.9724 15.6 21.4356 15.3312 21.552 14.8803C21.5712 14.802 21.5844 14.7236 21.5784 14.638C21.5928 13.6218 21.5856 12.6068 21.5856 11.5918Z" fill="#FDFEFE"/>
<path d="M9.0624 28.5677C7.2828 28.5677 5.496 28.6267 3.7164 28.5616C1.6104 28.476 0 26.7016 0 24.586C0 17.7558 0.0132 10.9244 0 4.08697C0 1.74956 1.8192 0.118559 3.912 0.0594906C6.102 0.000422532 8.2992 0.0462304 10.4964 0.0462304C10.536 0.0462304 10.5876 0.0269429 10.6068 0.0920383C10.5936 0.210174 10.476 0.223434 10.4052 0.269242C9.114 1.02869 7.9344 1.93882 6.9432 3.06593C5.3064 4.92597 4.1724 7.06086 3.7872 9.54292C3.1092 13.9248 4.4712 17.6437 7.5552 20.749C8.1024 21.3059 8.1744 21.7375 7.7376 22.4848C7.2096 23.3817 6.408 23.9917 5.5536 24.5474C5.4624 24.5992 5.3712 24.6655 5.28 24.7246C5.1432 24.8427 5.2284 24.9018 5.3448 24.9537C5.3712 25.0127 5.4036 25.0646 5.442 25.1176C6.192 25.7854 6.9024 26.4991 7.6392 27.1802C7.9848 27.5008 8.3304 27.8347 8.6628 28.1686C8.8008 28.2928 9.03 28.3326 9.0624 28.5677Z" fill="#0180C7"/>
<path d="M9.0624 28.5672C9.03 28.3382 8.802 28.2984 8.6652 28.161C8.3328 27.8198 7.9872 27.4931 7.6416 27.1725C6.9048 26.4914 6.1944 25.7778 5.4444 25.1099C5.4048 25.0581 5.3724 25.0051 5.3472 24.946C7.0092 25.2739 8.6328 25.0509 10.23 24.559C10.7712 24.3951 11.3124 24.2311 11.8596 24.0937C12.2316 23.9961 12.6228 24.0154 12.9804 24.1456C17.1132 25.5728 21.1944 25.4426 25.2108 23.6742C26.8476 22.9473 28.3404 21.9251 29.6052 20.6485C29.67 20.5834 29.7156 20.4845 29.8332 20.4785C29.892 20.5701 29.8596 20.669 29.8596 20.7666V24.5976C29.8728 26.7855 28.1256 28.566 25.9476 28.5865H25.9152C23.568 28.5998 21.2208 28.5865 18.8736 28.5865H9.4536C9.3228 28.5745 9.192 28.5672 9.0624 28.5672Z" fill="#0172B1"/>
<path d="M10.0788 13.9098C11.0628 13.9098 11.9892 13.9038 12.9084 13.9098C13.4232 13.9159 13.704 14.1329 13.7556 14.5451C13.8144 15.0623 13.5144 15.4094 12.954 15.4167C11.898 15.4299 10.848 15.4227 9.792 15.4227C9.486 15.4227 9.186 15.436 8.8788 15.4167C8.5008 15.3974 8.1288 15.319 7.9464 14.926C7.764 14.5331 7.8948 14.1799 8.142 13.858C9.1464 12.5742 10.1568 11.2843 11.1672 10.0005C11.226 9.92214 11.2848 9.84379 11.3436 9.77146C11.2788 9.66056 11.1876 9.71239 11.1084 9.70636C10.404 9.70034 9.6936 9.70636 8.9892 9.70034C8.826 9.70034 8.6628 9.68105 8.5068 9.6485C8.1348 9.56291 7.9068 9.19042 7.992 8.82276C8.0508 8.57443 8.2464 8.3707 8.4936 8.31164C8.6496 8.27186 8.8128 8.25257 8.976 8.25257C10.1364 8.24654 11.304 8.24654 12.4644 8.25257C12.6732 8.24654 12.8748 8.27185 13.0776 8.3249C13.5204 8.47558 13.71 8.88785 13.5336 9.32061C13.3776 9.69431 13.1292 10.015 12.882 10.3356C12.0276 11.429 11.1744 12.5163 10.32 13.5976C10.2492 13.6808 10.1832 13.7664 10.0788 13.9098Z" fill="#0180C7"/>
<path d="M17.6412 10.4655C17.7972 10.263 17.9604 10.0726 18.228 10.0207C18.7428 9.91586 19.2252 10.2498 19.2324 10.7741C19.2516 12.0845 19.2456 13.3936 19.2324 14.704C19.2324 15.0451 19.0104 15.3453 18.6912 15.4441C18.3648 15.5683 17.994 15.4707 17.778 15.1886C17.6676 15.0512 17.622 15.0246 17.4648 15.1488C16.872 15.6334 16.2 15.719 15.4764 15.4827C14.316 15.103 13.8396 14.1929 13.71 13.0862C13.5732 11.888 13.9704 10.8658 15.0396 10.2377C15.9276 9.7061 16.8264 9.75191 17.6412 10.4655ZM15.3336 12.856C15.3468 13.1441 15.438 13.419 15.6072 13.648C15.9588 14.1193 16.6308 14.2182 17.1072 13.8638C17.1852 13.8047 17.2572 13.7324 17.322 13.648C17.6868 13.1501 17.6868 12.3316 17.322 11.8338C17.1396 11.5782 16.8528 11.4275 16.5456 11.4215C15.8292 11.3757 15.3276 11.9326 15.3336 12.856ZM22.1592 12.8946C22.1076 11.2117 23.2092 9.95443 24.774 9.90862C26.436 9.85679 27.6492 10.9767 27.7008 12.6137C27.7524 14.2712 26.742 15.4429 25.1844 15.5996C23.4828 15.7696 22.134 14.5328 22.1592 12.8946ZM23.796 12.7379C23.7828 13.0657 23.8812 13.3864 24.0768 13.6552C24.4356 14.1266 25.1064 14.2182 25.5768 13.8517C25.6488 13.7999 25.7076 13.7336 25.7664 13.6685C26.1444 13.1706 26.1444 12.3328 25.7724 11.835C25.59 11.5866 25.3032 11.4287 24.996 11.4227C24.2916 11.3817 23.796 11.9193 23.796 12.7379ZM21.5856 11.5915C21.5856 12.6065 21.5916 13.6215 21.5856 14.6365C21.5916 15.1018 21.2268 15.4875 20.7636 15.5008C20.6856 15.5008 20.6004 15.4948 20.5224 15.4743C20.196 15.3887 19.9488 15.0415 19.9488 14.6292V9.42402C19.9488 9.11663 19.9428 8.81526 19.9488 8.50666C19.9548 8.00277 20.2752 7.67489 20.7576 7.67489C21.2532 7.66886 21.5856 7.99554 21.5856 8.51992C21.5928 9.54216 21.5856 10.5704 21.5856 11.5915Z" fill="#0180C7"/>
<path d="M15.3336 12.8566C15.3276 11.9332 15.8292 11.3763 16.5396 11.4161C16.8456 11.4293 17.1324 11.58 17.316 11.8356C17.6808 12.3262 17.6808 13.1519 17.316 13.6498C16.9644 14.1211 16.2924 14.22 15.816 13.8656C15.738 13.8065 15.666 13.7342 15.6012 13.6498C15.438 13.4196 15.3468 13.1447 15.3336 12.8566ZM23.796 12.7385C23.796 11.926 24.2916 11.3823 24.996 11.4221C25.302 11.4281 25.5888 11.586 25.7724 11.8344C26.1444 12.3322 26.1444 13.1773 25.7664 13.6679C25.4016 14.1332 24.7236 14.2115 24.2604 13.8451C24.1884 13.7932 24.1296 13.7269 24.078 13.6546C23.8812 13.387 23.79 13.0663 23.796 12.7385Z" fill="#FDFEFE"/>
<path d="M25.6608 28.4889H4.26959C3.13679 28.4889 2.06759 28.0501 1.25879 27.2545C1.19999 27.1966 1.14119 27.1363 1.08479 27.0724C0.36359 26.2756 -0.0324097 25.2437 -0.0324097 24.1661V4.32282C-0.0324097 3.24513 0.36479 2.21324 1.08479 1.41643C1.48439 0.975225 1.95959 0.626844 2.49839 0.382134C3.05759 0.128985 3.65279 0 4.26959 0H25.6596C26.2404 0 26.8044 0.11452 27.3348 0.339943C27.8472 0.558133 28.3068 0.869144 28.7028 1.26574C29.0976 1.66234 29.4084 2.12524 29.6244 2.63998C29.8488 3.1728 29.9628 3.73937 29.9628 4.32282V24.1673C29.9628 24.7592 29.8464 25.3318 29.616 25.8706C29.394 26.3914 29.076 26.8567 28.6716 27.2545C27.8628 28.0501 26.7936 28.4889 25.6608 28.4889ZM4.26959 0.131396C3.09599 0.131396 1.97039 0.631666 1.18079 1.50443C0.48239 2.27713 0.0983903 3.27767 0.0983903 4.32282V24.1673C0.0983903 25.2124 0.48359 26.2129 1.18199 26.9857C1.23719 27.0471 1.29359 27.1062 1.35119 27.1617C2.13599 27.9344 3.17279 28.3587 4.27079 28.3587H25.6608C26.7588 28.3587 27.7968 27.9332 28.5804 27.1617C29.388 26.3672 29.8332 25.304 29.8332 24.1673V4.32282C29.8332 2.01193 27.9612 0.131396 25.6608 0.131396H4.26959Z" fill="#0180C7"/>
</g>
<defs>
<clipPath id="clip0_409_3369">
<rect width="30" height="28.5938" fill="white"/>
</clipPath>
</defs>
</svg>
