<svg width="6" height="10" viewBox="0 0 6 10" fill="none" xmlns="http://www.w3.org/2000/svg">
<path d="M0.528917 10C0.504888 9.99269 0.481365 9.9846 0.457084 9.97808C0.0308906 9.8643 -0.140093 9.33401 0.136111 8.98014C0.165704 8.9423 0.200103 8.90811 0.23349 8.87367C1.45592 7.61189 2.6786 6.35038 3.90179 5.08938C3.92809 5.06224 3.96224 5.04293 3.99284 5.01997C3.99638 5.00431 4.00018 4.98891 4.00372 4.97325C3.97109 4.95342 3.93239 4.93959 3.90634 4.91271C2.67152 3.64075 1.43771 2.36776 0.20415 1.09424C-0.0632006 0.818135 -0.0680067 0.428511 0.189986 0.173808C0.408014 -0.0412293 0.740116 -0.0589751 0.977621 0.133097C1.01708 0.165196 1.05325 0.202253 1.08891 0.238788C2.46563 1.65897 3.84235 3.07915 5.21906 4.4996C5.53321 4.82372 5.53295 5.17341 5.21881 5.4978C3.8689 6.89058 2.51849 8.28258 1.17036 9.67718C1.03301 9.81915 0.894406 9.95146 0.698888 9.99948C0.642484 10 0.585574 10 0.528917 10Z" fill="white"/>
</svg>
