<svg width="30" height="31" viewBox="0 0 30 31" fill="none" xmlns="http://www.w3.org/2000/svg">
<g clip-path="url(#clip0_409_3362)">
<path d="M15 30.0244C23.2843 30.0244 30 23.3087 30 15.0244C30 6.74014 23.2843 0.0244141 15 0.0244141C6.71573 0.0244141 0 6.74014 0 15.0244C0 23.3087 6.71573 30.0244 15 30.0244Z" fill="white"/>
<path d="M15.0133 0C6.72222 0 0 6.72222 0 15.0133C0 21.3756 3.95333 26.8133 9.53778 29C9.40222 27.8133 9.29111 25.9844 9.58667 24.6889C9.85778 23.5156 11.3422 17.2267 11.3422 17.2267C11.3422 17.2267 10.8978 16.3244 10.8978 15.0022C10.8978 12.9133 12.1089 11.3578 13.6156 11.3578C14.9 11.3578 15.5178 12.3222 15.5178 13.4711C15.5178 14.7556 14.7022 16.6844 14.2689 18.4756C13.9111 19.9711 15.0222 21.1933 16.4933 21.1933C19.1622 21.1933 21.2133 18.3756 21.2133 14.3244C21.2133 10.7289 18.6311 8.22 14.9356 8.22C10.66 8.22 8.15333 11.42 8.15333 14.7311C8.15333 16.0156 8.64667 17.4 9.26444 18.1533C9.38889 18.3022 9.4 18.4378 9.36222 18.5867C9.25111 19.0556 8.99111 20.0822 8.94222 20.2911C8.88 20.5622 8.72 20.6244 8.43555 20.4889C6.55778 19.6111 5.38444 16.88 5.38444 14.6689C5.38444 9.93556 8.82 5.58667 15.3067 5.58667C20.5089 5.58667 24.5622 9.29333 24.5622 14.26C24.5622 19.2267 21.3 23.6 16.7778 23.6C15.2578 23.6 13.8244 22.8089 13.3422 21.8711C13.3422 21.8711 12.5889 24.7378 12.4022 25.4422C12.0689 26.7511 11.1533 28.3822 10.5356 29.3844C11.9444 29.8178 13.4267 30.0511 14.9844 30.0511C23.2756 30.0511 29.9978 23.3289 29.9978 15.0378C30.0244 6.72222 23.3022 0 15.0133 0Z" fill="#C40027"/>
</g>
<defs>
<clipPath id="clip0_409_3362">
<rect width="30" height="30.0489" fill="white"/>
</clipPath>
</defs>
</svg>
