<?xml version="1.0" encoding="UTF-8"?>
<svg viewBox="0 0 280 63" xmlns="http://www.w3.org/2000/svg">
<path d="m90.869 60.397h-1.7598v-3.5605h-1.0641v-1.1786h1.0641v-3.4787h1.727c0.5157 0 0.9249 0.0164 1.2196 0.0573 0.4338 0.0573 0.8267 0.1474 1.195 0.2865 0.3683 0.131 0.7121 0.3356 1.0313 0.6139 0.4338 0.3683 0.7858 0.8512 1.0395 1.4405 0.1228 0.2865 0.2128 0.5648 0.2783 0.8595 0.0655 0.2864 0.09 0.5893 0.09 0.8921 0 0.573-0.1227 1.1459-0.3765 1.7189-0.2537 0.5729-0.5975 1.0395-1.0313 1.416-0.311 0.2619-0.663 0.4665-1.0477 0.6221-0.3356 0.1227-0.7121 0.2128-1.1459 0.2701-0.1391 0.0163-0.3192 0.0245-0.5402 0.0409-0.221 0.0082-0.4502 0.0164-0.6875 0.0164m1.0558-4.7392v1.1787h-1.285v2.079h0.1882c0.663 0 1.1705-0.0491 1.5225-0.1473 0.3028-0.0819 0.5811-0.221 0.8348-0.4093 0.3192-0.2455 0.5566-0.5484 0.7285-0.9004 0.1719-0.3519 0.2619-0.7284 0.2619-1.1377 0-0.4338-0.09-0.843-0.2783-1.2359-0.1882-0.3929-0.4583-0.7039-0.8103-0.9413-0.2947-0.2046-0.6712-0.3438-1.1213-0.4174-0.3111-0.0491-0.7203-0.0737-1.2114-0.0737h-0.1064v2.0053h1.285-0.0082z" fill="#fff"/>
<path d="m102.99 54.234v6.1715h-1.359v-0.8349c-0.229 0.311-0.54 0.5566-0.941 0.753-0.393 0.1883-0.7857 0.2865-1.1786 0.2865-0.4747 0-0.9003-0.09-1.2768-0.2619-0.3766-0.1801-0.7121-0.4338-0.9904-0.7694-0.2456-0.2947-0.4338-0.6384-0.573-1.0313-0.1391-0.3929-0.2046-0.794-0.2046-1.2114 0-0.442 0.0573-0.8431 0.1801-1.2032 0.1227-0.3601 0.3274-0.6957 0.6138-1.0149 0.3111-0.3602 0.6548-0.6303 1.0395-0.8022s0.8022-0.2619 1.2523-0.2619c0.4507 0 0.8187 0.09 1.1707 0.2701s0.655 0.442 0.9 0.794v-0.8677h1.359l8e-3 -0.0163zm-1.408 3.0775c0-0.5238-0.163-0.9576-0.491-1.3096-0.327-0.3437-0.753-0.5156-1.2849-0.5156-0.5321 0-0.974 0.1801-1.326 0.532-0.352 0.352-0.5238 0.8103-0.5238 1.3505 0 0.4993 0.18 0.9249 0.532 1.2687 0.3519 0.3438 0.7857 0.5157 1.2932 0.5157s0.9575-0.1719 1.2935-0.5239c0.335-0.3437 0.507-0.7857 0.507-1.3259m-2.7254-3.7242-0.5566-1.0231 2.505-1.4815 0.597 1.1541-2.5372 1.3505h-0.0082z" fill="#fff"/>
<path d="m111.63 58.392h1.67c-0.196 0.6466-0.581 1.1786-1.154 1.5878-0.573 0.4093-1.211 0.6139-1.899 0.6139-0.409 0-0.819-0.0818-1.228-0.2455s-0.769-0.3929-1.064-0.6794c-0.327-0.3192-0.581-0.6793-0.753-1.0886-0.172-0.4092-0.254-0.843-0.254-1.3096 0-0.8922 0.32-1.6534 0.966-2.2918 0.647-0.6302 1.416-0.9495 2.325-0.9495 0.679 0 1.318 0.2047 1.907 0.6221s0.982 0.9577 1.162 1.6206h-1.67c-0.319-0.532-0.794-0.8021-1.424-0.8021-0.524 0-0.949 0.1719-1.285 0.5157-0.335 0.3437-0.499 0.7775-0.499 1.3014 0 0.5238 0.172 0.9904 0.524 1.3341 0.352 0.352 0.794 0.5239 1.334 0.5239 0.278 0 0.532-0.0655 0.761-0.2047 0.229-0.1309 0.426-0.3192 0.581-0.5565" fill="#fff"/>
<path d="m114.34 60.397v-8.2178h1.482v2.521c0.147-0.2128 0.376-0.3765 0.687-0.4911 0.303-0.1146 0.606-0.1719 0.901-0.1719 0.344 0 0.671 0.0737 0.998 0.221 0.328 0.1474 0.598 0.352 0.811 0.5975 0.188 0.2129 0.327 0.4748 0.434 0.7858 0.049 0.1555 0.09 0.352 0.114 0.5811 0.025 0.2292 0.041 0.5075 0.041 0.8431v3.3395h-1.481v-3.0121c0-0.753-0.115-1.2687-0.344-1.547-0.205-0.2373-0.508-0.3601-0.917-0.3601-0.442 0-0.778 0.1801-1.007 0.532-0.098 0.1555-0.163 0.3847-0.204 0.6794-0.017 0.1719-0.025 0.4092-0.025 0.7121v2.9957h-1.481l-9e-3 -0.0082z" fill="#fff"/>
<path d="m124.07 54.037c0.893 0 1.654 0.3192 2.292 0.9659 0.311 0.3192 0.549 0.6793 0.704 1.0558 0.156 0.3847 0.238 0.8103 0.238 1.2687 0 0.9085-0.32 1.6779-0.966 2.3164-0.647 0.6384-1.425 0.9576-2.325 0.9576s-1.653-0.3192-2.3-0.9576c-0.646-0.6385-0.966-1.416-0.966-2.3082s0.328-1.6943 0.974-2.3327c0.647-0.6385 1.433-0.9577 2.358-0.9577m-0.066 1.4488c-0.106 0-0.221 0.0163-0.335 0.0409-0.115 0.0245-0.23 0.0655-0.352 0.1228-0.221 0.0982-0.418 0.2291-0.59 0.401-0.163 0.1719-0.294 0.3602-0.376 0.5893-0.09 0.221-0.131 0.4584-0.131 0.704 0 0.5074 0.172 0.933 0.515 1.2932 0.344 0.3601 0.77 0.532 1.269 0.532s0.941-0.1719 1.293-0.5238c0.344-0.352 0.516-0.7858 0.516-1.3014 0-0.5157-0.18-0.9495-0.532-1.3096-0.352-0.3602-0.778-0.5403-1.285-0.5403" fill="#fff"/>
<path d="m131.25 60.397v-8.2178h1.481v4.9602l1.981-2.9057h1.743l-2.226 3.0121 2.595 3.1512h-1.981l-2.112-2.8811v2.8811h-1.481z" fill="#fff"/>
<path d="m137.7 60.397v-8.2178h1.481v2.521c0.156-0.2128 0.377-0.3765 0.688-0.4911 0.303-0.1146 0.605-0.1719 0.9-0.1719 0.344 0 0.671 0.0737 0.999 0.221 0.327 0.1474 0.597 0.352 0.818 0.5975 0.188 0.2129 0.327 0.4748 0.434 0.7858 0.049 0.1555 0.09 0.352 0.114 0.5811 0.025 0.2292 0.041 0.5075 0.041 0.8431v3.3395h-1.481v-3.0121c0-0.753-0.115-1.2687-0.352-1.547-0.205-0.2373-0.507-0.3601-0.909-0.3601-0.442 0-0.777 0.1801-1.015 0.532-0.098 0.1555-0.163 0.3847-0.204 0.6794-0.017 0.1719-0.025 0.4092-0.025 0.7121v2.9957h-1.481l-8e-3 -0.0082z" fill="#fff"/>
<path d="m147.44 54.037c0.892 0 1.653 0.3192 2.292 0.9658 0.311 0.3192 0.548 0.6794 0.704 1.0559 0.155 0.3847 0.237 0.8103 0.237 1.2687 0 0.9085-0.319 1.6779-0.966 2.3163-0.647 0.6385-1.424 0.9577-2.324 0.9577-0.901 0-1.654-0.3192-2.3-0.9577-0.647-0.6384-0.966-1.416-0.966-2.3081 0-0.8922 0.327-1.6943 0.974-2.3328 0.646-0.6384 1.432-0.9576 2.357-0.9576m-2.284-0.5402 1.646-1.5306h1.17l1.629 1.5306h-1.613l-0.597-0.7121-0.614 0.7121h-1.621zm2.219 1.9807c-0.107 0-0.221 0.0164-0.336 0.041-0.115 0.0245-0.229 0.0655-0.352 0.1228-0.221 0.0982-0.417 0.2291-0.589 0.401-0.164 0.1719-0.295 0.3602-0.377 0.5893-0.09 0.221-0.131 0.4584-0.131 0.7039 0 0.5075 0.172 0.9331 0.516 1.2933 0.344 0.3601 0.769 0.532 1.269 0.532 0.499 0 0.941-0.1719 1.293-0.5238 0.344-0.352 0.515-0.7858 0.515-1.3015 0-0.5156-0.18-0.9494-0.532-1.3095-0.352-0.3602-0.777-0.5403-1.285-0.5403" fill="#fff"/>
<path d="m151.5 60.397v-6.1633h1.366v0.5729c0.189-0.2455 0.442-0.442 0.745-0.5729 0.303-0.131 0.622-0.1965 0.966-0.1965s0.647 0.0655 0.958 0.1965c0.311 0.1309 0.581 0.3192 0.802 0.5647l0.09 0.0901s0.041 0.0409 0.065 0.09c0.213 0.2947 0.352 0.6466 0.426 1.0641 0.041 0.2619 0.066 0.6466 0.066 1.154v3.1922h-1.482v-3.3559c0-0.1473-8e-3 -0.2537-0.024-0.3192-0.033-0.3028-0.107-0.532-0.221-0.7039-0.107-0.1719-0.254-0.311-0.434-0.4011-0.18-0.09-0.369-0.1391-0.557-0.1391s-0.393 0.0491-0.589 0.1473c-0.197 0.0983-0.344 0.2292-0.45 0.3929-0.099 0.1637-0.164 0.3602-0.197 0.5975-0.016 0.1228-0.024 0.2374-0.033 0.3602 0 0.1227-8e-3 0.2619-8e-3 0.4338v2.9793h-1.481l-8e-3 0.0164z" fill="#fff"/>
<path d="m163.02 54.234h1.359v5.2302c0 0.4993-0.058 0.9249-0.18 1.2851-0.131 0.3928-0.352 0.753-0.68 1.0967-0.319 0.3356-0.696 0.5976-1.129 0.7858-0.434 0.1883-0.876 0.2783-1.326 0.2783-0.663 0-1.285-0.1883-1.858-0.5566s-0.974-0.8676-1.204-1.4815h1.678c0.156 0.1719 0.369 0.3111 0.631 0.4256 0.262 0.1146 0.507 0.1719 0.753 0.1719 0.245 0 0.499-0.0409 0.745-0.1309 0.245-0.0901 0.458-0.2128 0.638-0.3847 0.155-0.1392 0.278-0.2947 0.36-0.4584s0.156-0.4829 0.237-0.9413c-0.27 0.3438-0.564 0.5975-0.867 0.7694-0.344 0.1965-0.72 0.2947-1.122 0.2947-0.376 0-0.769-0.09-1.17-0.2619-0.401-0.1801-0.745-0.4093-1.031-0.7039-0.295-0.3111-0.524-0.6794-0.688-1.0968-0.073-0.2128-0.131-0.4257-0.172-0.6385s-0.057-0.4338-0.057-0.6711c0-0.4011 0.074-0.7776 0.213-1.1459 0.139-0.3684 0.344-0.6958 0.614-1.0068 0.294-0.3274 0.638-0.5811 1.039-0.7694 0.401-0.1882 0.835-0.2783 1.293-0.2783 0.426 0 0.803 0.0819 1.13 0.2538 0.352 0.18 0.63 0.442 0.818 0.7939v-0.8512l-0.024-0.0082zm-0.033 3.1103c0-0.532-0.172-0.974-0.524-1.326-0.352-0.3519-0.785-0.532-1.326-0.532-0.221 0-0.45 0.0491-0.671 0.1391-0.221 0.0983-0.417 0.2292-0.589 0.4093-0.156 0.1637-0.278 0.3601-0.368 0.5729-0.074 0.2047-0.115 0.4338-0.115 0.6876 0 0.532 0.18 0.9822 0.532 1.3341 0.352 0.352 0.794 0.5321 1.326 0.5321 0.475 0 0.884-0.1801 1.228-0.5403 0.335-0.3601 0.507-0.7857 0.507-1.2768z" fill="#fff"/>
<path d="m173.48 54.234h1.359v5.2302c0 0.4993-0.057 0.9249-0.18 1.2851-0.131 0.3928-0.352 0.753-0.679 1.0967-0.32 0.3356-0.696 0.5976-1.13 0.7858-0.434 0.1883-0.876 0.2783-1.326 0.2783-0.663 0-1.285-0.1883-1.858-0.5566s-0.974-0.8676-1.203-1.4815h1.678c0.164 0.1719 0.368 0.3111 0.63 0.4256 0.262 0.1146 0.508 0.1719 0.753 0.1719 0.246 0 0.499-0.0409 0.745-0.1309 0.245-0.0901 0.458-0.2128 0.638-0.3847 0.156-0.1392 0.279-0.2947 0.361-0.4584 0.081-0.1637 0.155-0.4829 0.237-0.9413-0.27 0.3438-0.565 0.5975-0.868 0.7694-0.344 0.1965-0.72 0.2947-1.121 0.2947-0.377 0-0.769-0.09-1.171-0.2619-0.401-0.1801-0.744-0.4093-1.031-0.7039-0.295-0.3111-0.524-0.6794-0.687-1.0968-0.074-0.2128-0.131-0.4257-0.172-0.6385s-0.058-0.4338-0.058-0.6711c0-0.4011 0.074-0.7776 0.213-1.1459 0.139-0.3684 0.344-0.6958 0.614-1.0068 0.295-0.3274 0.639-0.5811 1.04-0.7694 0.401-0.1882 0.834-0.2783 1.293-0.2783 0.425 0 0.802 0.0819 1.129 0.2538 0.352 0.18 0.631 0.442 0.811 0.7939v-0.8512l-0.017-0.0082zm-0.032 3.1103c0-0.532-0.172-0.974-0.524-1.326-0.352-0.3519-0.794-0.532-1.326-0.532-0.221 0-0.45 0.0491-0.671 0.1391-0.221 0.0983-0.418 0.2292-0.59 0.4093-0.155 0.1637-0.278 0.3601-0.368 0.5729-0.074 0.2047-0.115 0.4338-0.115 0.6876 0 0.532 0.18 0.9822 0.532 1.3341 0.352 0.352 0.794 0.5321 1.326 0.5321 0.475 0 0.884-0.1801 1.228-0.5403 0.336-0.3601 0.508-0.7857 0.508-1.2768z" fill="#fff"/>
<path d="m175.99 52.179h1.482v1.3424h-1.482v-1.3424zm0 2.0545h1.482v6.1715h-1.482v-6.1715z" fill="#fff"/>
<path d="m184.91 54.234v6.1715h-1.359v-0.8348c-0.229 0.311-0.54 0.5565-0.941 0.753-0.393 0.1964-0.786 0.2865-1.179 0.2865-0.475 0-0.9-0.0901-1.277-0.262-0.376-0.18-0.712-0.4338-0.99-0.7693-0.246-0.2947-0.434-0.6385-0.573-1.0314-0.139-0.3928-0.197-0.7939-0.197-1.2113 0-0.442 0.058-0.8431 0.18-1.2032 0.123-0.3602 0.328-0.6958 0.614-1.015 0.311-0.3601 0.663-0.6302 1.04-0.8021 0.384-0.1719 0.802-0.2619 1.252-0.2619s0.819 0.09 1.171 0.2701c0.351 0.18 0.654 0.442 0.9 0.7939v-0.8676h1.359v-0.0164zm-1.408 3.0776c0-0.5238-0.164-0.9576-0.491-1.3096-0.328-0.3438-0.762-0.5157-1.285-0.5157-0.524 0-0.974 0.1801-1.326 0.5321-0.352 0.3519-0.524 0.8103-0.524 1.3587 0 0.4993 0.18 0.9249 0.532 1.2687 0.352 0.3437 0.786 0.5156 1.293 0.5156 0.508 0 0.958-0.1719 1.293-0.5238 0.336-0.352 0.508-0.7858 0.508-1.326z" fill="#fff"/>
<path d="m186.01 60.397v-6.1633h1.366v0.5729c0.189-0.2455 0.442-0.442 0.745-0.5729 0.303-0.131 0.622-0.1965 0.966-0.1965s0.647 0.0655 0.958 0.1965c0.311 0.1309 0.581 0.3192 0.802 0.5647l0.09 0.0901s0.041 0.0409 0.065 0.09c0.213 0.2947 0.352 0.6466 0.426 1.0641 0.041 0.2619 0.066 0.6466 0.066 1.154v3.1922h-1.482v-3.3559c0-0.1473-8e-3 -0.2537-0.025-0.3192-0.032-0.3028-0.106-0.532-0.221-0.7039-0.106-0.1719-0.253-0.311-0.433-0.4011-0.18-0.09-0.369-0.1391-0.557-0.1391s-0.393 0.0491-0.589 0.1473c-0.197 0.0983-0.344 0.2292-0.442 0.3929s-0.172 0.3602-0.205 0.5975c-0.016 0.1228-0.024 0.2374-0.033 0.3602 0 0.1227-8e-3 0.2619-8e-3 0.4338v2.9793h-1.481l-8e-3 0.0164z" fill="#fff"/>
<path d="m199.7 55.928h-1.449c-0.024-0.1474-0.082-0.2538-0.196-0.3356-0.106-0.0737-0.229-0.1146-0.368-0.1146-0.164 0-0.303 0.0409-0.418 0.1309-0.114 0.0901-0.172 0.221-0.172 0.3847 0 0.1719 0.098 0.3111 0.303 0.4175 0.066 0.0327 0.237 0.09 0.532 0.1882 0.442 0.131 0.753 0.2456 0.933 0.3356 0.311 0.1555 0.54 0.3356 0.704 0.5566 0.188 0.2619 0.287 0.5893 0.287 0.974 0 0.573-0.213 1.0641-0.622 1.4815-0.205 0.1883-0.451 0.352-0.737 0.4665-0.287 0.1228-0.573 0.1801-0.86 0.1801-0.638 0-1.17-0.1964-1.604-0.5975-0.425-0.4011-0.638-0.9085-0.638-1.5388h1.514c0.041 0.2128 0.131 0.3765 0.254 0.4911 0.147 0.131 0.319 0.2047 0.524 0.2047 0.188 0 0.352-0.0492 0.482-0.1556 0.14-0.0982 0.205-0.2455 0.205-0.4338 0-0.2128-0.123-0.3928-0.376-0.5402-0.041-0.0245-0.115-0.0573-0.221-0.0982-0.107-0.0409-0.254-0.09-0.451-0.1637-0.311-0.0982-0.507-0.1719-0.589-0.2046-0.18-0.0737-0.352-0.1883-0.524-0.3274-0.401-0.3356-0.597-0.7612-0.597-1.2851 0-0.5565 0.213-1.0149 0.63-1.3832 0.401-0.352 0.884-0.5239 1.449-0.5239 0.515 0 0.974 0.1883 1.383 0.5566 0.401 0.3765 0.606 0.8185 0.606 1.3342" fill="#fff"/>
<path d="m203.76 54.038c0.892 0 1.661 0.3192 2.291 0.9658 0.32 0.3274 0.549 0.6793 0.704 1.064 0.156 0.3847 0.238 0.8104 0.238 1.2687 0 0.9085-0.319 1.6779-0.966 2.3164-0.647 0.6384-1.416 0.9576-2.325 0.9576-0.908 0-1.653-0.3192-2.3-0.9576-0.646-0.6385-0.965-1.4079-0.965-2.3082 0-0.9004 0.327-1.6943 0.974-2.3327 0.646-0.6385 1.432-0.9577 2.357-0.9577m-2.284-0.5402 1.645-1.5306h1.171l1.62 1.5306h-1.612l-0.597-0.7121-0.614 0.7121h-1.613zm2.218 1.9808c-0.106 0-0.221 0.0164-0.335 0.0409-0.115 0.0246-0.229 0.0655-0.344 0.1228-0.221 0.0982-0.417 0.2292-0.589 0.4011-0.164 0.1718-0.295 0.3601-0.377 0.5893-0.09 0.221-0.131 0.4583-0.131 0.7039 0 0.5075 0.172 0.9331 0.516 1.2932s0.769 0.532 1.269 0.532c0.499 0 0.941-0.1718 1.293-0.5238s0.515-0.7858 0.515-1.3014c0-0.5157-0.171-0.9495-0.523-1.3096-0.352-0.3602-0.778-0.5402-1.285-0.5402m1.915-2.9384-0.565-1.0232 2.505-1.4815 0.589 1.1541-2.537 1.3506h8e-3z" fill="#fff"/>
<path d="m207.82 60.397v-6.1633h1.367v0.5729c0.188-0.2455 0.442-0.442 0.744-0.5729 0.303-0.131 0.622-0.1965 0.966-0.1965s0.647 0.0655 0.958 0.1965c0.311 0.1309 0.581 0.3192 0.802 0.5647l0.09 0.0901s0.041 0.0409 0.065 0.09c0.213 0.2947 0.352 0.6466 0.426 1.0641 0.041 0.2619 0.066 0.6466 0.066 1.154v3.1922h-1.482v-3.3559c0-0.1473-8e-3 -0.2537-0.024-0.3192-0.033-0.3028-0.107-0.532-0.221-0.7039-0.107-0.1719-0.254-0.311-0.434-0.4011-0.18-0.09-0.369-0.1391-0.557-0.1391s-0.393 0.0491-0.589 0.1473c-0.197 0.0983-0.344 0.2292-0.442 0.3929s-0.172 0.3602-0.205 0.5975c-0.016 0.1228-0.024 0.2374-0.033 0.3602 0 0.1227-8e-3 0.2619-8e-3 0.4338v2.9793h-1.481l-8e-3 0.0164z" fill="#fff"/>
<path d="m219.33 54.234h1.358v5.2302c0 0.4993-0.057 0.9249-0.18 1.2851-0.131 0.3928-0.36 0.753-0.679 1.0967-0.319 0.3356-0.696 0.5976-1.129 0.7858-0.434 0.1883-0.876 0.2783-1.326 0.2783-0.663 0-1.285-0.1883-1.858-0.5566s-0.974-0.8676-1.204-1.4815h1.678c0.156 0.1719 0.369 0.3111 0.631 0.4256 0.261 0.1146 0.507 0.1719 0.753 0.1719 0.245 0 0.499-0.0409 0.744-0.1309 0.246-0.0901 0.459-0.2128 0.639-0.3847 0.155-0.1392 0.278-0.2947 0.36-0.4584s0.155-0.4829 0.237-0.9413c-0.27 0.3438-0.564 0.5975-0.867 0.7694-0.344 0.1965-0.721 0.2947-1.122 0.2947-0.376 0-0.769-0.09-1.17-0.2619-0.401-0.1801-0.745-0.4093-1.031-0.7039-0.295-0.3111-0.524-0.6794-0.688-1.0968-0.074-0.2128-0.131-0.4257-0.172-0.6385s-0.057-0.4338-0.057-0.6711c0-0.4011 0.074-0.7776 0.213-1.1459 0.139-0.3684 0.343-0.6958 0.614-1.0068 0.294-0.3274 0.638-0.5811 1.039-0.7694 0.401-0.1882 0.835-0.2783 1.293-0.2783 0.426 0 0.802 0.0819 1.13 0.2538 0.352 0.18 0.63 0.442 0.81 0.7939v-0.8512l-0.016-0.0082zm-0.033 3.1103c0-0.532-0.172-0.974-0.524-1.326-0.352-0.3519-0.786-0.532-1.326-0.532-0.221 0-0.45 0.0491-0.671 0.1391-0.221 0.0983-0.417 0.2292-0.589 0.4093-0.156 0.1637-0.279 0.3601-0.369 0.5729-0.073 0.2047-0.114 0.4338-0.114 0.6876 0 0.532 0.18 0.9822 0.532 1.3341 0.352 0.352 0.794 0.5321 1.326 0.5321 0.475 0 0.884-0.1801 1.228-0.5403 0.335-0.3601 0.507-0.7857 0.507-1.2768z" fill="#fff"/>
<path d="m228.3 52.335h1.391v-0.5729h1.481v0.5647h0.532v0.9659l-0.532 0.0245v7.0882h-1.35v-0.8348c-0.221 0.3274-0.516 0.5811-0.892 0.7612-0.377 0.1801-0.77 0.2783-1.179 0.2783-0.45 0-0.859-0.0901-1.236-0.2783-0.376-0.1801-0.712-0.4338-0.99-0.7612-0.262-0.3029-0.467-0.6467-0.614-1.0395-0.147-0.3929-0.221-0.7858-0.221-1.1869 0-0.2209 0.016-0.4256 0.049-0.622s0.082-0.3929 0.156-0.5893c0.139-0.3847 0.352-0.7367 0.63-1.0477s0.622-0.5648 1.031-0.7612c0.409-0.1883 0.819-0.2865 1.236-0.2865 0.36 0 0.712 0.0737 1.056 0.2128 0.336 0.1473 0.622 0.352 0.851 0.6139v-1.5633h-1.383v-0.9741l-0.016 0.0082zm1.481 4.9683c0-0.5075-0.18-0.9413-0.54-1.2932-0.36-0.352-0.794-0.532-1.302-0.532-0.474 0-0.892 0.18-1.244 0.5402-0.36 0.3601-0.532 0.7776-0.532 1.2523 0 0.5156 0.172 0.9658 0.516 1.326 0.344 0.3683 0.777 0.5565 1.285 0.5565 0.507 0 0.933-0.18 1.285-0.5402 0.352-0.3601 0.532-0.7939 0.532-1.3096z" fill="#fff"/>
<path d="m238.55 54.234v6.1715h-1.359v-0.8348c-0.229 0.311-0.54 0.5565-0.941 0.753-0.393 0.1882-0.786 0.2865-1.179 0.2865-0.474 0-0.9-0.0901-1.276-0.262-0.377-0.18-0.712-0.4338-0.991-0.7694-0.245-0.2946-0.434-0.6384-0.573-1.0313-0.131-0.3928-0.204-0.7939-0.204-1.2113 0-0.442 0.057-0.8431 0.18-1.2032 0.122-0.3602 0.327-0.6958 0.614-1.015 0.311-0.3601 0.654-0.6302 1.039-0.8021s0.802-0.2619 1.252-0.2619c0.451 0 0.819 0.09 1.171 0.2701 0.352 0.18 0.655 0.442 0.9 0.7939v-0.8676h1.359l8e-3 -0.0164zm-1.408 3.0776c0-0.5238-0.163-0.9576-0.491-1.3096-0.327-0.3438-0.761-0.5157-1.285-0.5157s-0.974 0.1801-1.326 0.5321c-0.352 0.3601-0.524 0.8103-0.524 1.3587 0 0.4993 0.18 0.9249 0.532 1.2687 0.352 0.3437 0.786 0.5156 1.294 0.5156 0.507 0 0.957-0.1719 1.293-0.5238 0.335-0.352 0.507-0.7858 0.507-1.326zm-2.422-5.1975c0.049 0.1064 0.106 0.2046 0.18 0.2865 0.073 0.0819 0.139 0.1473 0.212 0.1883 0.066 0.0245 0.14 0.0491 0.23 0.0573 0.09 0.0163 0.18 0.0163 0.27 0.0163s0.18 0 0.262-0.0163c0.081-0.0082 0.155-0.0328 0.221-0.0655 0.065-0.041 0.139-0.0983 0.204-0.1883 0.066-0.0818 0.115-0.1801 0.164-0.2865h1.089c-0.099 0.4338-0.344 0.8022-0.737 1.105-0.164 0.1146-0.344 0.2046-0.54 0.2619-0.205 0.0573-0.426 0.0819-0.663 0.0819-0.238 0-0.459-0.0246-0.663-0.0819-0.205-0.0573-0.377-0.1391-0.541-0.2619-0.392-0.3028-0.638-0.6712-0.736-1.105h1.048v0.0082zm-0.442-1.506v-0.1801l0.024-0.2292v-0.0163c0-0.0246 0.016-0.0492 0.025-0.0655 8e-3 -0.0246 0.032-0.0655 0.065-0.1146 0.025-0.0655 0.057-0.1392 0.107-0.2046 0.049-0.0655 0.106-0.1392 0.171-0.2128 0.05-0.0492 0.107-0.0983 0.18-0.1474 0.066-0.0409 0.148-0.09 0.246-0.1228 0.221-0.0818 0.401-0.1227 0.557-0.1227 0.188 0 0.352 0.0327 0.499 0.09 0.147 0.0655 0.286 0.1555 0.409 0.2865 0.246 0.2455 0.368 0.5402 0.368 0.884 0 0.1391-0.04 0.2783-0.114 0.4174-0.082 0.1391-0.188 0.2783-0.336 0.4011-0.122 0.1146-0.221 0.2373-0.286 0.3683-0.066 0.1309-0.098 0.2619-0.098 0.4011h-0.974c0-0.1228 0.024-0.262 0.065-0.4011 0.041-0.1392 0.115-0.2783 0.205-0.4174l0.474-0.5566c0.058-0.0573 0.09-0.1392 0.09-0.2619 0-0.1064-0.032-0.1965-0.09-0.262-0.065-0.0654-0.139-0.1064-0.221-0.1064-0.09 0-0.163 0.0246-0.221 0.0819-0.049 0.0409-0.09 0.0982-0.114 0.1882-0.025 0.0819-0.033 0.1801-0.033 0.2947h-0.982l-0.016 0.0082z" fill="#fff"/>
<path d="m239.66 60.397v-6.1633h1.367v0.5729c0.188-0.2455 0.442-0.442 0.745-0.5729 0.303-0.131 0.622-0.1965 0.966-0.1965 0.343 0 0.646 0.0655 0.957 0.1965 0.311 0.1309 0.581 0.3192 0.802 0.5647l0.09 0.0901s0.041 0.0409 0.066 0.09c0.213 0.2947 0.352 0.6466 0.426 1.0641 0.041 0.2619 0.065 0.6466 0.065 1.154v3.1922h-1.481v-3.3559c0-0.1473-9e-3 -0.2537-0.025-0.3192-0.033-0.3028-0.106-0.532-0.221-0.7039-0.106-0.1719-0.254-0.311-0.434-0.4011-0.18-0.09-0.368-0.1391-0.556-0.1391-0.189 0-0.393 0.0491-0.59 0.1473-0.196 0.0983-0.343 0.2292-0.442 0.3929-0.098 0.1637-0.172 0.3602-0.204 0.5975-0.017 0.1228-0.025 0.2374-0.033 0.3602 0 0.1227-8e-3 0.2619-8e-3 0.4338v2.9793h-1.482l-8e-3 0.0164z" fill="#fff"/>
<path d="m251.16 54.234h1.359v5.2302c0 0.4993-0.057 0.9249-0.18 1.2851-0.131 0.3928-0.352 0.753-0.679 1.0967-0.32 0.3356-0.696 0.5976-1.13 0.7858-0.434 0.1883-0.876 0.2783-1.326 0.2783-0.663 0-1.285-0.1883-1.858-0.5566s-0.974-0.8676-1.203-1.4815h1.678c0.163 0.1719 0.368 0.3111 0.63 0.4256 0.262 0.1146 0.507 0.1719 0.753 0.1719s0.499-0.0409 0.745-0.1309c0.245-0.0901 0.458-0.2128 0.638-0.3847 0.156-0.1392 0.279-0.2947 0.36-0.4584 0.082-0.1637 0.156-0.4829 0.238-0.9413-0.27 0.3438-0.565 0.5975-0.868 0.7694-0.344 0.1965-0.72 0.2947-1.121 0.2947-0.377 0-0.77-0.09-1.171-0.2619-0.401-0.1801-0.744-0.4093-1.031-0.7039-0.295-0.3111-0.524-0.6794-0.687-1.0968-0.074-0.2128-0.131-0.4257-0.172-0.6385s-0.058-0.4338-0.058-0.6711c0-0.4011 0.074-0.7776 0.213-1.1459 0.139-0.3684 0.344-0.6958 0.614-1.0068 0.295-0.3274 0.638-0.5811 1.04-0.7694 0.401-0.1882 0.834-0.2783 1.293-0.2783 0.425 0 0.802 0.0819 1.129 0.2538 0.352 0.18 0.631 0.442 0.819 0.7939v-0.8512l-0.025-0.0082zm-0.033 3.1103c0-0.532-0.171-0.974-0.523-1.326-0.352-0.3519-0.786-0.532-1.326-0.532-0.221 0-0.45 0.0491-0.671 0.1391-0.221 0.0983-0.418 0.2292-0.59 0.4093-0.155 0.1637-0.278 0.3601-0.368 0.5729-0.074 0.2047-0.115 0.4338-0.115 0.6876 0 0.532 0.18 0.9822 0.532 1.3341 0.352 0.352 0.794 0.5321 1.326 0.5321 0.475 0 0.884-0.1801 1.228-0.5403 0.336-0.3601 0.507-0.7857 0.507-1.2768z" fill="#fff"/>
<path d="m261.21 58.392h1.67c-0.196 0.6466-0.581 1.1786-1.154 1.5878-0.573 0.4093-1.211 0.6139-1.899 0.6139-0.409 0-0.819-0.0818-1.228-0.2455s-0.769-0.3929-1.064-0.6794c-0.327-0.3192-0.581-0.6793-0.753-1.0886-0.172-0.4092-0.254-0.843-0.254-1.3096 0-0.8922 0.32-1.6534 0.966-2.2918 0.639-0.6302 1.416-0.9495 2.325-0.9495 0.679 0 1.318 0.2047 1.907 0.6221s0.982 0.9577 1.162 1.6206h-1.67c-0.319-0.532-0.794-0.8021-1.424-0.8021-0.524 0-0.949 0.1719-1.285 0.5157-0.335 0.3437-0.499 0.7775-0.499 1.3014 0 0.5238 0.172 0.9904 0.524 1.3341 0.352 0.352 0.794 0.5239 1.334 0.5239 0.278 0 0.532-0.0655 0.769-0.2047 0.229-0.1309 0.426-0.3192 0.581-0.5565" fill="#fff"/>
<path d="m270.16 54.234v6.1634h-1.359v-0.8349c-0.229 0.311-0.54 0.5566-0.941 0.753-0.393 0.1883-0.786 0.2865-1.179 0.2865-0.475 0-0.9-0.0901-1.277-0.2619-0.376-0.1801-0.712-0.4338-0.99-0.7694-0.246-0.2947-0.434-0.6385-0.573-1.0313-0.131-0.3929-0.205-0.794-0.205-1.2114 0-0.442 0.066-0.8513 0.18-1.2032 0.123-0.3601 0.328-0.6957 0.614-1.015 0.311-0.3601 0.663-0.6302 1.048-0.8021s0.802-0.2619 1.252-0.2619 0.819 0.09 1.171 0.2701 0.654 0.442 0.9 0.7939v-0.8676h1.359v-0.0082zm-5.362-0.7366 1.654-1.5306h1.17l1.621 1.5306h-1.613l-0.605-0.7121-0.614 0.7121h-1.613zm3.954 3.806c0-0.5238-0.164-0.9576-0.491-1.3096-0.328-0.3437-0.753-0.5156-1.285-0.5156s-0.974 0.18-1.326 0.532c-0.352 0.3601-0.524 0.8103-0.524 1.3587 0 0.4993 0.18 0.9249 0.532 1.2687s0.786 0.5156 1.293 0.5156c0.508 0 0.958-0.1718 1.293-0.5238 0.336-0.352 0.508-0.794 0.508-1.326zm0.188-4.7636-0.556-1.0232 2.504-1.4815 0.589 1.1541-2.537 1.3506z" fill="#fff"/>
<path d="m271.26 62.46v-8.2259h1.351v0.8021c0.237-0.3356 0.532-0.5893 0.868-0.753 0.343-0.1637 0.72-0.2456 1.137-0.2456 0.467 0 0.876 0.0737 1.228 0.2292s0.696 0.4093 1.015 0.7694c0.131 0.1391 0.254 0.2947 0.36 0.4665 0.107 0.1719 0.197 0.3602 0.27 0.5648 0.148 0.4011 0.221 0.8185 0.221 1.2523 0 0.8922-0.286 1.6534-0.867 2.2918-0.598 0.663-1.343 0.9904-2.227 0.9904-0.401 0-0.753-0.0655-1.047-0.2046-0.295-0.1392-0.573-0.3602-0.827-0.663v2.7256h-1.482zm3.201-6.9736c-0.508 0-0.941 0.18-1.285 0.532s-0.524 0.7858-0.524 1.3096c0 0.2701 0.049 0.5238 0.139 0.753s0.237 0.4338 0.442 0.6139c0.156 0.1391 0.336 0.2537 0.557 0.3438 0.221 0.0818 0.425 0.1309 0.622 0.1309 0.524 0 0.957-0.18 1.309-0.532 0.344-0.352 0.516-0.7939 0.516-1.3178 0-0.5238-0.172-0.9331-0.508-1.2932-0.335-0.3602-0.761-0.532-1.26-0.532" fill="#fff"/>
<path d="m154.95 16.149c-0.72-0.4583-1.604-0.6957-2.643-0.6957-1.334 0-2.423 0.4174-3.258 1.2523v-0.7366h-5.124v20.593h5.329v-13.423c0-0.6711 0.213-1.2195 0.655-1.6615 0.433-0.442 0.974-0.663 1.653-0.663 0.45 0 0.843 0.1391 1.195 0.4256l0.655 0.532 1.94-5.3693-0.402-0.262v0.0082z" fill="#fff"/>
<path d="m166.41 15.453c-3.159 0-5.86 1.0149-8.021 3.0285-2.177 2.0217-3.274 4.6409-3.274 7.7921s1.113 5.7377 3.299 7.7757c2.177 2.0217 4.87 3.0449 8.005 3.0449s5.827-1.0232 7.996-3.0449c2.186-2.038 3.299-4.649 3.299-7.7757s-1.105-5.7704-3.274-7.7921c-2.161-2.0054-4.862-3.0285-8.021-3.0285m5.696 10.821c0 1.637-0.532 2.9711-1.628 4.0679-1.097 1.0968-2.423 1.6288-4.068 1.6288-1.646 0-2.972-0.532-4.068-1.6288-1.097-1.0968-1.629-2.4227-1.629-4.0679s0.532-2.9712 1.629-4.068c1.096-1.0968 2.422-1.6288 4.068-1.6288 1.645 0 2.971 0.532 4.068 1.6288 1.096 1.0968 1.628 2.4228 1.628 4.068z" fill="#fff"/>
<path d="m191.04 24.203-4.207-0.8022c-2.079-0.3929-2.079-1.195-2.079-1.4569 0-0.3601 0.099-0.9004 0.933-1.3587 0.606-0.3274 1.294-0.4911 2.047-0.4911 1.62 0 3.249 0.6793 4.845 2.0217l0.467 0.3929 3.159-3.8961-0.516-0.3683c-2.602-1.858-5.312-2.7993-8.037-2.7993-2.177 0-4.052 0.5811-5.566 1.7189-1.76 1.2932-2.652 3.0448-2.652 5.2138 0 1.948 0.868 3.4704 2.57 4.5181 1.089 0.6548 2.685 1.1787 4.887 1.5961l2.365 0.4502c2.079 0.3847 2.079 1.3014 2.079 1.6452 0 0.3437-0.106 0.8758-1.072 1.3423-0.663 0.3274-1.4 0.4993-2.186 0.4993-2.152 0-4.01-0.8676-5.672-2.6519l-0.425-0.4584-3.749 3.7896 0.491 0.4175c2.766 2.3573 5.836 3.5523 9.126 3.5523 2.308 0 4.306-0.573 5.951-1.7107 1.899-1.3178 2.864-3.143 2.864-5.4185 0-3.1266-1.89-5.0583-5.614-5.7622" fill="#fff"/>
<path d="m206.58 31.087c-0.572-0.5647-0.867-1.5469-0.867-2.9302v-7.0555h3.364v-5.1238h-3.364v-6.4825l-5.329 1.4978v4.9847h-2.365v5.1238h2.365v7.8167c0 7.2847 6.303 7.653 6.393 7.653h2.505v-4.8947h-0.729c-0.466 0.0082-1.342 0.0328-1.981-0.5893" fill="#fff"/>
<path d="m222.21 15.453c-3.16 0-5.861 1.0149-8.021 3.0285-2.178 2.0217-3.274 4.6409-3.274 7.7921s1.113 5.7377 3.298 7.7757c2.177 2.0217 4.87 3.0449 7.997 3.0449s5.828-1.0232 8.005-3.0449c2.185-2.038 3.298-4.649 3.298-7.7757s-1.105-5.7704-3.274-7.7921c-2.16-2.0054-4.862-3.0285-8.021-3.0285m5.697 10.821c0 1.637-0.532 2.9711-1.629 4.0679s-2.423 1.6288-4.068 1.6288-2.971-0.532-4.068-1.6288-1.629-2.4227-1.629-4.0679 0.532-2.9712 1.629-4.068 2.423-1.6288 4.068-1.6288 2.971 0.532 4.068 1.6288 1.629 2.4228 1.629 4.068z" fill="#fff"/>
<path d="m246.87 15.453c-2.226 0-4.035 0.6466-5.386 1.9153v-1.3996h-5.328v20.593h5.328v-11.459c0-1.3505 0.369-2.3736 1.122-3.1512 0.753-0.7694 1.759-1.1459 3.085-1.1459 2.767 0 4.052 1.3914 4.052 4.3708v11.377h5.328v-12.302c0-2.3818-0.744-4.4445-2.209-6.1306-1.572-1.7843-3.586-2.6847-5.992-2.6847" fill="#fff"/>
<path d="m279.99 26.953c0-3.6096-1.252-6.548-3.724-8.7415-2.055-1.8335-4.387-2.7584-6.933-2.7584-3.159 0-5.86 1.0149-8.021 3.0285-2.178 2.0217-3.274 4.6409-3.274 7.7921s1.105 5.7704 3.274 7.7921c2.161 2.0053 4.862 3.0285 8.029 3.0285 3.7-0.0246 6.892-1.6943 9.478-4.952l0.442-0.5484-4.6-2.5619-0.311 0.4175c-1.391 1.858-3.069 2.7665-5.132 2.7665-1.366 0-2.553-0.4256-3.626-1.3096-0.875-0.7121-1.407-1.5633-1.62-2.5865h16.026v-1.3587l-8e-3 -0.0082zm-14.357-5.5167c0.86-0.7366 1.883-1.0967 3.135-1.0967 2.382 0 3.986 1.0886 4.887 3.3312h-9.56c0.343-0.9003 0.859-1.6451 1.538-2.2345z" fill="#fff"/>
<path d="m117.16 29.008-0.155-1.0395-0.819 0.663c-2.218 1.8007-5.009 2.7911-7.857 2.7911-5.787 0-10.764-3.9697-12.081-9.5355h19.635v-5.795h-19.635c1.3178-5.574 6.2944-9.5437 12.081-9.5437 2.954 0 5.811 1.0559 8.046 2.963l0.761 0.65484 1.473-6.7854-0.352-0.22099c-2.963-1.8662-6.401-2.8566-9.928-2.8566-9.2085 0-17.05 6.7526-18.458 15.797h-3.8142l-2.6602 5.795h6.4826c1.4078 9.0362 9.249 15.797 18.457 15.797 3.675 0 7.244-1.0722 10.305-3.0939l0.507-0.3356-0.344-0.5075c-0.81-1.1786-1.334-2.6846-1.637-4.7391" fill="#fff"/>
<path d="m135 27.436c0 1.2195-0.385 2.2181-1.171 3.053-0.777 0.8267-1.743 1.2359-2.955 1.2359-1.211 0-2.185-0.4011-2.954-1.2359-0.786-0.8431-1.171-1.8417-1.171-3.053v-11.459h-5.328v11.819c0 2.6929 0.908 4.9437 2.709 6.679 1.792 1.7352 4.06 2.611 6.744 2.611 2.685 0 4.961-0.8758 6.745-2.611 1.792-1.7353 2.709-3.9861 2.709-6.679v-11.819h-5.328v11.459z" fill="#fff"/>
<path d="m10.654 60.569h-9.8671c-0.43715 0-0.78687-0.334-0.78687-0.7516v-32.816c0-5.6194 4.7712-10.177 10.654-10.177 0.4371 0 0.7868 0.34 0.7868 0.7516v42.241c0 0.4176-0.3559 0.7516-0.7868 0.7516z" fill="#fff"/>
<path d="m52.426 60.569h-9.2867c-0.4114 0-0.7406-0.331-0.7406-0.7447v-35.608c0-5.5681 4.4906-10.084 10.027-10.084 0.4114 0 0.7406 0.3369 0.7406 0.7447v44.947c0 0.4137-0.3351 0.7447-0.7406 0.7447z" fill="#fff"/>
<path d="m19.477 60.563h-5.9777c-0.3959 0-0.7126-0.3351-0.7126-0.754v-36.174c0-0.4189 0.3223-0.754 0.7126-0.754 3.6929 0 6.6903 3.1716 6.6903 7.0791v29.854c0 0.4188-0.3224 0.7539-0.7126 0.7539" fill="#fff"/>
<path d="m39.65 60.569h-16.712c-0.4051 0-0.7292-0.3325-0.7292-0.748v-41.931c0-9.8831 7.8065-17.89 17.442-17.89 0.4051 0 0.7292 0.33241 0.7292 0.74791v59.073c0 0.4155-0.3299 0.748-0.7292 0.748z" fill="#fff"/>
<path d="m55.282 9.4218c-0.4276 0-0.7698 0.33763-0.7698 0.74629v49.655c0 0.4146 0.3483 0.7463 0.7698 0.7463h11.247c0.4276 0 0.7697-0.3317 0.7697-0.7463v-38.75c0-6.4326-5.3823-11.651-12.017-11.651z" fill="#fff"/>
</svg>
